SplineFontDB: 3.2
FontName: KenigSymbols
FullName: KenigSymbols
FamilyName: KenigSymbols
Weight: Regular
Copyright: Copyright (c) 2023-2024, Kenig Type Foundry
Version: 2.002; ttfautohint (v1.8.4.7-5d5b)
ItalicAngle: 0
UnderlinePosition: -125
UnderlineWidth: 50
Ascent: 800
Descent: 200
InvalidEm: 0
sfntRevision: 0x00020083
LayerCount: 2
Layer: 0 1 "Warstwa t+AUIA-a" 1
Layer: 1 1 "Plan pierwszy" 0
XUID: [1021 925 798089043 14541]
StyleMap: 0x0040
FSType: 0
OS2Version: 4
OS2_WeightWidthSlopeOnly: 0
OS2_UseTypoMetrics: 1
CreationTime: 1490035813
ModificationTime: 1733411260
PfmFamily: 17
TTFWeight: 400
TTFWidth: 5
LineGap: 0
VLineGap: 0
Panose: 2 11 5 2 4 5 4 2 2 4
OS2TypoAscent: 1480
OS2TypoAOffset: 0
OS2TypoDescent: -570
OS2TypoDOffset: 0
OS2TypoLinegap: 0
OS2WinAscent: 1480
OS2WinAOffset: 0
OS2WinDescent: 570
OS2WinDOffset: 0
HheadAscent: 1480
HheadAOffset: 0
HheadDescent: -570
HheadDOffset: 0
OS2SubXSize: 650
OS2SubYSize: 600
OS2SubXOff: 0
OS2SubYOff: 75
OS2SupXSize: 650
OS2SupYSize: 600
OS2SupXOff: 0
OS2SupYOff: 350
OS2StrikeYSize: 50
OS2StrikeYPos: 322
OS2CapHeight: 714
OS2XHeight: 536
OS2Vendor: 'GOOG'
OS2CodePages: 00000001.00000000
OS2UnicodeRanges: 00000003.0200e4b4.00000000.00000000
Lookup: 4 0 0 "'ccmp' Sk+AUIA-adanie/dekompozycja glif+APMA-w w +AUIA-aci+AUQA-skie w tablicy 0" { "Podtablica 'ccmp' Sk+AUIA-adanie/dekompozycja glif+APMA-w w +AUIA-aci+AUQA-skie w tablicy 0"  } ['ccmp' ('DFLT' <'dflt' > 'latn' <'dflt' > ) ]
Lookup: 4 0 0 "'ccmp' Sk+AUIA-adanie/dekompozycja glif+APMA-w w +AUIA-aci+AUQA-skie w tablicy 1" { "Podtablica 'ccmp' Sk+AUIA-adanie/dekompozycja glif+APMA-w w +AUIA-aci+AUQA-skie w tablicy 1"  } ['ccmp' ('DFLT' <'dflt' > 'latn' <'dflt' > ) ]
Lookup: 4 0 0 "'ccmp' Sk+AUIA-adanie/dekompozycja glif+APMA-w w +AUIA-aci+AUQA-skie w tablicy 2" { "Podtablica 'ccmp' Sk+AUIA-adanie/dekompozycja glif+APMA-w w +AUIA-aci+AUQA-skie w tablicy 2"  } ['ccmp' ('DFLT' <'dflt' > 'latn' <'dflt' > ) ]

StartChar: .notdef
Encoding: 1109 -1 0
Width: 600
GlyphClass: 1
Flags: W
LayerCount: 2
Fore
SplineSet
94 0 m 1,0,-1
 94 714 l 1,1,-1
 505 714 l 1,2,-1
 505 0 l 1,3,-1
 94 0 l 1,0,-1
145 51 m 1,4,-1
 454 51 l 1,5,-1
 454 663 l 1,6,-1
 145 663 l 1,7,-1
 145 51 l 1,4,-1
EndSplineSet
EndChar

StartChar: A
Encoding: 35 65 1
Width: 639
GlyphClass: 2
Flags: W
LayerCount: 2
Fore
SplineSet
0 0 m 1,0,-1
 279 717 l 1,1,-1
 360 717 l 1,2,-1
 638 0 l 1,3,-1
 545 0 l 1,4,-1
 459 221 l 1,5,-1
 176 221 l 1,6,-1
 91 0 l 1,7,-1
 0 0 l 1,0,-1
206 301 m 1,8,-1
 432 301 l 1,9,-1
 352 517 l 2,10,11
 349 525 349 525 342 546 c 128,-1,12
 335 567 335 567 328.5 589.5 c 128,-1,13
 322 612 322 612 318 624 c 1,14,15
 311 593 311 593 302 563.5 c 128,-1,16
 293 534 293 534 287 517 c 2,17,-1
 206 301 l 1,8,-1
EndSplineSet
Substitution2: "Podtablica Podstawienie pojedyncze w tablicy 12" ordfeminine
EndChar

StartChar: A.001
Encoding: 1110 -1 2
Width: 740
GlyphClass: 1
Flags: W
LayerCount: 2
Fore
SplineSet
51 0 m 1,0,-1
 330 717 l 1,1,-1
 411 717 l 1,2,-1
 689 0 l 1,3,-1
 596 0 l 1,4,-1
 510 221 l 1,5,-1
 227 221 l 1,6,-1
 142 0 l 1,7,-1
 51 0 l 1,0,-1
257 301 m 1,8,-1
 483 301 l 1,9,-1
 403 517 l 2,10,11
 400 525 400 525 393 546 c 128,-1,12
 386 567 386 567 379.5 589.5 c 128,-1,13
 373 612 373 612 369 624 c 1,14,15
 362 593 362 593 353 563.5 c 128,-1,16
 344 534 344 534 338 517 c 2,17,-1
 257 301 l 1,8,-1
EndSplineSet
EndChar

StartChar: u1F150
Encoding: 907 127312 8
Width: 1000
GlyphClass: 1
Flags: W
LayerCount: 2
Fore
SplineSet
500 -55 m 0,0,1
 415 -55 415 -55 340 -23 c 128,-1,2
 265 9 265 9 208.5 65.5 c 128,-1,3
 152 122 152 122 120 197 c 128,-1,4
 88 272 88 272 88 357 c 256,5,6
 88 442 88 442 120 516.5 c 128,-1,7
 152 591 152 591 208.5 648 c 128,-1,8
 265 705 265 705 340 737 c 128,-1,9
 415 769 415 769 500 769 c 0,10,11
 586 769 586 769 660.5 737 c 128,-1,12
 735 705 735 705 791.5 648 c 128,-1,13
 848 591 848 591 880 516.5 c 128,-1,14
 912 442 912 442 912 357 c 256,15,16
 912 272 912 272 880 197 c 128,-1,17
 848 122 848 122 791.5 65.5 c 128,-1,18
 735 9 735 9 660.5 -23 c 128,-1,19
 586 -55 586 -55 500 -55 c 0,0,1
301 145 m 1,20,-1
 369 145 l 1,21,-1
 420 275 l 1,22,-1
 582 275 l 1,23,-1
 634 145 l 1,24,-1
 702 145 l 1,25,-1
 531 574 l 1,26,-1
 474 574 l 1,27,-1
 301 145 l 1,20,-1
442 329 m 1,28,-1
 487 451 l 2,29,30
 493 468 493 468 496.5 483 c 128,-1,31
 500 498 500 498 500 511 c 1,32,-1
 504 511 l 1,33,34
 505 496 505 496 508.5 481.5 c 128,-1,35
 512 467 512 467 518 451 c 2,36,-1
 563 329 l 1,37,-1
 442 329 l 1,28,-1
EndSplineSet
EndChar

StartChar: u1F130
Encoding: 875 127280 9
Width: 1000
GlyphClass: 1
Flags: W
LayerCount: 2
Fore
SplineSet
112 -31 m 1,0,-1
 112 745 l 1,1,-1
 888 745 l 1,2,-1
 888 -31 l 1,3,-1
 112 -31 l 1,0,-1
167 24 m 1,4,-1
 833 24 l 1,5,-1
 833 690 l 1,6,-1
 167 690 l 1,7,-1
 167 24 l 1,4,-1
301 145 m 1,8,-1
 474 574 l 1,9,-1
 531 574 l 1,10,-1
 702 145 l 1,11,-1
 634 145 l 1,12,-1
 582 275 l 1,13,-1
 420 275 l 1,14,-1
 369 145 l 1,15,-1
 301 145 l 1,8,-1
442 329 m 1,16,-1
 563 329 l 1,17,-1
 518 451 l 2,18,19
 513 466 513 466 509.5 481 c 128,-1,20
 506 496 506 496 504 511 c 1,21,-1
 500 511 l 1,22,23
 500 483 500 483 487 451 c 2,24,-1
 442 329 l 1,16,-1
EndSplineSet
EndChar

StartChar: uni24B6
Encoding: 583 9398 10
Width: 1000
GlyphClass: 1
Flags: W
LayerCount: 2
Fore
SplineSet
500 -55 m 0,0,1
 415 -55 415 -55 340 -23 c 128,-1,2
 265 9 265 9 208.5 65.5 c 128,-1,3
 152 122 152 122 120 197 c 128,-1,4
 88 272 88 272 88 357 c 0,5,6
 88 443 88 443 120 517.5 c 128,-1,7
 152 592 152 592 208.5 648.5 c 128,-1,8
 265 705 265 705 340 737 c 128,-1,9
 415 769 415 769 500 769 c 0,10,11
 586 769 586 769 660.5 737 c 128,-1,12
 735 705 735 705 791.5 648.5 c 128,-1,13
 848 592 848 592 880 517.5 c 128,-1,14
 912 443 912 443 912 357 c 0,15,16
 912 272 912 272 880 197 c 128,-1,17
 848 122 848 122 791.5 65.5 c 128,-1,18
 735 9 735 9 660.5 -23 c 128,-1,19
 586 -55 586 -55 500 -55 c 0,0,1
500 1 m 256,20,21
 574 1 574 1 638.5 28.5 c 128,-1,22
 703 56 703 56 752 105 c 128,-1,23
 801 154 801 154 828.5 218.5 c 128,-1,24
 856 283 856 283 856 357 c 256,25,26
 856 431 856 431 828.5 495.5 c 128,-1,27
 801 560 801 560 752 609 c 128,-1,28
 703 658 703 658 638.5 685.5 c 128,-1,29
 574 713 574 713 500 713 c 256,30,31
 426 713 426 713 361.5 685.5 c 128,-1,32
 297 658 297 658 248 609 c 128,-1,33
 199 560 199 560 171.5 495.5 c 128,-1,34
 144 431 144 431 144 357 c 256,35,36
 144 283 144 283 171.5 218.5 c 128,-1,37
 199 154 199 154 248 105 c 128,-1,38
 297 56 297 56 361.5 28.5 c 128,-1,39
 426 1 426 1 500 1 c 256,20,21
301 145 m 1,40,-1
 474 574 l 1,41,-1
 531 574 l 1,42,-1
 702 145 l 1,43,-1
 634 145 l 1,44,-1
 582 275 l 1,45,-1
 420 275 l 1,46,-1
 369 145 l 1,47,-1
 301 145 l 1,40,-1
442 329 m 1,48,-1
 563 329 l 1,49,-1
 518 451 l 2,50,51
 512 468 512 468 508 482.5 c 128,-1,52
 504 497 504 497 504 511 c 1,53,-1
 500 511 l 1,54,55
 500 483 500 483 487 451 c 2,56,-1
 442 329 l 1,48,-1
EndSplineSet
EndChar

StartChar: u1F110
Encoding: 843 127248 11
Width: 1000
GlyphClass: 1
Flags: W
LayerCount: 2
Fore
SplineSet
731 -57 m 1,0,1
 859 124 859 124 859 352 c 0,2,3
 859 464 859 464 826.5 571 c 128,-1,4
 794 678 794 678 731 767 c 1,5,-1
 789 767 l 1,6,7
 922 598 922 598 922 351 c 0,8,9
 922 106 922 106 789 -57 c 1,10,-1
 731 -57 l 1,0,1
211 -57 m 1,11,12
 78 106 78 106 78 351 c 0,13,14
 78 598 78 598 211 767 c 1,15,-1
 269 767 l 1,16,17
 206 678 206 678 173.5 571 c 128,-1,18
 141 464 141 464 141 352 c 0,19,20
 141 124 141 124 269 -57 c 1,21,-1
 211 -57 l 1,11,12
299 145 m 1,22,-1
 472 574 l 1,23,-1
 529 574 l 1,24,-1
 700 145 l 1,25,-1
 632 145 l 1,26,-1
 580 275 l 1,27,-1
 418 275 l 1,28,-1
 367 145 l 1,29,-1
 299 145 l 1,22,-1
440 329 m 1,30,-1
 561 329 l 1,31,-1
 516 451 l 2,32,33
 510 467 510 467 506.5 481.5 c 128,-1,34
 503 496 503 496 502 511 c 1,35,-1
 498 511 l 1,36,37
 498 498 498 498 494.5 483 c 128,-1,38
 491 468 491 468 485 451 c 2,39,-1
 440 329 l 1,30,-1
EndSplineSet
EndChar

StartChar: u1F170
Encoding: 936 127344 12
Width: 1000
GlyphClass: 1
Flags: W
LayerCount: 2
Fore
SplineSet
208 -31 m 2,0,1
 112 -31 112 -31 112 65 c 2,2,-1
 112 649 l 2,3,4
 112 745 112 745 208 745 c 2,5,-1
 792 745 l 2,6,7
 888 745 888 745 888 649 c 2,8,-1
 888 65 l 2,9,10
 888 -31 888 -31 792 -31 c 2,11,-1
 208 -31 l 2,0,1
301 145 m 1,12,-1
 369 145 l 1,13,-1
 420 275 l 1,14,-1
 582 275 l 1,15,-1
 634 145 l 1,16,-1
 702 145 l 1,17,-1
 531 574 l 1,18,-1
 474 574 l 1,19,-1
 301 145 l 1,12,-1
442 329 m 1,20,-1
 487 451 l 2,21,22
 493 468 493 468 496.5 483 c 128,-1,23
 500 498 500 498 500 511 c 1,24,-1
 504 511 l 1,25,26
 506 496 506 496 509.5 481 c 128,-1,27
 513 466 513 466 518 451 c 2,28,-1
 563 329 l 1,29,-1
 442 329 l 1,20,-1
EndSplineSet
EndChar

StartChar: B
Encoding: 36 66 13
Width: 650
GlyphClass: 2
Flags: W
LayerCount: 2
Fore
SplineSet
97 0 m 1,0,-1
 97 714 l 1,1,-1
 301 714 l 2,2,3
 435 714 435 714 503.5 674.5 c 128,-1,4
 572 635 572 635 572 537 c 0,5,6
 572 474 572 474 537 432.5 c 128,-1,7
 502 391 502 391 436 379 c 1,8,-1
 436 374 l 1,9,10
 481 367 481 367 517.5 348 c 128,-1,11
 554 329 554 329 575 294 c 128,-1,12
 596 259 596 259 596 203 c 0,13,14
 596 106 596 106 529.5 53 c 128,-1,15
 463 0 463 0 348 0 c 2,16,-1
 97 0 l 1,0,-1
187 410 m 1,17,-1
 319 410 l 2,18,19
 411 410 411 410 445 439.5 c 128,-1,20
 479 469 479 469 479 527 c 0,21,22
 479 586 479 586 437.5 611.5 c 128,-1,23
 396 637 396 637 305 637 c 2,24,-1
 187 637 l 1,25,-1
 187 410 l 1,17,-1
187 76 m 1,26,-1
 331 76 l 2,27,28
 426 76 426 76 463 113 c 128,-1,29
 500 150 500 150 500 210 c 0,30,31
 500 266 500 266 461.5 300.5 c 128,-1,32
 423 335 423 335 324 335 c 2,33,-1
 187 335 l 1,34,-1
 187 76 l 1,26,-1
EndSplineSet
EndChar

StartChar: B.001
Encoding: 1116 -1 14
Width: 601
GlyphClass: 1
Flags: W
LayerCount: 2
Fore
SplineSet
51 0 m 1,0,-1
 51 714 l 1,1,-1
 255 714 l 2,2,3
 389 714 389 714 457.5 674.5 c 128,-1,4
 526 635 526 635 526 537 c 0,5,6
 526 474 526 474 491 432.5 c 128,-1,7
 456 391 456 391 390 379 c 1,8,-1
 390 374 l 1,9,10
 435 367 435 367 471.5 348 c 128,-1,11
 508 329 508 329 529 294 c 128,-1,12
 550 259 550 259 550 203 c 0,13,14
 550 106 550 106 483.5 53 c 128,-1,15
 417 0 417 0 302 0 c 2,16,-1
 51 0 l 1,0,-1
141 410 m 1,17,-1
 273 410 l 2,18,19
 365 410 365 410 399 439.5 c 128,-1,20
 433 469 433 469 433 527 c 0,21,22
 433 586 433 586 391.5 611.5 c 128,-1,23
 350 637 350 637 259 637 c 2,24,-1
 141 637 l 1,25,-1
 141 410 l 1,17,-1
141 76 m 1,26,-1
 285 76 l 2,27,28
 380 76 380 76 417 113 c 128,-1,29
 454 150 454 150 454 210 c 0,30,31
 454 266 454 266 415.5 300.5 c 128,-1,32
 377 335 377 335 278 335 c 2,33,-1
 141 335 l 1,34,-1
 141 76 l 1,26,-1
EndSplineSet
EndChar

StartChar: u1F151
Encoding: 908 127313 20
Width: 1000
GlyphClass: 1
Flags: W
LayerCount: 2
Fore
SplineSet
500 -55 m 0,0,1
 415 -55 415 -55 340 -23 c 128,-1,2
 265 9 265 9 208.5 65.5 c 128,-1,3
 152 122 152 122 120 197 c 128,-1,4
 88 272 88 272 88 357 c 256,5,6
 88 442 88 442 120 516.5 c 128,-1,7
 152 591 152 591 208.5 648 c 128,-1,8
 265 705 265 705 340 737 c 128,-1,9
 415 769 415 769 500 769 c 0,10,11
 586 769 586 769 660.5 737 c 128,-1,12
 735 705 735 705 791.5 648 c 128,-1,13
 848 591 848 591 880 516.5 c 128,-1,14
 912 442 912 442 912 357 c 256,15,16
 912 272 912 272 880 197 c 128,-1,17
 848 122 848 122 791.5 65.5 c 128,-1,18
 735 9 735 9 660.5 -23 c 128,-1,19
 586 -55 586 -55 500 -55 c 0,0,1
371 145 m 1,20,-1
 531 145 l 2,21,22
 604 145 604 145 646 177.5 c 128,-1,23
 688 210 688 210 688 268 c 0,24,25
 688 347 688 347 596 372 c 1,26,27
 675 394 675 394 675 466 c 0,28,29
 675 526 675 526 631 550 c 128,-1,30
 587 574 587 574 503 574 c 2,31,-1
 371 574 l 1,32,-1
 371 145 l 1,20,-1
440 395 m 1,33,-1
 440 521 l 1,34,-1
 505 521 l 2,35,36
 557 521 557 521 580.5 506.5 c 128,-1,37
 604 492 604 492 604 460 c 256,38,39
 604 428 604 428 585 411.5 c 128,-1,40
 566 395 566 395 513 395 c 2,41,-1
 440 395 l 1,33,-1
579 376 m 1,42,43
 588 374 588 374 596 372 c 1,44,45
 588 370 588 370 579 368 c 1,46,-1
 579 376 l 1,42,43
440 198 m 1,47,-1
 440 343 l 1,48,-1
 517 343 l 2,49,50
 617 343 617 343 617 273 c 0,51,52
 617 198 617 198 521 198 c 2,53,-1
 440 198 l 1,47,-1
EndSplineSet
EndChar

StartChar: u1F131
Encoding: 876 127281 21
Width: 1000
GlyphClass: 1
Flags: W
LayerCount: 2
Fore
SplineSet
112 -31 m 1,0,-1
 112 745 l 1,1,-1
 888 745 l 1,2,-1
 888 -31 l 1,3,-1
 112 -31 l 1,0,-1
167 24 m 1,4,-1
 833 24 l 1,5,-1
 833 690 l 1,6,-1
 167 690 l 1,7,-1
 167 24 l 1,4,-1
371 145 m 1,8,-1
 371 574 l 1,9,-1
 503 574 l 2,10,11
 587 574 587 574 631 550 c 128,-1,12
 675 526 675 526 675 466 c 0,13,14
 675 394 675 394 596 372 c 1,15,16
 688 347 688 347 688 268 c 0,17,18
 688 210 688 210 646 177.5 c 128,-1,19
 604 145 604 145 531 145 c 2,20,-1
 371 145 l 1,8,-1
440 395 m 1,21,-1
 513 395 l 2,22,23
 566 395 566 395 585 411.5 c 128,-1,24
 604 428 604 428 604 460 c 256,25,26
 604 492 604 492 580.5 506.5 c 128,-1,27
 557 521 557 521 505 521 c 2,28,-1
 440 521 l 1,29,-1
 440 395 l 1,21,-1
440 198 m 1,30,-1
 521 198 l 2,31,32
 617 198 617 198 617 273 c 0,33,34
 617 343 617 343 517 343 c 2,35,-1
 440 343 l 1,36,-1
 440 198 l 1,30,-1
EndSplineSet
EndChar

StartChar: uni24B7
Encoding: 584 9399 22
Width: 1000
GlyphClass: 1
Flags: W
LayerCount: 2
Fore
SplineSet
500 -55 m 0,0,1
 415 -55 415 -55 340 -23 c 128,-1,2
 265 9 265 9 208.5 65.5 c 128,-1,3
 152 122 152 122 120 197 c 128,-1,4
 88 272 88 272 88 357 c 0,5,6
 88 443 88 443 120 517.5 c 128,-1,7
 152 592 152 592 208.5 648.5 c 128,-1,8
 265 705 265 705 340 737 c 128,-1,9
 415 769 415 769 500 769 c 0,10,11
 586 769 586 769 660.5 737 c 128,-1,12
 735 705 735 705 791.5 648.5 c 128,-1,13
 848 592 848 592 880 517.5 c 128,-1,14
 912 443 912 443 912 357 c 0,15,16
 912 272 912 272 880 197 c 128,-1,17
 848 122 848 122 791.5 65.5 c 128,-1,18
 735 9 735 9 660.5 -23 c 128,-1,19
 586 -55 586 -55 500 -55 c 0,0,1
500 1 m 256,20,21
 574 1 574 1 638.5 28.5 c 128,-1,22
 703 56 703 56 752 105 c 128,-1,23
 801 154 801 154 828.5 218.5 c 128,-1,24
 856 283 856 283 856 357 c 256,25,26
 856 431 856 431 828.5 495.5 c 128,-1,27
 801 560 801 560 752 609 c 128,-1,28
 703 658 703 658 638.5 685.5 c 128,-1,29
 574 713 574 713 500 713 c 256,30,31
 426 713 426 713 361.5 685.5 c 128,-1,32
 297 658 297 658 248 609 c 128,-1,33
 199 560 199 560 171.5 495.5 c 128,-1,34
 144 431 144 431 144 357 c 256,35,36
 144 283 144 283 171.5 218.5 c 128,-1,37
 199 154 199 154 248 105 c 128,-1,38
 297 56 297 56 361.5 28.5 c 128,-1,39
 426 1 426 1 500 1 c 256,20,21
371 145 m 1,40,-1
 371 574 l 1,41,-1
 503 574 l 2,42,43
 587 574 587 574 631 550 c 128,-1,44
 675 526 675 526 675 466 c 0,45,46
 675 394 675 394 596 372 c 1,47,48
 688 347 688 347 688 268 c 0,49,50
 688 210 688 210 646 177.5 c 128,-1,51
 604 145 604 145 531 145 c 2,52,-1
 371 145 l 1,40,-1
440 395 m 1,53,-1
 513 395 l 2,54,55
 566 395 566 395 585 411.5 c 128,-1,56
 604 428 604 428 604 460 c 256,57,58
 604 492 604 492 580.5 506.5 c 128,-1,59
 557 521 557 521 505 521 c 2,60,-1
 440 521 l 1,61,-1
 440 395 l 1,53,-1
440 198 m 1,62,-1
 521 198 l 2,63,64
 617 198 617 198 617 273 c 0,65,66
 617 343 617 343 517 343 c 2,67,-1
 440 343 l 1,68,-1
 440 198 l 1,62,-1
EndSplineSet
EndChar

StartChar: u1F111
Encoding: 844 127249 23
Width: 1000
GlyphClass: 1
Flags: W
LayerCount: 2
Fore
SplineSet
731 -57 m 1,0,1
 859 124 859 124 859 352 c 0,2,3
 859 464 859 464 826.5 571 c 128,-1,4
 794 678 794 678 731 767 c 1,5,-1
 789 767 l 1,6,7
 922 598 922 598 922 351 c 0,8,9
 922 106 922 106 789 -57 c 1,10,-1
 731 -57 l 1,0,1
211 -57 m 1,11,12
 78 106 78 106 78 351 c 0,13,14
 78 598 78 598 211 767 c 1,15,-1
 269 767 l 1,16,17
 206 678 206 678 173.5 571 c 128,-1,18
 141 464 141 464 141 352 c 0,19,20
 141 124 141 124 269 -57 c 1,21,-1
 211 -57 l 1,11,12
366 145 m 1,22,-1
 366 574 l 1,23,-1
 498 574 l 2,24,25
 582 574 582 574 626 550 c 128,-1,26
 670 526 670 526 670 466 c 0,27,28
 670 393 670 393 591 372 c 1,29,30
 683 346 683 346 683 268 c 0,31,32
 683 210 683 210 641 177.5 c 128,-1,33
 599 145 599 145 526 145 c 2,34,-1
 366 145 l 1,22,-1
435 395 m 1,35,-1
 508 395 l 2,36,37
 561 395 561 395 580 411.5 c 128,-1,38
 599 428 599 428 599 460 c 256,39,40
 599 492 599 492 575.5 506.5 c 128,-1,41
 552 521 552 521 500 521 c 2,42,-1
 435 521 l 1,43,-1
 435 395 l 1,35,-1
435 198 m 1,44,-1
 516 198 l 2,45,46
 612 198 612 198 612 273 c 0,47,48
 612 343 612 343 512 343 c 2,49,-1
 435 343 l 1,50,-1
 435 198 l 1,44,-1
EndSplineSet
EndChar

StartChar: u1F171
Encoding: 937 127345 24
Width: 1000
GlyphClass: 1
Flags: W
LayerCount: 2
Fore
SplineSet
208 -31 m 2,0,1
 112 -31 112 -31 112 65 c 2,2,-1
 112 649 l 2,3,4
 112 745 112 745 208 745 c 2,5,-1
 792 745 l 2,6,7
 888 745 888 745 888 649 c 2,8,-1
 888 65 l 2,9,10
 888 -31 888 -31 792 -31 c 2,11,-1
 208 -31 l 2,0,1
371 145 m 1,12,-1
 531 145 l 2,13,14
 604 145 604 145 646 177.5 c 128,-1,15
 688 210 688 210 688 268 c 0,16,17
 688 347 688 347 596 372 c 1,18,19
 675 394 675 394 675 466 c 0,20,21
 675 526 675 526 631 550 c 128,-1,22
 587 574 587 574 503 574 c 2,23,-1
 371 574 l 1,24,-1
 371 145 l 1,12,-1
440 395 m 1,25,-1
 440 521 l 1,26,-1
 505 521 l 2,27,28
 557 521 557 521 580.5 506.5 c 128,-1,29
 604 492 604 492 604 460 c 256,30,31
 604 428 604 428 585 411.5 c 128,-1,32
 566 395 566 395 513 395 c 2,33,-1
 440 395 l 1,25,-1
579 376 m 1,34,35
 588 374 588 374 596 372 c 1,36,37
 588 370 588 370 579 368 c 1,38,-1
 579 376 l 1,34,35
440 198 m 1,39,-1
 440 343 l 1,40,-1
 517 343 l 2,41,42
 617 343 617 343 617 273 c 0,43,44
 617 198 617 198 521 198 c 2,45,-1
 440 198 l 1,39,-1
EndSplineSet
EndChar

StartChar: C
Encoding: 37 67 25
Width: 632
GlyphClass: 2
Flags: W
LayerCount: 2
Fore
SplineSet
389 -10 m 0,0,1
 280 -10 280 -10 207 35 c 128,-1,2
 134 80 134 80 97.5 163 c 128,-1,3
 61 246 61 246 61 358 c 0,4,5
 61 466 61 466 100.5 548.5 c 128,-1,6
 140 631 140 631 217 677.5 c 128,-1,7
 294 724 294 724 404 724 c 0,8,9
 517 724 517 724 601 682 c 1,10,-1
 565 606 l 1,11,12
 532 621 532 621 491.5 633 c 128,-1,13
 451 645 451 645 403 645 c 0,14,15
 288 645 288 645 222 568 c 128,-1,16
 156 491 156 491 156 357 c 0,17,18
 156 224 156 224 217.5 146.5 c 128,-1,19
 279 69 279 69 402 69 c 0,20,21
 449 69 449 69 491 77 c 128,-1,22
 533 85 533 85 573 97 c 1,23,-1
 573 19 l 1,24,25
 533 4 533 4 490.5 -3 c 128,-1,26
 448 -10 448 -10 389 -10 c 0,0,1
EndSplineSet
EndChar

StartChar: C.001
Encoding: 1122 -1 26
Width: 642
GlyphClass: 1
Flags: W
LayerCount: 2
Fore
SplineSet
379 -10 m 0,0,1
 270 -10 270 -10 197 35 c 128,-1,2
 124 80 124 80 87.5 163 c 128,-1,3
 51 246 51 246 51 358 c 0,4,5
 51 466 51 466 90.5 548.5 c 128,-1,6
 130 631 130 631 207 677.5 c 128,-1,7
 284 724 284 724 394 724 c 0,8,9
 507 724 507 724 591 682 c 1,10,-1
 555 606 l 1,11,12
 522 621 522 621 481.5 633 c 128,-1,13
 441 645 441 645 393 645 c 0,14,15
 278 645 278 645 212 568 c 128,-1,16
 146 491 146 491 146 357 c 0,17,18
 146 224 146 224 207.5 146.5 c 128,-1,19
 269 69 269 69 392 69 c 0,20,21
 439 69 439 69 481 77 c 128,-1,22
 523 85 523 85 563 97 c 1,23,-1
 563 19 l 1,24,25
 523 4 523 4 480.5 -3 c 128,-1,26
 438 -10 438 -10 379 -10 c 0,0,1
EndSplineSet
EndChar

StartChar: u1F152
Encoding: 909 127314 32
Width: 1000
GlyphClass: 1
Flags: W
LayerCount: 2
Fore
SplineSet
500 -55 m 0,0,1
 415 -55 415 -55 340 -23 c 128,-1,2
 265 9 265 9 208.5 65.5 c 128,-1,3
 152 122 152 122 120 197 c 128,-1,4
 88 272 88 272 88 357 c 256,5,6
 88 442 88 442 120 516.5 c 128,-1,7
 152 591 152 591 208.5 648 c 128,-1,8
 265 705 265 705 340 737 c 128,-1,9
 415 769 415 769 500 769 c 0,10,11
 586 769 586 769 660.5 737 c 128,-1,12
 735 705 735 705 791.5 648 c 128,-1,13
 848 591 848 591 880 516.5 c 128,-1,14
 912 442 912 442 912 357 c 256,15,16
 912 272 912 272 880 197 c 128,-1,17
 848 122 848 122 791.5 65.5 c 128,-1,18
 735 9 735 9 660.5 -23 c 128,-1,19
 586 -55 586 -55 500 -55 c 0,0,1
529 136 m 0,20,21
 561 136 561 136 587.5 140.5 c 128,-1,22
 614 145 614 145 636 152 c 1,23,-1
 636 208 l 1,24,25
 592 192 592 192 531 192 c 0,26,27
 384 192 384 192 384 359 c 0,28,29
 384 440 384 440 422 484 c 128,-1,30
 460 528 460 528 526 528 c 0,31,32
 583 528 583 528 628 506 c 1,33,-1
 653 557 l 1,34,35
 599 584 599 584 527 584 c 0,36,37
 427 584 427 584 369 524.5 c 128,-1,38
 311 465 311 465 311 360 c 0,39,40
 311 256 311 256 364 196 c 128,-1,41
 417 136 417 136 529 136 c 0,20,21
EndSplineSet
EndChar

StartChar: u1F132
Encoding: 877 127282 33
Width: 1000
GlyphClass: 1
Flags: W
LayerCount: 2
Fore
SplineSet
112 -31 m 1,0,-1
 112 745 l 1,1,-1
 888 745 l 1,2,-1
 888 -31 l 1,3,-1
 112 -31 l 1,0,-1
167 24 m 1,4,-1
 833 24 l 1,5,-1
 833 690 l 1,6,-1
 167 690 l 1,7,-1
 167 24 l 1,4,-1
529 136 m 0,8,9
 417 136 417 136 364 196 c 128,-1,10
 311 256 311 256 311 360 c 0,11,12
 311 465 311 465 369 524.5 c 128,-1,13
 427 584 427 584 527 584 c 0,14,15
 599 584 599 584 653 557 c 1,16,-1
 628 506 l 1,17,18
 583 528 583 528 526 528 c 0,19,20
 460 528 460 528 422 484 c 128,-1,21
 384 440 384 440 384 359 c 0,22,23
 384 192 384 192 531 192 c 0,24,25
 592 192 592 192 636 208 c 1,26,-1
 636 152 l 1,27,28
 614 145 614 145 587.5 140.5 c 128,-1,29
 561 136 561 136 529 136 c 0,8,9
EndSplineSet
EndChar

StartChar: uni24B8
Encoding: 585 9400 34
Width: 1000
GlyphClass: 1
Flags: W
LayerCount: 2
Fore
SplineSet
500 -55 m 0,0,1
 415 -55 415 -55 340 -23 c 128,-1,2
 265 9 265 9 208.5 65.5 c 128,-1,3
 152 122 152 122 120 197 c 128,-1,4
 88 272 88 272 88 357 c 0,5,6
 88 443 88 443 120 517.5 c 128,-1,7
 152 592 152 592 208.5 648.5 c 128,-1,8
 265 705 265 705 340 737 c 128,-1,9
 415 769 415 769 500 769 c 0,10,11
 586 769 586 769 660.5 737 c 128,-1,12
 735 705 735 705 791.5 648.5 c 128,-1,13
 848 592 848 592 880 517.5 c 128,-1,14
 912 443 912 443 912 357 c 0,15,16
 912 272 912 272 880 197 c 128,-1,17
 848 122 848 122 791.5 65.5 c 128,-1,18
 735 9 735 9 660.5 -23 c 128,-1,19
 586 -55 586 -55 500 -55 c 0,0,1
500 1 m 256,20,21
 574 1 574 1 638.5 28.5 c 128,-1,22
 703 56 703 56 752 105 c 128,-1,23
 801 154 801 154 828.5 218.5 c 128,-1,24
 856 283 856 283 856 357 c 256,25,26
 856 431 856 431 828.5 495.5 c 128,-1,27
 801 560 801 560 752 609 c 128,-1,28
 703 658 703 658 638.5 685.5 c 128,-1,29
 574 713 574 713 500 713 c 256,30,31
 426 713 426 713 361.5 685.5 c 128,-1,32
 297 658 297 658 248 609 c 128,-1,33
 199 560 199 560 171.5 495.5 c 128,-1,34
 144 431 144 431 144 357 c 256,35,36
 144 283 144 283 171.5 218.5 c 128,-1,37
 199 154 199 154 248 105 c 128,-1,38
 297 56 297 56 361.5 28.5 c 128,-1,39
 426 1 426 1 500 1 c 256,20,21
515 136 m 0,40,41
 403 136 403 136 350 196 c 128,-1,42
 297 256 297 256 297 360 c 0,43,44
 297 465 297 465 355.5 524.5 c 128,-1,45
 414 584 414 584 513 584 c 0,46,47
 585 584 585 584 639 557 c 1,48,-1
 614 506 l 1,49,50
 569 528 569 528 512 528 c 0,51,52
 446 528 446 528 408 484 c 128,-1,53
 370 440 370 440 370 359 c 0,54,55
 370 192 370 192 517 192 c 0,56,57
 580 192 580 192 622 208 c 1,58,-1
 622 152 l 1,59,60
 600 145 600 145 573.5 140.5 c 128,-1,61
 547 136 547 136 515 136 c 0,40,41
EndSplineSet
EndChar

StartChar: u1F112
Encoding: 845 127250 35
Width: 1000
GlyphClass: 1
Flags: W
LayerCount: 2
Fore
SplineSet
731 -57 m 1,0,1
 859 124 859 124 859 352 c 0,2,3
 859 464 859 464 826.5 571 c 128,-1,4
 794 678 794 678 731 767 c 1,5,-1
 789 767 l 1,6,7
 922 598 922 598 922 351 c 0,8,9
 922 106 922 106 789 -57 c 1,10,-1
 731 -57 l 1,0,1
211 -57 m 1,11,12
 78 106 78 106 78 351 c 0,13,14
 78 598 78 598 211 767 c 1,15,-1
 269 767 l 1,16,17
 206 678 206 678 173.5 571 c 128,-1,18
 141 464 141 464 141 352 c 0,19,20
 141 124 141 124 269 -57 c 1,21,-1
 211 -57 l 1,11,12
543 136 m 0,22,23
 431 136 431 136 378 196 c 128,-1,24
 325 256 325 256 325 360 c 0,25,26
 325 465 325 465 383.5 524.5 c 128,-1,27
 442 584 442 584 541 584 c 0,28,29
 613 584 613 584 667 557 c 1,30,-1
 642 506 l 1,31,32
 597 528 597 528 540 528 c 0,33,34
 474 528 474 528 436 484 c 128,-1,35
 398 440 398 440 398 359 c 0,36,37
 398 192 398 192 545 192 c 0,38,39
 575 192 575 192 601.5 196 c 128,-1,40
 628 200 628 200 650 208 c 1,41,-1
 650 152 l 1,42,43
 628 145 628 145 601.5 140.5 c 128,-1,44
 575 136 575 136 543 136 c 0,22,23
EndSplineSet
EndChar

StartChar: u1F172
Encoding: 938 127346 36
Width: 1000
GlyphClass: 1
Flags: W
LayerCount: 2
Fore
SplineSet
208 -31 m 2,0,1
 112 -31 112 -31 112 65 c 2,2,-1
 112 649 l 2,3,4
 112 745 112 745 208 745 c 2,5,-1
 792 745 l 2,6,7
 888 745 888 745 888 649 c 2,8,-1
 888 65 l 2,9,10
 888 -31 888 -31 792 -31 c 2,11,-1
 208 -31 l 2,0,1
529 136 m 0,12,13
 561 136 561 136 587.5 140.5 c 128,-1,14
 614 145 614 145 636 152 c 1,15,-1
 636 208 l 1,16,17
 592 192 592 192 531 192 c 0,18,19
 384 192 384 192 384 359 c 0,20,21
 384 440 384 440 422 484 c 128,-1,22
 460 528 460 528 526 528 c 0,23,24
 583 528 583 528 628 506 c 1,25,-1
 653 557 l 1,26,27
 599 584 599 584 527 584 c 0,28,29
 427 584 427 584 369 524.5 c 128,-1,30
 311 465 311 465 311 360 c 0,31,32
 311 256 311 256 364 196 c 128,-1,33
 417 136 417 136 529 136 c 0,12,13
EndSplineSet
EndChar

StartChar: D
Encoding: 38 68 38
Width: 730
GlyphClass: 2
Flags: W
LayerCount: 2
Fore
SplineSet
97 0 m 1,0,-1
 97 714 l 1,1,-1
 317 714 l 2,2,3
 425 714 425 714 504 674 c 128,-1,4
 583 634 583 634 626 556.5 c 128,-1,5
 669 479 669 479 669 364 c 0,6,7
 669 183 669 183 570.5 91.5 c 128,-1,8
 472 0 472 0 296 0 c 2,9,-1
 97 0 l 1,0,-1
187 77 m 1,10,-1
 284 77 l 2,11,12
 574 77 574 77 574 361 c 0,13,14
 574 504 574 504 503.5 570.5 c 128,-1,15
 433 637 433 637 304 637 c 2,16,-1
 187 637 l 1,17,-1
 187 77 l 1,10,-1
EndSplineSet
EndChar

StartChar: D.001
Encoding: 1128 -1 39
Width: 674
GlyphClass: 1
Flags: W
LayerCount: 2
Fore
SplineSet
51 0 m 1,0,-1
 51 714 l 1,1,-1
 271 714 l 2,2,3
 379 714 379 714 458 674 c 128,-1,4
 537 634 537 634 580 556.5 c 128,-1,5
 623 479 623 479 623 364 c 0,6,7
 623 183 623 183 524.5 91.5 c 128,-1,8
 426 0 426 0 250 0 c 2,9,-1
 51 0 l 1,0,-1
141 77 m 1,10,-1
 238 77 l 2,11,12
 528 77 528 77 528 361 c 0,13,14
 528 504 528 504 457.5 570.5 c 128,-1,15
 387 637 387 637 258 637 c 2,16,-1
 141 637 l 1,17,-1
 141 77 l 1,10,-1
EndSplineSet
EndChar

StartChar: u1F153
Encoding: 910 127315 45
Width: 1000
GlyphClass: 1
Flags: W
LayerCount: 2
Fore
SplineSet
500 -55 m 0,0,1
 415 -55 415 -55 340 -23 c 128,-1,2
 265 9 265 9 208.5 65.5 c 128,-1,3
 152 122 152 122 120 197 c 128,-1,4
 88 272 88 272 88 357 c 256,5,6
 88 442 88 442 120 516.5 c 128,-1,7
 152 591 152 591 208.5 648 c 128,-1,8
 265 705 265 705 340 737 c 128,-1,9
 415 769 415 769 500 769 c 0,10,11
 586 769 586 769 660.5 737 c 128,-1,12
 735 705 735 705 791.5 648 c 128,-1,13
 848 591 848 591 880 516.5 c 128,-1,14
 912 442 912 442 912 357 c 256,15,16
 912 272 912 272 880 197 c 128,-1,17
 848 122 848 122 791.5 65.5 c 128,-1,18
 735 9 735 9 660.5 -23 c 128,-1,19
 586 -55 586 -55 500 -55 c 0,0,1
350 145 m 1,20,-1
 479 145 l 2,21,22
 589 145 589 145 650 200.5 c 128,-1,23
 711 256 711 256 711 365 c 0,24,25
 711 469 711 469 651.5 521.5 c 128,-1,26
 592 574 592 574 491 574 c 2,27,-1
 350 574 l 1,28,-1
 350 145 l 1,20,-1
419 198 m 1,29,-1
 419 521 l 1,30,-1
 483 521 l 2,31,32
 640 521 640 521 640 363 c 0,33,34
 640 198 640 198 471 198 c 2,35,-1
 419 198 l 1,29,-1
EndSplineSet
EndChar

StartChar: u1F133
Encoding: 878 127283 46
Width: 1000
GlyphClass: 1
Flags: W
LayerCount: 2
Fore
SplineSet
112 -31 m 1,0,-1
 112 745 l 1,1,-1
 888 745 l 1,2,-1
 888 -31 l 1,3,-1
 112 -31 l 1,0,-1
167 24 m 1,4,-1
 833 24 l 1,5,-1
 833 690 l 1,6,-1
 167 690 l 1,7,-1
 167 24 l 1,4,-1
350 145 m 1,8,-1
 350 574 l 1,9,-1
 491 574 l 2,10,11
 592 574 592 574 651.5 521.5 c 128,-1,12
 711 469 711 469 711 365 c 0,13,14
 711 256 711 256 650 200.5 c 128,-1,15
 589 145 589 145 479 145 c 2,16,-1
 350 145 l 1,8,-1
419 198 m 1,17,-1
 471 198 l 2,18,19
 640 198 640 198 640 363 c 0,20,21
 640 521 640 521 483 521 c 2,22,-1
 419 521 l 1,23,-1
 419 198 l 1,17,-1
EndSplineSet
EndChar

StartChar: uni24B9
Encoding: 586 9401 47
Width: 1000
GlyphClass: 1
Flags: W
LayerCount: 2
Fore
SplineSet
500 -55 m 0,0,1
 415 -55 415 -55 340 -23 c 128,-1,2
 265 9 265 9 208.5 65.5 c 128,-1,3
 152 122 152 122 120 197 c 128,-1,4
 88 272 88 272 88 357 c 0,5,6
 88 443 88 443 120 517.5 c 128,-1,7
 152 592 152 592 208.5 648.5 c 128,-1,8
 265 705 265 705 340 737 c 128,-1,9
 415 769 415 769 500 769 c 0,10,11
 586 769 586 769 660.5 737 c 128,-1,12
 735 705 735 705 791.5 648.5 c 128,-1,13
 848 592 848 592 880 517.5 c 128,-1,14
 912 443 912 443 912 357 c 0,15,16
 912 272 912 272 880 197 c 128,-1,17
 848 122 848 122 791.5 65.5 c 128,-1,18
 735 9 735 9 660.5 -23 c 128,-1,19
 586 -55 586 -55 500 -55 c 0,0,1
500 1 m 256,20,21
 574 1 574 1 638.5 28.5 c 128,-1,22
 703 56 703 56 752 105 c 128,-1,23
 801 154 801 154 828.5 218.5 c 128,-1,24
 856 283 856 283 856 357 c 256,25,26
 856 431 856 431 828.5 495.5 c 128,-1,27
 801 560 801 560 752 609 c 128,-1,28
 703 658 703 658 638.5 685.5 c 128,-1,29
 574 713 574 713 500 713 c 256,30,31
 426 713 426 713 361.5 685.5 c 128,-1,32
 297 658 297 658 248 609 c 128,-1,33
 199 560 199 560 171.5 495.5 c 128,-1,34
 144 431 144 431 144 357 c 256,35,36
 144 283 144 283 171.5 218.5 c 128,-1,37
 199 154 199 154 248 105 c 128,-1,38
 297 56 297 56 361.5 28.5 c 128,-1,39
 426 1 426 1 500 1 c 256,20,21
350 145 m 1,40,-1
 350 574 l 1,41,-1
 491 574 l 2,42,43
 592 574 592 574 651.5 521.5 c 128,-1,44
 711 469 711 469 711 365 c 0,45,46
 711 256 711 256 650 200.5 c 128,-1,47
 589 145 589 145 479 145 c 2,48,-1
 350 145 l 1,40,-1
419 198 m 1,49,-1
 471 198 l 2,50,51
 640 198 640 198 640 363 c 0,52,53
 640 521 640 521 483 521 c 2,54,-1
 419 521 l 1,55,-1
 419 198 l 1,49,-1
EndSplineSet
EndChar

StartChar: u1F113
Encoding: 846 127251 48
Width: 1000
GlyphClass: 1
Flags: W
LayerCount: 2
Fore
SplineSet
731 -57 m 1,0,1
 859 124 859 124 859 352 c 0,2,3
 859 464 859 464 826.5 571 c 128,-1,4
 794 678 794 678 731 767 c 1,5,-1
 789 767 l 1,6,7
 922 598 922 598 922 351 c 0,8,9
 922 106 922 106 789 -57 c 1,10,-1
 731 -57 l 1,0,1
211 -57 m 1,11,12
 78 106 78 106 78 351 c 0,13,14
 78 598 78 598 211 767 c 1,15,-1
 269 767 l 1,16,17
 206 678 206 678 173.5 571 c 128,-1,18
 141 464 141 464 141 352 c 0,19,20
 141 124 141 124 269 -57 c 1,21,-1
 211 -57 l 1,11,12
347 145 m 1,22,-1
 347 574 l 1,23,-1
 488 574 l 2,24,25
 590 574 590 574 649 521.5 c 128,-1,26
 708 469 708 469 708 365 c 0,27,28
 708 256 708 256 647 200.5 c 128,-1,29
 586 145 586 145 476 145 c 2,30,-1
 347 145 l 1,22,-1
416 198 m 1,31,-1
 468 198 l 2,32,33
 637 198 637 198 637 363 c 0,34,35
 637 521 637 521 480 521 c 2,36,-1
 416 521 l 1,37,-1
 416 198 l 1,31,-1
EndSplineSet
EndChar

StartChar: u1F173
Encoding: 939 127347 49
Width: 1000
GlyphClass: 1
Flags: W
LayerCount: 2
Fore
SplineSet
208 -31 m 2,0,1
 112 -31 112 -31 112 65 c 2,2,-1
 112 649 l 2,3,4
 112 745 112 745 208 745 c 2,5,-1
 792 745 l 2,6,7
 888 745 888 745 888 649 c 2,8,-1
 888 65 l 2,9,10
 888 -31 888 -31 792 -31 c 2,11,-1
 208 -31 l 2,0,1
350 145 m 1,12,-1
 479 145 l 2,13,14
 589 145 589 145 650 200.5 c 128,-1,15
 711 256 711 256 711 365 c 0,16,17
 711 469 711 469 651.5 521.5 c 128,-1,18
 592 574 592 574 491 574 c 2,19,-1
 350 574 l 1,20,-1
 350 145 l 1,12,-1
419 198 m 1,21,-1
 419 521 l 1,22,-1
 483 521 l 2,23,24
 640 521 640 521 640 363 c 0,25,26
 640 198 640 198 471 198 c 2,27,-1
 419 198 l 1,21,-1
EndSplineSet
EndChar

StartChar: E
Encoding: 39 69 50
Width: 556
GlyphClass: 2
Flags: W
LayerCount: 2
Fore
SplineSet
97 0 m 1,0,-1
 97 714 l 1,1,-1
 496 714 l 1,2,-1
 496 635 l 1,3,-1
 187 635 l 1,4,-1
 187 412 l 1,5,-1
 478 412 l 1,6,-1
 478 334 l 1,7,-1
 187 334 l 1,8,-1
 187 79 l 1,9,-1
 496 79 l 1,10,-1
 496 0 l 1,11,-1
 97 0 l 1,0,-1
EndSplineSet
EndChar

StartChar: E.001
Encoding: 1134 -1 51
Width: 501
GlyphClass: 1
Flags: W
LayerCount: 2
Fore
SplineSet
51 0 m 1,0,-1
 51 714 l 1,1,-1
 450 714 l 1,2,-1
 450 635 l 1,3,-1
 141 635 l 1,4,-1
 141 412 l 1,5,-1
 432 412 l 1,6,-1
 432 334 l 1,7,-1
 141 334 l 1,8,-1
 141 79 l 1,9,-1
 450 79 l 1,10,-1
 450 0 l 1,11,-1
 51 0 l 1,0,-1
EndSplineSet
EndChar

StartChar: u1F154
Encoding: 911 127316 57
Width: 1000
GlyphClass: 1
Flags: W
LayerCount: 2
Fore
SplineSet
500 -55 m 0,0,1
 415 -55 415 -55 340 -23 c 128,-1,2
 265 9 265 9 208.5 65.5 c 128,-1,3
 152 122 152 122 120 197 c 128,-1,4
 88 272 88 272 88 357 c 256,5,6
 88 442 88 442 120 516.5 c 128,-1,7
 152 591 152 591 208.5 648 c 128,-1,8
 265 705 265 705 340 737 c 128,-1,9
 415 769 415 769 500 769 c 0,10,11
 586 769 586 769 660.5 737 c 128,-1,12
 735 705 735 705 791.5 648 c 128,-1,13
 848 591 848 591 880 516.5 c 128,-1,14
 912 442 912 442 912 357 c 256,15,16
 912 272 912 272 880 197 c 128,-1,17
 848 122 848 122 791.5 65.5 c 128,-1,18
 735 9 735 9 660.5 -23 c 128,-1,19
 586 -55 586 -55 500 -55 c 0,0,1
378 145 m 1,20,-1
 632 145 l 1,21,-1
 632 200 l 1,22,-1
 447 200 l 1,23,-1
 447 343 l 1,24,-1
 622 343 l 1,25,-1
 622 396 l 1,26,-1
 447 396 l 1,27,-1
 447 519 l 1,28,-1
 632 519 l 1,29,-1
 632 574 l 1,30,-1
 378 574 l 1,31,-1
 378 145 l 1,20,-1
EndSplineSet
EndChar

StartChar: u1F134
Encoding: 879 127284 58
Width: 1000
GlyphClass: 1
Flags: W
LayerCount: 2
Fore
SplineSet
112 -31 m 1,0,-1
 112 745 l 1,1,-1
 888 745 l 1,2,-1
 888 -31 l 1,3,-1
 112 -31 l 1,0,-1
167 24 m 1,4,-1
 833 24 l 1,5,-1
 833 690 l 1,6,-1
 167 690 l 1,7,-1
 167 24 l 1,4,-1
378 145 m 1,8,-1
 378 574 l 1,9,-1
 632 574 l 1,10,-1
 632 519 l 1,11,-1
 447 519 l 1,12,-1
 447 396 l 1,13,-1
 622 396 l 1,14,-1
 622 343 l 1,15,-1
 447 343 l 1,16,-1
 447 200 l 1,17,-1
 632 200 l 1,18,-1
 632 145 l 1,19,-1
 378 145 l 1,8,-1
EndSplineSet
EndChar

StartChar: uni24BA
Encoding: 587 9402 59
Width: 1000
GlyphClass: 1
Flags: W
LayerCount: 2
Fore
SplineSet
500 -55 m 0,0,1
 415 -55 415 -55 340 -23 c 128,-1,2
 265 9 265 9 208.5 65.5 c 128,-1,3
 152 122 152 122 120 197 c 128,-1,4
 88 272 88 272 88 357 c 0,5,6
 88 443 88 443 120 517.5 c 128,-1,7
 152 592 152 592 208.5 648.5 c 128,-1,8
 265 705 265 705 340 737 c 128,-1,9
 415 769 415 769 500 769 c 0,10,11
 586 769 586 769 660.5 737 c 128,-1,12
 735 705 735 705 791.5 648.5 c 128,-1,13
 848 592 848 592 880 517.5 c 128,-1,14
 912 443 912 443 912 357 c 0,15,16
 912 272 912 272 880 197 c 128,-1,17
 848 122 848 122 791.5 65.5 c 128,-1,18
 735 9 735 9 660.5 -23 c 128,-1,19
 586 -55 586 -55 500 -55 c 0,0,1
500 1 m 256,20,21
 574 1 574 1 638.5 28.5 c 128,-1,22
 703 56 703 56 752 105 c 128,-1,23
 801 154 801 154 828.5 218.5 c 128,-1,24
 856 283 856 283 856 357 c 256,25,26
 856 431 856 431 828.5 495.5 c 128,-1,27
 801 560 801 560 752 609 c 128,-1,28
 703 658 703 658 638.5 685.5 c 128,-1,29
 574 713 574 713 500 713 c 256,30,31
 426 713 426 713 361.5 685.5 c 128,-1,32
 297 658 297 658 248 609 c 128,-1,33
 199 560 199 560 171.5 495.5 c 128,-1,34
 144 431 144 431 144 357 c 256,35,36
 144 283 144 283 171.5 218.5 c 128,-1,37
 199 154 199 154 248 105 c 128,-1,38
 297 56 297 56 361.5 28.5 c 128,-1,39
 426 1 426 1 500 1 c 256,20,21
378 145 m 1,40,-1
 378 574 l 1,41,-1
 632 574 l 1,42,-1
 632 519 l 1,43,-1
 447 519 l 1,44,-1
 447 396 l 1,45,-1
 622 396 l 1,46,-1
 622 343 l 1,47,-1
 447 343 l 1,48,-1
 447 200 l 1,49,-1
 632 200 l 1,50,-1
 632 145 l 1,51,-1
 378 145 l 1,40,-1
EndSplineSet
EndChar

StartChar: u1F114
Encoding: 847 127252 60
Width: 1000
GlyphClass: 1
Flags: W
LayerCount: 2
Fore
SplineSet
731 -57 m 1,0,1
 859 124 859 124 859 352 c 0,2,3
 859 464 859 464 826.5 571 c 128,-1,4
 794 678 794 678 731 767 c 1,5,-1
 789 767 l 1,6,7
 922 598 922 598 922 351 c 0,8,9
 922 106 922 106 789 -57 c 1,10,-1
 731 -57 l 1,0,1
211 -57 m 1,11,12
 78 106 78 106 78 351 c 0,13,14
 78 598 78 598 211 767 c 1,15,-1
 269 767 l 1,16,17
 206 678 206 678 173.5 571 c 128,-1,18
 141 464 141 464 141 352 c 0,19,20
 141 124 141 124 269 -57 c 1,21,-1
 211 -57 l 1,11,12
378 145 m 1,22,-1
 378 574 l 1,23,-1
 632 574 l 1,24,-1
 632 519 l 1,25,-1
 447 519 l 1,26,-1
 447 396 l 1,27,-1
 622 396 l 1,28,-1
 622 343 l 1,29,-1
 447 343 l 1,30,-1
 447 200 l 1,31,-1
 632 200 l 1,32,-1
 632 145 l 1,33,-1
 378 145 l 1,22,-1
EndSplineSet
EndChar

StartChar: u1F174
Encoding: 940 127348 61
Width: 1000
GlyphClass: 1
Flags: W
LayerCount: 2
Fore
SplineSet
208 -31 m 2,0,1
 112 -31 112 -31 112 65 c 2,2,-1
 112 649 l 2,3,4
 112 745 112 745 208 745 c 2,5,-1
 792 745 l 2,6,7
 888 745 888 745 888 649 c 2,8,-1
 888 65 l 2,9,10
 888 -31 888 -31 792 -31 c 2,11,-1
 208 -31 l 2,0,1
378 145 m 1,12,-1
 632 145 l 1,13,-1
 632 200 l 1,14,-1
 447 200 l 1,15,-1
 447 343 l 1,16,-1
 622 343 l 1,17,-1
 622 396 l 1,18,-1
 447 396 l 1,19,-1
 447 519 l 1,20,-1
 632 519 l 1,21,-1
 632 574 l 1,22,-1
 378 574 l 1,23,-1
 378 145 l 1,12,-1
EndSplineSet
EndChar

StartChar: uni2167
Encoding: 348 8551 62
Width: 1617
GlyphClass: 1
Flags: W
LayerCount: 2
Fore
SplineSet
255 0 m 1,0,-1
 0 714 l 1,1,-1
 94 714 l 1,2,-1
 255 256 l 2,3,4
 271 212 271 212 282 173.5 c 128,-1,5
 293 135 293 135 300 100 c 1,6,7
 307 135 307 135 318 174 c 128,-1,8
 329 213 329 213 345 258 c 2,9,-1
 505 714 l 1,10,-1
 600 714 l 1,11,-1
 345 0 l 1,12,-1
 255 0 l 1,0,-1
640 0 m 1,13,-1
 640 52 l 1,14,-1
 724 71 l 1,15,-1
 724 642 l 1,16,-1
 640 662 l 1,17,-1
 640 714 l 1,18,-1
 898 714 l 1,19,-1
 898 662 l 1,20,-1
 814 642 l 1,21,-1
 814 71 l 1,22,-1
 898 52 l 1,23,-1
 898 0 l 1,24,-1
 640 0 l 1,13,-1
979 0 m 1,25,-1
 979 52 l 1,26,-1
 1063 71 l 1,27,-1
 1063 642 l 1,28,-1
 979 662 l 1,29,-1
 979 714 l 1,30,-1
 1237 714 l 1,31,-1
 1237 662 l 1,32,-1
 1153 642 l 1,33,-1
 1153 71 l 1,34,-1
 1237 52 l 1,35,-1
 1237 0 l 1,36,-1
 979 0 l 1,25,-1
1318 0 m 1,37,-1
 1318 52 l 1,38,-1
 1402 71 l 1,39,-1
 1402 642 l 1,40,-1
 1318 662 l 1,41,-1
 1318 714 l 1,42,-1
 1576 714 l 1,43,-1
 1576 662 l 1,44,-1
 1492 642 l 1,45,-1
 1492 71 l 1,46,-1
 1576 52 l 1,47,-1
 1576 0 l 1,48,-1
 1318 0 l 1,37,-1
EndSplineSet
EndChar

StartChar: uni216A
Encoding: 351 8554 63
Width: 925
GlyphClass: 1
Flags: W
LayerCount: 2
Fore
SplineSet
4 0 m 1,0,-1
 241 372 l 1,1,-1
 19 714 l 1,2,-1
 119 714 l 1,3,-1
 294 434 l 1,4,-1
 470 714 l 1,5,-1
 565 714 l 1,6,-1
 344 374 l 1,7,-1
 582 0 l 1,8,-1
 480 0 l 1,9,-1
 291 310 l 1,10,-1
 99 0 l 1,11,-1
 4 0 l 1,0,-1
626 0 m 1,12,-1
 626 52 l 1,13,-1
 710 71 l 1,14,-1
 710 642 l 1,15,-1
 626 662 l 1,16,-1
 626 714 l 1,17,-1
 884 714 l 1,18,-1
 884 662 l 1,19,-1
 800 642 l 1,20,-1
 800 71 l 1,21,-1
 884 52 l 1,22,-1
 884 0 l 1,23,-1
 626 0 l 1,12,-1
EndSplineSet
EndChar

StartChar: F
Encoding: 40 70 64
Width: 519
GlyphClass: 2
Flags: W
LayerCount: 2
Fore
SplineSet
97 0 m 1,0,-1
 97 714 l 1,1,-1
 496 714 l 1,2,-1
 496 635 l 1,3,-1
 187 635 l 1,4,-1
 187 382 l 1,5,-1
 477 382 l 1,6,-1
 477 303 l 1,7,-1
 187 303 l 1,8,-1
 187 0 l 1,9,-1
 97 0 l 1,0,-1
EndSplineSet
EndChar

StartChar: F.001
Encoding: 1140 -1 65
Width: 501
GlyphClass: 1
Flags: W
LayerCount: 2
Fore
SplineSet
51 0 m 1,0,-1
 51 714 l 1,1,-1
 450 714 l 1,2,-1
 450 635 l 1,3,-1
 141 635 l 1,4,-1
 141 382 l 1,5,-1
 431 382 l 1,6,-1
 431 303 l 1,7,-1
 141 303 l 1,8,-1
 141 0 l 1,9,-1
 51 0 l 1,0,-1
EndSplineSet
EndChar

StartChar: u1F155
Encoding: 912 127317 71
Width: 1000
GlyphClass: 1
Flags: W
LayerCount: 2
Fore
SplineSet
500 -55 m 0,0,1
 415 -55 415 -55 340 -23 c 128,-1,2
 265 9 265 9 208.5 65.5 c 128,-1,3
 152 122 152 122 120 197 c 128,-1,4
 88 272 88 272 88 357 c 256,5,6
 88 442 88 442 120 516.5 c 128,-1,7
 152 591 152 591 208.5 648 c 128,-1,8
 265 705 265 705 340 737 c 128,-1,9
 415 769 415 769 500 769 c 0,10,11
 586 769 586 769 660.5 737 c 128,-1,12
 735 705 735 705 791.5 648 c 128,-1,13
 848 591 848 591 880 516.5 c 128,-1,14
 912 442 912 442 912 357 c 256,15,16
 912 272 912 272 880 197 c 128,-1,17
 848 122 848 122 791.5 65.5 c 128,-1,18
 735 9 735 9 660.5 -23 c 128,-1,19
 586 -55 586 -55 500 -55 c 0,0,1
387 145 m 1,20,-1
 456 145 l 1,21,-1
 456 331 l 1,22,-1
 632 331 l 1,23,-1
 632 384 l 1,24,-1
 456 384 l 1,25,-1
 456 519 l 1,26,-1
 651 519 l 1,27,-1
 651 574 l 1,28,-1
 387 574 l 1,29,-1
 387 145 l 1,20,-1
EndSplineSet
EndChar

StartChar: u1F135
Encoding: 880 127285 72
Width: 1000
GlyphClass: 1
Flags: W
LayerCount: 2
Fore
SplineSet
112 -31 m 1,0,-1
 112 745 l 1,1,-1
 888 745 l 1,2,-1
 888 -31 l 1,3,-1
 112 -31 l 1,0,-1
167 24 m 1,4,-1
 833 24 l 1,5,-1
 833 690 l 1,6,-1
 167 690 l 1,7,-1
 167 24 l 1,4,-1
387 145 m 1,8,-1
 387 574 l 1,9,-1
 651 574 l 1,10,-1
 651 519 l 1,11,-1
 456 519 l 1,12,-1
 456 384 l 1,13,-1
 632 384 l 1,14,-1
 632 331 l 1,15,-1
 456 331 l 1,16,-1
 456 145 l 1,17,-1
 387 145 l 1,8,-1
EndSplineSet
EndChar

StartChar: uni24BB
Encoding: 588 9403 73
Width: 1000
GlyphClass: 1
Flags: W
LayerCount: 2
Fore
SplineSet
500 -55 m 0,0,1
 415 -55 415 -55 340 -23 c 128,-1,2
 265 9 265 9 208.5 65.5 c 128,-1,3
 152 122 152 122 120 197 c 128,-1,4
 88 272 88 272 88 357 c 0,5,6
 88 443 88 443 120 517.5 c 128,-1,7
 152 592 152 592 208.5 648.5 c 128,-1,8
 265 705 265 705 340 737 c 128,-1,9
 415 769 415 769 500 769 c 0,10,11
 586 769 586 769 660.5 737 c 128,-1,12
 735 705 735 705 791.5 648.5 c 128,-1,13
 848 592 848 592 880 517.5 c 128,-1,14
 912 443 912 443 912 357 c 0,15,16
 912 272 912 272 880 197 c 128,-1,17
 848 122 848 122 791.5 65.5 c 128,-1,18
 735 9 735 9 660.5 -23 c 128,-1,19
 586 -55 586 -55 500 -55 c 0,0,1
500 1 m 256,20,21
 574 1 574 1 638.5 28.5 c 128,-1,22
 703 56 703 56 752 105 c 128,-1,23
 801 154 801 154 828.5 218.5 c 128,-1,24
 856 283 856 283 856 357 c 256,25,26
 856 431 856 431 828.5 495.5 c 128,-1,27
 801 560 801 560 752 609 c 128,-1,28
 703 658 703 658 638.5 685.5 c 128,-1,29
 574 713 574 713 500 713 c 256,30,31
 426 713 426 713 361.5 685.5 c 128,-1,32
 297 658 297 658 248 609 c 128,-1,33
 199 560 199 560 171.5 495.5 c 128,-1,34
 144 431 144 431 144 357 c 256,35,36
 144 283 144 283 171.5 218.5 c 128,-1,37
 199 154 199 154 248 105 c 128,-1,38
 297 56 297 56 361.5 28.5 c 128,-1,39
 426 1 426 1 500 1 c 256,20,21
387 145 m 1,40,-1
 387 574 l 1,41,-1
 651 574 l 1,42,-1
 651 519 l 1,43,-1
 456 519 l 1,44,-1
 456 384 l 1,45,-1
 632 384 l 1,46,-1
 632 331 l 1,47,-1
 456 331 l 1,48,-1
 456 145 l 1,49,-1
 387 145 l 1,40,-1
EndSplineSet
EndChar

StartChar: u1F115
Encoding: 848 127253 74
Width: 1000
GlyphClass: 1
Flags: W
LayerCount: 2
Fore
SplineSet
731 -57 m 1,0,1
 859 124 859 124 859 352 c 0,2,3
 859 464 859 464 826.5 571 c 128,-1,4
 794 678 794 678 731 767 c 1,5,-1
 789 767 l 1,6,7
 922 598 922 598 922 351 c 0,8,9
 922 106 922 106 789 -57 c 1,10,-1
 731 -57 l 1,0,1
211 -57 m 1,11,12
 78 106 78 106 78 351 c 0,13,14
 78 598 78 598 211 767 c 1,15,-1
 269 767 l 1,16,17
 206 678 206 678 173.5 571 c 128,-1,18
 141 464 141 464 141 352 c 0,19,20
 141 124 141 124 269 -57 c 1,21,-1
 211 -57 l 1,11,12
395 145 m 1,22,-1
 395 574 l 1,23,-1
 659 574 l 1,24,-1
 659 519 l 1,25,-1
 464 519 l 1,26,-1
 464 384 l 1,27,-1
 640 384 l 1,28,-1
 640 331 l 1,29,-1
 464 331 l 1,30,-1
 464 145 l 1,31,-1
 395 145 l 1,22,-1
EndSplineSet
EndChar

StartChar: u1F175
Encoding: 941 127349 75
Width: 1000
GlyphClass: 1
Flags: W
LayerCount: 2
Fore
SplineSet
208 -31 m 2,0,1
 112 -31 112 -31 112 65 c 2,2,-1
 112 649 l 2,3,4
 112 745 112 745 208 745 c 2,5,-1
 792 745 l 2,6,7
 888 745 888 745 888 649 c 2,8,-1
 888 65 l 2,9,10
 888 -31 888 -31 792 -31 c 2,11,-1
 208 -31 l 2,0,1
387 145 m 1,12,-1
 456 145 l 1,13,-1
 456 331 l 1,14,-1
 632 331 l 1,15,-1
 632 384 l 1,16,-1
 456 384 l 1,17,-1
 456 519 l 1,18,-1
 651 519 l 1,19,-1
 651 574 l 1,20,-1
 387 574 l 1,21,-1
 387 145 l 1,12,-1
EndSplineSet
EndChar

StartChar: uni216C
Encoding: 353 8556 76
Width: 524
GlyphClass: 1
Flags: W
LayerCount: 2
Fore
SplineSet
97 0 m 1,0,-1
 97 714 l 1,1,-1
 187 714 l 1,2,-1
 187 80 l 1,3,-1
 499 80 l 1,4,-1
 499 0 l 1,5,-1
 97 0 l 1,0,-1
EndSplineSet
EndChar

StartChar: uni2164
Encoding: 345 8548 77
Width: 600
GlyphClass: 1
Flags: W
LayerCount: 2
Fore
SplineSet
255 0 m 1,0,-1
 0 714 l 1,1,-1
 94 714 l 1,2,-1
 255 256 l 2,3,4
 271 212 271 212 282 173.5 c 128,-1,5
 293 135 293 135 300 100 c 1,6,7
 307 135 307 135 318 174 c 128,-1,8
 329 213 329 213 345 258 c 2,9,-1
 505 714 l 1,10,-1
 600 714 l 1,11,-1
 345 0 l 1,12,-1
 255 0 l 1,0,-1
EndSplineSet
EndChar

StartChar: uni216E
Encoding: 355 8558 78
Width: 730
GlyphClass: 1
Flags: W
LayerCount: 2
Fore
SplineSet
97 0 m 1,0,-1
 97 714 l 1,1,-1
 317 714 l 2,2,3
 425 714 425 714 504 674 c 128,-1,4
 583 634 583 634 626 556.5 c 128,-1,5
 669 479 669 479 669 364 c 0,6,7
 669 183 669 183 570.5 91.5 c 128,-1,8
 472 0 472 0 296 0 c 2,9,-1
 97 0 l 1,0,-1
187 77 m 1,10,-1
 284 77 l 2,11,12
 574 77 574 77 574 361 c 0,13,14
 574 504 574 504 503.5 570.5 c 128,-1,15
 433 637 433 637 304 637 c 2,16,-1
 187 637 l 1,17,-1
 187 77 l 1,10,-1
EndSplineSet
EndChar

StartChar: uni2181
Encoding: 374 8577 79
Width: 707
GlyphClass: 1
Flags: W
LayerCount: 2
Fore
SplineSet
77 0 m 1,0,-1
 77 720 l 1,1,-1
 305 720 l 2,2,3
 413 720 413 720 492.5 680 c 128,-1,4
 572 640 572 640 615.5 561.5 c 128,-1,5
 659 483 659 483 659 367 c 0,6,7
 659 186 659 186 560 93 c 128,-1,8
 461 0 461 0 284 0 c 2,9,-1
 77 0 l 1,0,-1
175 87 m 1,10,-1
 276 87 l 2,11,12
 558 87 558 87 558 364 c 0,13,14
 558 503 558 503 489 568 c 128,-1,15
 420 633 420 633 295 633 c 2,16,-1
 175 633 l 1,17,-1
 175 565 l 1,18,-1
 255 565 l 2,19,20
 349 565 349 565 404.5 514 c 128,-1,21
 460 463 460 463 460 364 c 0,22,23
 460 261 460 261 403 208 c 128,-1,24
 346 155 346 155 243 155 c 2,25,-1
 175 155 l 1,26,-1
 175 87 l 1,10,-1
175 205 m 1,27,-1
 224 205 l 2,28,29
 387 205 387 205 387 363 c 0,30,31
 387 442 387 442 347.5 479 c 128,-1,32
 308 516 308 516 234 516 c 2,33,-1
 175 516 l 1,34,-1
 175 205 l 1,27,-1
EndSplineSet
EndChar

StartChar: uni2163
Encoding: 344 8547 80
Width: 939
GlyphClass: 1
Flags: W
LayerCount: 2
Fore
SplineSet
594 0 m 1,0,-1
 339 714 l 1,1,-1
 433 714 l 1,2,-1
 594 256 l 2,3,4
 610 212 610 212 621 173.5 c 128,-1,5
 632 135 632 135 639 100 c 1,6,7
 646 135 646 135 657 174 c 128,-1,8
 668 213 668 213 684 258 c 2,9,-1
 844 714 l 1,10,-1
 939 714 l 1,11,-1
 684 0 l 1,12,-1
 594 0 l 1,0,-1
40 0 m 1,13,-1
 40 52 l 1,14,-1
 124 71 l 1,15,-1
 124 642 l 1,16,-1
 40 662 l 1,17,-1
 40 714 l 1,18,-1
 298 714 l 1,19,-1
 298 662 l 1,20,-1
 214 642 l 1,21,-1
 214 71 l 1,22,-1
 298 52 l 1,23,-1
 298 0 l 1,24,-1
 40 0 l 1,13,-1
EndSplineSet
EndChar

StartChar: G
Encoding: 41 71 81
Width: 728
GlyphClass: 2
Flags: W
LayerCount: 2
Fore
SplineSet
403 -10 m 0,0,1
 292 -10 292 -10 216 34.5 c 128,-1,2
 140 79 140 79 100.5 161.5 c 128,-1,3
 61 244 61 244 61 357 c 0,4,5
 61 469 61 469 105 551 c 128,-1,6
 149 633 149 633 231.5 678.5 c 128,-1,7
 314 724 314 724 431 724 c 0,8,9
 491 724 491 724 544.5 713 c 128,-1,10
 598 702 598 702 644 682 c 1,11,-1
 610 604 l 1,12,13
 572 621 572 621 524.5 633 c 128,-1,14
 477 645 477 645 426 645 c 0,15,16
 298 645 298 645 226.5 568 c 128,-1,17
 155 491 155 491 155 357 c 0,18,19
 155 272 155 272 182.5 206.5 c 128,-1,20
 210 141 210 141 269 104.5 c 128,-1,21
 328 68 328 68 424 68 c 0,22,23
 471 68 471 68 504 73 c 128,-1,24
 537 78 537 78 564 85 c 1,25,-1
 564 297 l 1,26,-1
 407 297 l 1,27,-1
 407 377 l 1,28,-1
 654 377 l 1,29,-1
 654 27 l 1,30,31
 596 8 596 8 537 -1 c 128,-1,32
 478 -10 478 -10 403 -10 c 0,0,1
EndSplineSet
EndChar

StartChar: G.001
Encoding: 1146 -1 82
Width: 695
GlyphClass: 1
Flags: W
LayerCount: 2
Fore
SplineSet
393 -10 m 0,0,1
 282 -10 282 -10 206 34.5 c 128,-1,2
 130 79 130 79 90.5 161.5 c 128,-1,3
 51 244 51 244 51 357 c 0,4,5
 51 469 51 469 95 551 c 128,-1,6
 139 633 139 633 221.5 678.5 c 128,-1,7
 304 724 304 724 421 724 c 0,8,9
 481 724 481 724 534.5 713 c 128,-1,10
 588 702 588 702 634 682 c 1,11,-1
 600 604 l 1,12,13
 562 621 562 621 514.5 633 c 128,-1,14
 467 645 467 645 416 645 c 0,15,16
 288 645 288 645 216.5 568 c 128,-1,17
 145 491 145 491 145 357 c 0,18,19
 145 272 145 272 172.5 206.5 c 128,-1,20
 200 141 200 141 259 104.5 c 128,-1,21
 318 68 318 68 414 68 c 0,22,23
 461 68 461 68 494 73 c 128,-1,24
 527 78 527 78 554 85 c 1,25,-1
 554 297 l 1,26,-1
 397 297 l 1,27,-1
 397 377 l 1,28,-1
 644 377 l 1,29,-1
 644 27 l 1,30,31
 586 8 586 8 527 -1 c 128,-1,32
 468 -10 468 -10 393 -10 c 0,0,1
EndSplineSet
EndChar

StartChar: u1F156
Encoding: 913 127318 88
Width: 1000
GlyphClass: 1
Flags: W
LayerCount: 2
Fore
SplineSet
500 -55 m 0,0,1
 415 -55 415 -55 340 -23 c 128,-1,2
 265 9 265 9 208.5 65.5 c 128,-1,3
 152 122 152 122 120 197 c 128,-1,4
 88 272 88 272 88 357 c 256,5,6
 88 442 88 442 120 516.5 c 128,-1,7
 152 591 152 591 208.5 648 c 128,-1,8
 265 705 265 705 340 737 c 128,-1,9
 415 769 415 769 500 769 c 0,10,11
 586 769 586 769 660.5 737 c 128,-1,12
 735 705 735 705 791.5 648 c 128,-1,13
 848 591 848 591 880 516.5 c 128,-1,14
 912 442 912 442 912 357 c 256,15,16
 912 272 912 272 880 197 c 128,-1,17
 848 122 848 122 791.5 65.5 c 128,-1,18
 735 9 735 9 660.5 -23 c 128,-1,19
 586 -55 586 -55 500 -55 c 0,0,1
519 136 m 0,20,21
 593 136 593 136 671 159 c 1,22,-1
 671 377 l 1,23,-1
 504 377 l 1,24,-1
 504 321 l 1,25,-1
 602 321 l 1,26,-1
 602 198 l 1,27,28
 586 194 586 194 566 192 c 128,-1,29
 546 190 546 190 521 190 c 0,30,31
 362 190 362 190 362 362 c 0,32,33
 362 440 362 440 403.5 485.5 c 128,-1,34
 445 531 445 531 523 531 c 0,35,36
 578 531 578 531 641 504 c 1,37,-1
 665 559 l 1,38,39
 601 585 601 585 525 585 c 0,40,41
 413 585 413 585 351 525 c 128,-1,42
 289 465 289 465 289 362 c 0,43,44
 289 257 289 257 346.5 196.5 c 128,-1,45
 404 136 404 136 519 136 c 0,20,21
EndSplineSet
EndChar

StartChar: u1F136
Encoding: 881 127286 89
Width: 1000
GlyphClass: 1
Flags: W
LayerCount: 2
Fore
SplineSet
112 -31 m 1,0,-1
 112 745 l 1,1,-1
 888 745 l 1,2,-1
 888 -31 l 1,3,-1
 112 -31 l 1,0,-1
167 24 m 1,4,-1
 833 24 l 1,5,-1
 833 690 l 1,6,-1
 167 690 l 1,7,-1
 167 24 l 1,4,-1
519 136 m 0,8,9
 404 136 404 136 346.5 196.5 c 128,-1,10
 289 257 289 257 289 362 c 0,11,12
 289 465 289 465 351 525 c 128,-1,13
 413 585 413 585 525 585 c 0,14,15
 601 585 601 585 665 559 c 1,16,-1
 641 504 l 1,17,18
 578 531 578 531 523 531 c 0,19,20
 445 531 445 531 403.5 485.5 c 128,-1,21
 362 440 362 440 362 362 c 0,22,23
 362 190 362 190 521 190 c 0,24,25
 546 190 546 190 566 192 c 128,-1,26
 586 194 586 194 602 198 c 1,27,-1
 602 321 l 1,28,-1
 504 321 l 1,29,-1
 504 377 l 1,30,-1
 671 377 l 1,31,-1
 671 159 l 1,32,33
 593 136 593 136 519 136 c 0,8,9
EndSplineSet
EndChar

StartChar: uni24BC
Encoding: 589 9404 90
Width: 1000
GlyphClass: 1
Flags: W
LayerCount: 2
Fore
SplineSet
500 -55 m 0,0,1
 415 -55 415 -55 340 -23 c 128,-1,2
 265 9 265 9 208.5 65.5 c 128,-1,3
 152 122 152 122 120 197 c 128,-1,4
 88 272 88 272 88 357 c 0,5,6
 88 443 88 443 120 517.5 c 128,-1,7
 152 592 152 592 208.5 648.5 c 128,-1,8
 265 705 265 705 340 737 c 128,-1,9
 415 769 415 769 500 769 c 0,10,11
 586 769 586 769 660.5 737 c 128,-1,12
 735 705 735 705 791.5 648.5 c 128,-1,13
 848 592 848 592 880 517.5 c 128,-1,14
 912 443 912 443 912 357 c 0,15,16
 912 272 912 272 880 197 c 128,-1,17
 848 122 848 122 791.5 65.5 c 128,-1,18
 735 9 735 9 660.5 -23 c 128,-1,19
 586 -55 586 -55 500 -55 c 0,0,1
500 1 m 256,20,21
 574 1 574 1 638.5 28.5 c 128,-1,22
 703 56 703 56 752 105 c 128,-1,23
 801 154 801 154 828.5 218.5 c 128,-1,24
 856 283 856 283 856 357 c 256,25,26
 856 431 856 431 828.5 495.5 c 128,-1,27
 801 560 801 560 752 609 c 128,-1,28
 703 658 703 658 638.5 685.5 c 128,-1,29
 574 713 574 713 500 713 c 256,30,31
 426 713 426 713 361.5 685.5 c 128,-1,32
 297 658 297 658 248 609 c 128,-1,33
 199 560 199 560 171.5 495.5 c 128,-1,34
 144 431 144 431 144 357 c 256,35,36
 144 283 144 283 171.5 218.5 c 128,-1,37
 199 154 199 154 248 105 c 128,-1,38
 297 56 297 56 361.5 28.5 c 128,-1,39
 426 1 426 1 500 1 c 256,20,21
519 136 m 0,40,41
 404 136 404 136 346.5 196.5 c 128,-1,42
 289 257 289 257 289 362 c 0,43,44
 289 465 289 465 351 525 c 128,-1,45
 413 585 413 585 525 585 c 0,46,47
 601 585 601 585 665 559 c 1,48,-1
 641 504 l 1,49,50
 578 531 578 531 523 531 c 0,51,52
 445 531 445 531 403.5 485.5 c 128,-1,53
 362 440 362 440 362 362 c 0,54,55
 362 190 362 190 521 190 c 0,56,57
 546 190 546 190 566 192 c 128,-1,58
 586 194 586 194 602 198 c 1,59,-1
 602 321 l 1,60,-1
 504 321 l 1,61,-1
 504 377 l 1,62,-1
 671 377 l 1,63,-1
 671 159 l 1,64,65
 593 136 593 136 519 136 c 0,40,41
EndSplineSet
EndChar

StartChar: u1F116
Encoding: 849 127254 91
Width: 1000
GlyphClass: 1
Flags: W
LayerCount: 2
Fore
SplineSet
731 -57 m 1,0,1
 859 124 859 124 859 352 c 0,2,3
 859 464 859 464 826.5 571 c 128,-1,4
 794 678 794 678 731 767 c 1,5,-1
 789 767 l 1,6,7
 922 598 922 598 922 351 c 0,8,9
 922 106 922 106 789 -57 c 1,10,-1
 731 -57 l 1,0,1
211 -57 m 1,11,12
 78 106 78 106 78 351 c 0,13,14
 78 598 78 598 211 767 c 1,15,-1
 269 767 l 1,16,17
 206 678 206 678 173.5 571 c 128,-1,18
 141 464 141 464 141 352 c 0,19,20
 141 124 141 124 269 -57 c 1,21,-1
 211 -57 l 1,11,12
528 136 m 0,22,23
 413 136 413 136 355.5 196.5 c 128,-1,24
 298 257 298 257 298 362 c 0,25,26
 298 465 298 465 360 525 c 128,-1,27
 422 585 422 585 534 585 c 0,28,29
 608 585 608 585 674 559 c 1,30,-1
 650 504 l 1,31,32
 586 531 586 531 532 531 c 0,33,34
 454 531 454 531 412.5 485.5 c 128,-1,35
 371 440 371 440 371 362 c 0,36,37
 371 190 371 190 530 190 c 0,38,39
 555 190 555 190 575 192 c 128,-1,40
 595 194 595 194 611 198 c 1,41,-1
 611 321 l 1,42,-1
 513 321 l 1,43,-1
 513 377 l 1,44,-1
 680 377 l 1,45,-1
 680 159 l 1,46,47
 602 136 602 136 528 136 c 0,22,23
EndSplineSet
EndChar

StartChar: u1F176
Encoding: 942 127350 92
Width: 1000
GlyphClass: 1
Flags: W
LayerCount: 2
Fore
SplineSet
208 -31 m 2,0,1
 112 -31 112 -31 112 65 c 2,2,-1
 112 649 l 2,3,4
 112 745 112 745 208 745 c 2,5,-1
 792 745 l 2,6,7
 888 745 888 745 888 649 c 2,8,-1
 888 65 l 2,9,10
 888 -31 888 -31 792 -31 c 2,11,-1
 208 -31 l 2,0,1
519 136 m 0,12,13
 593 136 593 136 671 159 c 1,14,-1
 671 377 l 1,15,-1
 504 377 l 1,16,-1
 504 321 l 1,17,-1
 602 321 l 1,18,-1
 602 198 l 1,19,20
 586 194 586 194 566 192 c 128,-1,21
 546 190 546 190 521 190 c 0,22,23
 362 190 362 190 362 362 c 0,24,25
 362 440 362 440 403.5 485.5 c 128,-1,26
 445 531 445 531 523 531 c 0,27,28
 578 531 578 531 641 504 c 1,29,-1
 665 559 l 1,30,31
 601 585 601 585 525 585 c 0,32,33
 413 585 413 585 351 525 c 128,-1,34
 289 465 289 465 289 362 c 0,35,36
 289 257 289 257 346.5 196.5 c 128,-1,37
 404 136 404 136 519 136 c 0,12,13
EndSplineSet
EndChar

StartChar: H
Encoding: 42 72 93
Width: 741
GlyphClass: 2
Flags: W
LayerCount: 2
Fore
SplineSet
97 0 m 1,0,-1
 97 714 l 1,1,-1
 187 714 l 1,2,-1
 187 412 l 1,3,-1
 553 412 l 1,4,-1
 553 714 l 1,5,-1
 643 714 l 1,6,-1
 643 0 l 1,7,-1
 553 0 l 1,8,-1
 553 333 l 1,9,-1
 187 333 l 1,10,-1
 187 0 l 1,11,-1
 97 0 l 1,0,-1
EndSplineSet
EndChar

StartChar: H.001
Encoding: 1152 -1 94
Width: 648
GlyphClass: 1
Flags: W
LayerCount: 2
Fore
SplineSet
51 0 m 1,0,-1
 51 714 l 1,1,-1
 141 714 l 1,2,-1
 141 412 l 1,3,-1
 507 412 l 1,4,-1
 507 714 l 1,5,-1
 597 714 l 1,6,-1
 597 0 l 1,7,-1
 507 0 l 1,8,-1
 507 333 l 1,9,-1
 141 333 l 1,10,-1
 141 0 l 1,11,-1
 51 0 l 1,0,-1
EndSplineSet
EndChar

StartChar: u1F157
Encoding: 914 127319 100
Width: 1000
GlyphClass: 1
Flags: W
LayerCount: 2
Fore
SplineSet
500 -55 m 0,0,1
 415 -55 415 -55 340 -23 c 128,-1,2
 265 9 265 9 208.5 65.5 c 128,-1,3
 152 122 152 122 120 197 c 128,-1,4
 88 272 88 272 88 357 c 256,5,6
 88 442 88 442 120 516.5 c 128,-1,7
 152 591 152 591 208.5 648 c 128,-1,8
 265 705 265 705 340 737 c 128,-1,9
 415 769 415 769 500 769 c 0,10,11
 586 769 586 769 660.5 737 c 128,-1,12
 735 705 735 705 791.5 648 c 128,-1,13
 848 591 848 591 880 516.5 c 128,-1,14
 912 442 912 442 912 357 c 256,15,16
 912 272 912 272 880 197 c 128,-1,17
 848 122 848 122 791.5 65.5 c 128,-1,18
 735 9 735 9 660.5 -23 c 128,-1,19
 586 -55 586 -55 500 -55 c 0,0,1
328 146 m 1,20,-1
 397 146 l 1,21,-1
 397 343 l 1,22,-1
 603 343 l 1,23,-1
 603 146 l 1,24,-1
 672 146 l 1,25,-1
 672 574 l 1,26,-1
 603 574 l 1,27,-1
 603 401 l 1,28,-1
 397 401 l 1,29,-1
 397 574 l 1,30,-1
 328 574 l 1,31,-1
 328 146 l 1,20,-1
EndSplineSet
EndChar

StartChar: u1F137
Encoding: 882 127287 101
Width: 1000
GlyphClass: 1
Flags: W
LayerCount: 2
Fore
SplineSet
112 -31 m 1,0,-1
 112 745 l 1,1,-1
 888 745 l 1,2,-1
 888 -31 l 1,3,-1
 112 -31 l 1,0,-1
167 24 m 1,4,-1
 833 24 l 1,5,-1
 833 690 l 1,6,-1
 167 690 l 1,7,-1
 167 24 l 1,4,-1
328 146 m 1,8,-1
 328 574 l 1,9,-1
 397 574 l 1,10,-1
 397 401 l 1,11,-1
 603 401 l 1,12,-1
 603 574 l 1,13,-1
 672 574 l 1,14,-1
 672 146 l 1,15,-1
 603 146 l 1,16,-1
 603 343 l 1,17,-1
 397 343 l 1,18,-1
 397 146 l 1,19,-1
 328 146 l 1,8,-1
EndSplineSet
EndChar

StartChar: uni24BD
Encoding: 590 9405 102
Width: 1000
GlyphClass: 1
Flags: W
LayerCount: 2
Fore
SplineSet
500 -55 m 0,0,1
 415 -55 415 -55 340 -23 c 128,-1,2
 265 9 265 9 208.5 65.5 c 128,-1,3
 152 122 152 122 120 197 c 128,-1,4
 88 272 88 272 88 357 c 0,5,6
 88 443 88 443 120 517.5 c 128,-1,7
 152 592 152 592 208.5 648.5 c 128,-1,8
 265 705 265 705 340 737 c 128,-1,9
 415 769 415 769 500 769 c 0,10,11
 586 769 586 769 660.5 737 c 128,-1,12
 735 705 735 705 791.5 648.5 c 128,-1,13
 848 592 848 592 880 517.5 c 128,-1,14
 912 443 912 443 912 357 c 0,15,16
 912 272 912 272 880 197 c 128,-1,17
 848 122 848 122 791.5 65.5 c 128,-1,18
 735 9 735 9 660.5 -23 c 128,-1,19
 586 -55 586 -55 500 -55 c 0,0,1
500 1 m 256,20,21
 574 1 574 1 638.5 28.5 c 128,-1,22
 703 56 703 56 752 105 c 128,-1,23
 801 154 801 154 828.5 218.5 c 128,-1,24
 856 283 856 283 856 357 c 256,25,26
 856 431 856 431 828.5 495.5 c 128,-1,27
 801 560 801 560 752 609 c 128,-1,28
 703 658 703 658 638.5 685.5 c 128,-1,29
 574 713 574 713 500 713 c 256,30,31
 426 713 426 713 361.5 685.5 c 128,-1,32
 297 658 297 658 248 609 c 128,-1,33
 199 560 199 560 171.5 495.5 c 128,-1,34
 144 431 144 431 144 357 c 256,35,36
 144 283 144 283 171.5 218.5 c 128,-1,37
 199 154 199 154 248 105 c 128,-1,38
 297 56 297 56 361.5 28.5 c 128,-1,39
 426 1 426 1 500 1 c 256,20,21
328 146 m 1,40,-1
 328 574 l 1,41,-1
 397 574 l 1,42,-1
 397 401 l 1,43,-1
 603 401 l 1,44,-1
 603 574 l 1,45,-1
 672 574 l 1,46,-1
 672 146 l 1,47,-1
 603 146 l 1,48,-1
 603 343 l 1,49,-1
 397 343 l 1,50,-1
 397 146 l 1,51,-1
 328 146 l 1,40,-1
EndSplineSet
EndChar

StartChar: u1F117
Encoding: 850 127255 103
Width: 1000
GlyphClass: 1
Flags: W
LayerCount: 2
Fore
SplineSet
731 -57 m 1,0,1
 859 124 859 124 859 352 c 0,2,3
 859 464 859 464 826.5 571 c 128,-1,4
 794 678 794 678 731 767 c 1,5,-1
 789 767 l 1,6,7
 922 598 922 598 922 351 c 0,8,9
 922 106 922 106 789 -57 c 1,10,-1
 731 -57 l 1,0,1
211 -57 m 1,11,12
 78 106 78 106 78 351 c 0,13,14
 78 598 78 598 211 767 c 1,15,-1
 269 767 l 1,16,17
 206 678 206 678 173.5 571 c 128,-1,18
 141 464 141 464 141 352 c 0,19,20
 141 124 141 124 269 -57 c 1,21,-1
 211 -57 l 1,11,12
328 146 m 1,22,-1
 328 574 l 1,23,-1
 397 574 l 1,24,-1
 397 401 l 1,25,-1
 603 401 l 1,26,-1
 603 574 l 1,27,-1
 672 574 l 1,28,-1
 672 146 l 1,29,-1
 603 146 l 1,30,-1
 603 343 l 1,31,-1
 397 343 l 1,32,-1
 397 146 l 1,33,-1
 328 146 l 1,22,-1
EndSplineSet
EndChar

StartChar: u1F177
Encoding: 943 127351 104
Width: 1000
GlyphClass: 1
Flags: W
LayerCount: 2
Fore
SplineSet
208 -31 m 2,0,1
 112 -31 112 -31 112 65 c 2,2,-1
 112 649 l 2,3,4
 112 745 112 745 208 745 c 2,5,-1
 792 745 l 2,6,7
 888 745 888 745 888 649 c 2,8,-1
 888 65 l 2,9,10
 888 -31 888 -31 792 -31 c 2,11,-1
 208 -31 l 2,0,1
328 146 m 1,12,-1
 397 146 l 1,13,-1
 397 343 l 1,14,-1
 603 343 l 1,15,-1
 603 146 l 1,16,-1
 672 146 l 1,17,-1
 672 574 l 1,18,-1
 603 574 l 1,19,-1
 603 401 l 1,20,-1
 397 401 l 1,21,-1
 397 574 l 1,22,-1
 328 574 l 1,23,-1
 328 146 l 1,12,-1
EndSplineSet
EndChar

StartChar: uni216D
Encoding: 354 8557 105
Width: 632
GlyphClass: 1
Flags: W
LayerCount: 2
Fore
SplineSet
389 -10 m 0,0,1
 280 -10 280 -10 207 35 c 128,-1,2
 134 80 134 80 97.5 163 c 128,-1,3
 61 246 61 246 61 358 c 0,4,5
 61 466 61 466 100.5 548.5 c 128,-1,6
 140 631 140 631 217 677.5 c 128,-1,7
 294 724 294 724 404 724 c 0,8,9
 517 724 517 724 601 682 c 1,10,-1
 565 606 l 1,11,12
 532 621 532 621 491.5 633 c 128,-1,13
 451 645 451 645 403 645 c 0,14,15
 288 645 288 645 222 568 c 128,-1,16
 156 491 156 491 156 357 c 0,17,18
 156 224 156 224 217.5 146.5 c 128,-1,19
 279 69 279 69 402 69 c 0,20,21
 449 69 449 69 491 77 c 128,-1,22
 533 85 533 85 573 97 c 1,23,-1
 573 19 l 1,24,25
 533 4 533 4 490.5 -3 c 128,-1,26
 448 -10 448 -10 389 -10 c 0,0,1
EndSplineSet
EndChar

StartChar: u1F14A
Encoding: 901 127306 106
Width: 1000
GlyphClass: 1
Flags: W
LayerCount: 2
Fore
SplineSet
112 -31 m 1,0,-1
 112 745 l 1,1,-1
 888 745 l 1,2,-1
 888 -31 l 1,3,-1
 112 -31 l 1,0,-1
167 24 m 1,4,-1
 833 24 l 1,5,-1
 833 690 l 1,6,-1
 167 690 l 1,7,-1
 167 24 l 1,4,-1
632 146 m 1,8,-1
 515 574 l 1,9,-1
 579 574 l 1,10,-1
 657 257 l 2,11,12
 659 248 659 248 660 238.5 c 128,-1,13
 661 229 661 229 662 220 c 1,14,15
 665 241 665 241 670.5 265 c 128,-1,16
 676 289 676 289 683 317 c 2,17,-1
 743 574 l 1,18,-1
 807 574 l 1,19,-1
 691 146 l 1,20,-1
 632 146 l 1,8,-1
223 146 m 1,21,-1
 223 574 l 1,22,-1
 281 574 l 1,23,-1
 281 399 l 1,24,-1
 429 399 l 1,25,-1
 429 574 l 1,26,-1
 487 574 l 1,27,-1
 487 146 l 1,28,-1
 429 146 l 1,29,-1
 429 347 l 1,30,-1
 281 347 l 1,31,-1
 281 146 l 1,32,-1
 223 146 l 1,21,-1
EndSplineSet
EndChar

StartChar: I
Encoding: 43 73 107
Width: 339
GlyphClass: 2
Flags: W
LayerCount: 2
Fore
SplineSet
40 0 m 1,0,-1
 40 52 l 1,1,-1
 124 71 l 1,2,-1
 124 642 l 1,3,-1
 40 662 l 1,4,-1
 40 714 l 1,5,-1
 298 714 l 1,6,-1
 298 662 l 1,7,-1
 214 642 l 1,8,-1
 214 71 l 1,9,-1
 298 52 l 1,10,-1
 298 0 l 1,11,-1
 40 0 l 1,0,-1
EndSplineSet
EndChar

StartChar: I.001
Encoding: 1158 -1 108
Width: 360
GlyphClass: 1
Flags: W
LayerCount: 2
Fore
SplineSet
51 0 m 1,0,-1
 51 52 l 1,1,-1
 135 71 l 1,2,-1
 135 642 l 1,3,-1
 51 662 l 1,4,-1
 51 714 l 1,5,-1
 309 714 l 1,6,-1
 309 662 l 1,7,-1
 225 642 l 1,8,-1
 225 71 l 1,9,-1
 309 52 l 1,10,-1
 309 0 l 1,11,-1
 51 0 l 1,0,-1
EndSplineSet
EndChar

StartChar: u1F158
Encoding: 915 127320 114
Width: 1000
GlyphClass: 1
Flags: W
LayerCount: 2
Fore
SplineSet
500 -55 m 0,0,1
 415 -55 415 -55 340 -23 c 128,-1,2
 265 9 265 9 208.5 65.5 c 128,-1,3
 152 122 152 122 120 197 c 128,-1,4
 88 272 88 272 88 357 c 256,5,6
 88 442 88 442 120 516.5 c 128,-1,7
 152 591 152 591 208.5 648 c 128,-1,8
 265 705 265 705 340 737 c 128,-1,9
 415 769 415 769 500 769 c 0,10,11
 586 769 586 769 660.5 737 c 128,-1,12
 735 705 735 705 791.5 648 c 128,-1,13
 848 591 848 591 880 516.5 c 128,-1,14
 912 442 912 442 912 357 c 256,15,16
 912 272 912 272 880 197 c 128,-1,17
 848 122 848 122 791.5 65.5 c 128,-1,18
 735 9 735 9 660.5 -23 c 128,-1,19
 586 -55 586 -55 500 -55 c 0,0,1
412 146 m 1,20,-1
 589 146 l 1,21,-1
 589 187 l 1,22,-1
 535 198 l 1,23,-1
 535 521 l 1,24,-1
 589 534 l 1,25,-1
 589 574 l 1,26,-1
 412 574 l 1,27,-1
 412 534 l 1,28,-1
 465 521 l 1,29,-1
 465 198 l 1,30,-1
 412 187 l 1,31,-1
 412 146 l 1,20,-1
EndSplineSet
EndChar

StartChar: u1F138
Encoding: 883 127288 115
Width: 1000
GlyphClass: 1
Flags: W
LayerCount: 2
Fore
SplineSet
112 -31 m 1,0,-1
 112 745 l 1,1,-1
 888 745 l 1,2,-1
 888 -31 l 1,3,-1
 112 -31 l 1,0,-1
167 24 m 1,4,-1
 833 24 l 1,5,-1
 833 690 l 1,6,-1
 167 690 l 1,7,-1
 167 24 l 1,4,-1
412 146 m 1,8,-1
 412 187 l 1,9,-1
 465 198 l 1,10,-1
 465 521 l 1,11,-1
 412 534 l 1,12,-1
 412 574 l 1,13,-1
 589 574 l 1,14,-1
 589 534 l 1,15,-1
 535 521 l 1,16,-1
 535 198 l 1,17,-1
 589 187 l 1,18,-1
 589 146 l 1,19,-1
 412 146 l 1,8,-1
EndSplineSet
EndChar

StartChar: uni24BE
Encoding: 591 9406 116
Width: 1000
GlyphClass: 1
Flags: W
LayerCount: 2
Fore
SplineSet
500 -55 m 0,0,1
 415 -55 415 -55 340 -23 c 128,-1,2
 265 9 265 9 208.5 65.5 c 128,-1,3
 152 122 152 122 120 197 c 128,-1,4
 88 272 88 272 88 357 c 0,5,6
 88 443 88 443 120 517.5 c 128,-1,7
 152 592 152 592 208.5 648.5 c 128,-1,8
 265 705 265 705 340 737 c 128,-1,9
 415 769 415 769 500 769 c 0,10,11
 586 769 586 769 660.5 737 c 128,-1,12
 735 705 735 705 791.5 648.5 c 128,-1,13
 848 592 848 592 880 517.5 c 128,-1,14
 912 443 912 443 912 357 c 0,15,16
 912 272 912 272 880 197 c 128,-1,17
 848 122 848 122 791.5 65.5 c 128,-1,18
 735 9 735 9 660.5 -23 c 128,-1,19
 586 -55 586 -55 500 -55 c 0,0,1
500 1 m 256,20,21
 574 1 574 1 638.5 28.5 c 128,-1,22
 703 56 703 56 752 105 c 128,-1,23
 801 154 801 154 828.5 218.5 c 128,-1,24
 856 283 856 283 856 357 c 256,25,26
 856 431 856 431 828.5 495.5 c 128,-1,27
 801 560 801 560 752 609 c 128,-1,28
 703 658 703 658 638.5 685.5 c 128,-1,29
 574 713 574 713 500 713 c 256,30,31
 426 713 426 713 361.5 685.5 c 128,-1,32
 297 658 297 658 248 609 c 128,-1,33
 199 560 199 560 171.5 495.5 c 128,-1,34
 144 431 144 431 144 357 c 256,35,36
 144 283 144 283 171.5 218.5 c 128,-1,37
 199 154 199 154 248 105 c 128,-1,38
 297 56 297 56 361.5 28.5 c 128,-1,39
 426 1 426 1 500 1 c 256,20,21
412 146 m 1,40,-1
 412 187 l 1,41,-1
 465 198 l 1,42,-1
 465 521 l 1,43,-1
 412 534 l 1,44,-1
 412 574 l 1,45,-1
 589 574 l 1,46,-1
 589 534 l 1,47,-1
 535 521 l 1,48,-1
 535 198 l 1,49,-1
 589 187 l 1,50,-1
 589 146 l 1,51,-1
 412 146 l 1,40,-1
EndSplineSet
EndChar

StartChar: u1F118
Encoding: 851 127256 117
Width: 1000
GlyphClass: 1
Flags: W
LayerCount: 2
Fore
SplineSet
731 -57 m 1,0,1
 859 124 859 124 859 352 c 0,2,3
 859 464 859 464 826.5 571 c 128,-1,4
 794 678 794 678 731 767 c 1,5,-1
 789 767 l 1,6,7
 922 598 922 598 922 351 c 0,8,9
 922 106 922 106 789 -57 c 1,10,-1
 731 -57 l 1,0,1
211 -57 m 1,11,12
 78 106 78 106 78 351 c 0,13,14
 78 598 78 598 211 767 c 1,15,-1
 269 767 l 1,16,17
 206 678 206 678 173.5 571 c 128,-1,18
 141 464 141 464 141 352 c 0,19,20
 141 124 141 124 269 -57 c 1,21,-1
 211 -57 l 1,11,12
412 146 m 1,22,-1
 412 187 l 1,23,-1
 465 198 l 1,24,-1
 465 521 l 1,25,-1
 412 534 l 1,26,-1
 412 574 l 1,27,-1
 589 574 l 1,28,-1
 589 534 l 1,29,-1
 535 521 l 1,30,-1
 535 198 l 1,31,-1
 589 187 l 1,32,-1
 589 146 l 1,33,-1
 412 146 l 1,22,-1
EndSplineSet
EndChar

StartChar: u1F178
Encoding: 944 127352 118
Width: 1000
GlyphClass: 1
Flags: W
LayerCount: 2
Fore
SplineSet
208 -31 m 2,0,1
 112 -31 112 -31 112 65 c 2,2,-1
 112 649 l 2,3,4
 112 745 112 745 208 745 c 2,5,-1
 792 745 l 2,6,7
 888 745 888 745 888 649 c 2,8,-1
 888 65 l 2,9,10
 888 -31 888 -31 792 -31 c 2,11,-1
 208 -31 l 2,0,1
412 146 m 1,12,-1
 589 146 l 1,13,-1
 589 187 l 1,14,-1
 535 198 l 1,15,-1
 535 521 l 1,16,-1
 589 534 l 1,17,-1
 589 574 l 1,18,-1
 412 574 l 1,19,-1
 412 534 l 1,20,-1
 465 521 l 1,21,-1
 465 198 l 1,22,-1
 412 187 l 1,23,-1
 412 146 l 1,12,-1
EndSplineSet
EndChar

StartChar: J
Encoding: 44 74 119
Width: 273
GlyphClass: 2
Flags: W
LayerCount: 2
Fore
SplineSet
-4 -190 m 0,0,1
 -28 -190 -28 -190 -46 -186.5 c 128,-1,2
 -64 -183 -64 -183 -78 -177 c 1,3,-1
 -78 -101 l 1,4,5
 -62 -105 -62 -105 -44 -108 c 128,-1,6
 -26 -111 -26 -111 -6 -111 c 0,7,8
 19 -111 19 -111 41.5 -101 c 128,-1,9
 64 -91 64 -91 78 -66 c 128,-1,10
 92 -41 92 -41 92 4 c 2,11,-1
 92 714 l 1,12,-1
 182 714 l 1,13,-1
 182 11 l 2,14,15
 182 -92 182 -92 131 -141 c 128,-1,16
 80 -190 80 -190 -4 -190 c 0,0,1
EndSplineSet
EndChar

StartChar: J.001
Encoding: 1164 -1 120
Width: 362
GlyphClass: 1
Flags: W
LayerCount: 2
Fore
SplineSet
125 -190 m 0,0,1
 101 -190 101 -190 83 -186.5 c 128,-1,2
 65 -183 65 -183 51 -177 c 1,3,-1
 51 -101 l 1,4,5
 67 -105 67 -105 85 -108 c 128,-1,6
 103 -111 103 -111 123 -111 c 0,7,8
 148 -111 148 -111 170.5 -101 c 128,-1,9
 193 -91 193 -91 207 -66 c 128,-1,10
 221 -41 221 -41 221 4 c 2,11,-1
 221 714 l 1,12,-1
 311 714 l 1,13,-1
 311 11 l 2,14,15
 311 -92 311 -92 260 -141 c 128,-1,16
 209 -190 209 -190 125 -190 c 0,0,1
EndSplineSet
EndChar

StartChar: u1F159
Encoding: 916 127321 126
Width: 1000
GlyphClass: 1
Flags: W
LayerCount: 2
Fore
SplineSet
500 -55 m 0,0,1
 415 -55 415 -55 340 -23 c 128,-1,2
 265 9 265 9 208.5 65.5 c 128,-1,3
 152 122 152 122 120 197 c 128,-1,4
 88 272 88 272 88 357 c 256,5,6
 88 442 88 442 120 516.5 c 128,-1,7
 152 591 152 591 208.5 648 c 128,-1,8
 265 705 265 705 340 737 c 128,-1,9
 415 769 415 769 500 769 c 0,10,11
 586 769 586 769 660.5 737 c 128,-1,12
 735 705 735 705 791.5 648 c 128,-1,13
 848 591 848 591 880 516.5 c 128,-1,14
 912 442 912 442 912 357 c 256,15,16
 912 272 912 272 880 197 c 128,-1,17
 848 122 848 122 791.5 65.5 c 128,-1,18
 735 9 735 9 660.5 -23 c 128,-1,19
 586 -55 586 -55 500 -55 c 0,0,1
440 94 m 0,20,21
 491 94 491 94 523.5 122.5 c 128,-1,22
 556 151 556 151 556 211 c 2,23,-1
 556 574 l 1,24,-1
 487 574 l 1,25,-1
 487 207 l 2,26,27
 487 149 487 149 439 149 c 0,28,29
 422 149 422 149 390 158 c 1,30,-1
 390 104 l 1,31,32
 401 100 401 100 413.5 97 c 128,-1,33
 426 94 426 94 440 94 c 0,20,21
EndSplineSet
EndChar

StartChar: u1F139
Encoding: 884 127289 127
Width: 1000
GlyphClass: 1
Flags: W
LayerCount: 2
Fore
SplineSet
112 -31 m 1,0,-1
 112 745 l 1,1,-1
 888 745 l 1,2,-1
 888 -31 l 1,3,-1
 112 -31 l 1,0,-1
167 24 m 1,4,-1
 833 24 l 1,5,-1
 833 690 l 1,6,-1
 167 690 l 1,7,-1
 167 24 l 1,4,-1
440 94 m 0,8,9
 426 94 426 94 413.5 97 c 128,-1,10
 401 100 401 100 390 104 c 1,11,-1
 390 158 l 1,12,13
 422 149 422 149 439 149 c 0,14,15
 487 149 487 149 487 207 c 2,16,-1
 487 574 l 1,17,-1
 556 574 l 1,18,-1
 556 211 l 2,19,20
 556 151 556 151 523.5 122.5 c 128,-1,21
 491 94 491 94 440 94 c 0,8,9
EndSplineSet
EndChar

StartChar: uni24BF
Encoding: 592 9407 128
Width: 1000
GlyphClass: 1
Flags: W
LayerCount: 2
Fore
SplineSet
500 -55 m 0,0,1
 415 -55 415 -55 340 -23 c 128,-1,2
 265 9 265 9 208.5 65.5 c 128,-1,3
 152 122 152 122 120 197 c 128,-1,4
 88 272 88 272 88 357 c 0,5,6
 88 443 88 443 120 517.5 c 128,-1,7
 152 592 152 592 208.5 648.5 c 128,-1,8
 265 705 265 705 340 737 c 128,-1,9
 415 769 415 769 500 769 c 0,10,11
 586 769 586 769 660.5 737 c 128,-1,12
 735 705 735 705 791.5 648.5 c 128,-1,13
 848 592 848 592 880 517.5 c 128,-1,14
 912 443 912 443 912 357 c 0,15,16
 912 272 912 272 880 197 c 128,-1,17
 848 122 848 122 791.5 65.5 c 128,-1,18
 735 9 735 9 660.5 -23 c 128,-1,19
 586 -55 586 -55 500 -55 c 0,0,1
500 1 m 256,20,21
 574 1 574 1 638.5 28.5 c 128,-1,22
 703 56 703 56 752 105 c 128,-1,23
 801 154 801 154 828.5 218.5 c 128,-1,24
 856 283 856 283 856 357 c 256,25,26
 856 431 856 431 828.5 495.5 c 128,-1,27
 801 560 801 560 752 609 c 128,-1,28
 703 658 703 658 638.5 685.5 c 128,-1,29
 574 713 574 713 500 713 c 256,30,31
 426 713 426 713 361.5 685.5 c 128,-1,32
 297 658 297 658 248 609 c 128,-1,33
 199 560 199 560 171.5 495.5 c 128,-1,34
 144 431 144 431 144 357 c 256,35,36
 144 283 144 283 171.5 218.5 c 128,-1,37
 199 154 199 154 248 105 c 128,-1,38
 297 56 297 56 361.5 28.5 c 128,-1,39
 426 1 426 1 500 1 c 256,20,21
450 94 m 0,40,41
 436 94 436 94 423.5 97 c 128,-1,42
 411 100 411 100 400 104 c 1,43,-1
 400 158 l 1,44,45
 432 149 432 149 449 149 c 0,46,47
 497 149 497 149 497 207 c 2,48,-1
 497 574 l 1,49,-1
 566 574 l 1,50,-1
 566 211 l 2,51,52
 566 151 566 151 533.5 122.5 c 128,-1,53
 501 94 501 94 450 94 c 0,40,41
EndSplineSet
EndChar

StartChar: u1F119
Encoding: 852 127257 129
Width: 1000
GlyphClass: 1
Flags: W
LayerCount: 2
Fore
SplineSet
731 -57 m 1,0,1
 859 124 859 124 859 352 c 0,2,3
 859 464 859 464 826.5 571 c 128,-1,4
 794 678 794 678 731 767 c 1,5,-1
 789 767 l 1,6,7
 922 598 922 598 922 351 c 0,8,9
 922 106 922 106 789 -57 c 1,10,-1
 731 -57 l 1,0,1
211 -57 m 1,11,12
 78 106 78 106 78 351 c 0,13,14
 78 598 78 598 211 767 c 1,15,-1
 269 767 l 1,16,17
 206 678 206 678 173.5 571 c 128,-1,18
 141 464 141 464 141 352 c 0,19,20
 141 124 141 124 269 -57 c 1,21,-1
 211 -57 l 1,11,12
450 94 m 0,22,23
 436 94 436 94 423.5 97 c 128,-1,24
 411 100 411 100 400 104 c 1,25,-1
 400 158 l 1,26,27
 432 149 432 149 449 149 c 0,28,29
 497 149 497 149 497 207 c 2,30,-1
 497 574 l 1,31,-1
 566 574 l 1,32,-1
 566 211 l 2,33,34
 566 151 566 151 533.5 122.5 c 128,-1,35
 501 94 501 94 450 94 c 0,22,23
EndSplineSet
EndChar

StartChar: u1F179
Encoding: 945 127353 130
Width: 1000
GlyphClass: 1
Flags: W
LayerCount: 2
Fore
SplineSet
208 -31 m 2,0,1
 112 -31 112 -31 112 65 c 2,2,-1
 112 649 l 2,3,4
 112 745 112 745 208 745 c 2,5,-1
 792 745 l 2,6,7
 888 745 888 745 888 649 c 2,8,-1
 888 65 l 2,9,10
 888 -31 888 -31 792 -31 c 2,11,-1
 208 -31 l 2,0,1
440 94 m 0,12,13
 491 94 491 94 523.5 122.5 c 128,-1,14
 556 151 556 151 556 211 c 2,15,-1
 556 574 l 1,16,-1
 487 574 l 1,17,-1
 487 207 l 2,18,19
 487 149 487 149 439 149 c 0,20,21
 422 149 422 149 390 158 c 1,22,-1
 390 104 l 1,23,24
 401 100 401 100 413.5 97 c 128,-1,25
 426 94 426 94 440 94 c 0,12,13
EndSplineSet
EndChar

StartChar: K
Encoding: 45 75 131
Width: 619
GlyphClass: 2
Flags: W
LayerCount: 2
Fore
SplineSet
97 0 m 1,0,-1
 97 714 l 1,1,-1
 187 714 l 1,2,-1
 187 362 l 1,3,4
 217 396 217 396 248 430 c 128,-1,5
 279 464 279 464 310 498 c 2,6,-1
 503 714 l 1,7,-1
 608 714 l 1,8,-1
 325 403 l 1,9,-1
 619 0 l 1,10,-1
 513 0 l 1,11,-1
 260 341 l 1,12,-1
 187 277 l 1,13,-1
 187 0 l 1,14,-1
 97 0 l 1,0,-1
EndSplineSet
EndChar

StartChar: K.001
Encoding: 1170 -1 132
Width: 624
GlyphClass: 1
Flags: W
LayerCount: 2
Fore
SplineSet
51 0 m 1,0,-1
 51 714 l 1,1,-1
 141 714 l 1,2,-1
 141 362 l 1,3,4
 171 396 171 396 202 430 c 128,-1,5
 233 464 233 464 264 498 c 2,6,-1
 457 714 l 1,7,-1
 562 714 l 1,8,-1
 279 403 l 1,9,-1
 573 0 l 1,10,-1
 467 0 l 1,11,-1
 214 341 l 1,12,-1
 141 277 l 1,13,-1
 141 0 l 1,14,-1
 51 0 l 1,0,-1
EndSplineSet
EndChar

StartChar: u1F15A
Encoding: 917 127322 138
Width: 1000
GlyphClass: 1
Flags: W
LayerCount: 2
Fore
SplineSet
500 -55 m 0,0,1
 415 -55 415 -55 340 -23 c 128,-1,2
 265 9 265 9 208.5 65.5 c 128,-1,3
 152 122 152 122 120 197 c 128,-1,4
 88 272 88 272 88 357 c 256,5,6
 88 442 88 442 120 516.5 c 128,-1,7
 152 591 152 591 208.5 648 c 128,-1,8
 265 705 265 705 340 737 c 128,-1,9
 415 769 415 769 500 769 c 0,10,11
 586 769 586 769 660.5 737 c 128,-1,12
 735 705 735 705 791.5 648 c 128,-1,13
 848 591 848 591 880 516.5 c 128,-1,14
 912 442 912 442 912 357 c 256,15,16
 912 272 912 272 880 197 c 128,-1,17
 848 122 848 122 791.5 65.5 c 128,-1,18
 735 9 735 9 660.5 -23 c 128,-1,19
 586 -55 586 -55 500 -55 c 0,0,1
359 146 m 1,20,-1
 428 146 l 1,21,-1
 428 311 l 1,22,-1
 465 345 l 1,23,-1
 615 146 l 1,24,-1
 693 146 l 1,25,-1
 513 389 l 1,26,-1
 688 574 l 1,27,-1
 608 574 l 1,28,-1
 478 434 l 2,29,30
 468 422 468 422 455 407.5 c 128,-1,31
 442 393 442 393 428 374 c 1,32,-1
 428 574 l 1,33,-1
 359 574 l 1,34,-1
 359 146 l 1,20,-1
EndSplineSet
EndChar

StartChar: u1F13A
Encoding: 885 127290 139
Width: 1000
GlyphClass: 1
Flags: W
LayerCount: 2
Fore
SplineSet
112 -31 m 1,0,-1
 112 745 l 1,1,-1
 888 745 l 1,2,-1
 888 -31 l 1,3,-1
 112 -31 l 1,0,-1
167 24 m 1,4,-1
 833 24 l 1,5,-1
 833 690 l 1,6,-1
 167 690 l 1,7,-1
 167 24 l 1,4,-1
359 146 m 1,8,-1
 359 574 l 1,9,-1
 428 574 l 1,10,-1
 428 374 l 1,11,12
 442 393 442 393 455 407.5 c 128,-1,13
 468 422 468 422 478 434 c 2,14,-1
 608 574 l 1,15,-1
 688 574 l 1,16,-1
 513 389 l 1,17,-1
 693 146 l 1,18,-1
 615 146 l 1,19,-1
 465 345 l 1,20,-1
 428 311 l 1,21,-1
 428 146 l 1,22,-1
 359 146 l 1,8,-1
EndSplineSet
EndChar

StartChar: uni24C0
Encoding: 593 9408 140
Width: 1000
GlyphClass: 1
Flags: W
LayerCount: 2
Fore
SplineSet
500 -55 m 0,0,1
 415 -55 415 -55 340 -23 c 128,-1,2
 265 9 265 9 208.5 65.5 c 128,-1,3
 152 122 152 122 120 197 c 128,-1,4
 88 272 88 272 88 357 c 0,5,6
 88 443 88 443 120 517.5 c 128,-1,7
 152 592 152 592 208.5 648.5 c 128,-1,8
 265 705 265 705 340 737 c 128,-1,9
 415 769 415 769 500 769 c 0,10,11
 586 769 586 769 660.5 737 c 128,-1,12
 735 705 735 705 791.5 648.5 c 128,-1,13
 848 592 848 592 880 517.5 c 128,-1,14
 912 443 912 443 912 357 c 0,15,16
 912 272 912 272 880 197 c 128,-1,17
 848 122 848 122 791.5 65.5 c 128,-1,18
 735 9 735 9 660.5 -23 c 128,-1,19
 586 -55 586 -55 500 -55 c 0,0,1
500 1 m 256,20,21
 574 1 574 1 638.5 28.5 c 128,-1,22
 703 56 703 56 752 105 c 128,-1,23
 801 154 801 154 828.5 218.5 c 128,-1,24
 856 283 856 283 856 357 c 256,25,26
 856 431 856 431 828.5 495.5 c 128,-1,27
 801 560 801 560 752 609 c 128,-1,28
 703 658 703 658 638.5 685.5 c 128,-1,29
 574 713 574 713 500 713 c 256,30,31
 426 713 426 713 361.5 685.5 c 128,-1,32
 297 658 297 658 248 609 c 128,-1,33
 199 560 199 560 171.5 495.5 c 128,-1,34
 144 431 144 431 144 357 c 256,35,36
 144 283 144 283 171.5 218.5 c 128,-1,37
 199 154 199 154 248 105 c 128,-1,38
 297 56 297 56 361.5 28.5 c 128,-1,39
 426 1 426 1 500 1 c 256,20,21
359 146 m 1,40,-1
 359 574 l 1,41,-1
 428 574 l 1,42,-1
 428 374 l 1,43,44
 442 393 442 393 455 407.5 c 128,-1,45
 468 422 468 422 478 434 c 2,46,-1
 608 574 l 1,47,-1
 688 574 l 1,48,-1
 513 389 l 1,49,-1
 693 146 l 1,50,-1
 615 146 l 1,51,-1
 465 345 l 1,52,-1
 428 311 l 1,53,-1
 428 146 l 1,54,-1
 359 146 l 1,40,-1
EndSplineSet
EndChar

StartChar: u1F11A
Encoding: 853 127258 141
Width: 1000
GlyphClass: 1
Flags: W
LayerCount: 2
Fore
SplineSet
731 -57 m 1,0,1
 859 124 859 124 859 352 c 0,2,3
 859 464 859 464 826.5 571 c 128,-1,4
 794 678 794 678 731 767 c 1,5,-1
 789 767 l 1,6,7
 922 598 922 598 922 351 c 0,8,9
 922 106 922 106 789 -57 c 1,10,-1
 731 -57 l 1,0,1
211 -57 m 1,11,12
 78 106 78 106 78 351 c 0,13,14
 78 598 78 598 211 767 c 1,15,-1
 269 767 l 1,16,17
 206 678 206 678 173.5 571 c 128,-1,18
 141 464 141 464 141 352 c 0,19,20
 141 124 141 124 269 -57 c 1,21,-1
 211 -57 l 1,11,12
359 146 m 1,22,-1
 359 574 l 1,23,-1
 428 574 l 1,24,-1
 428 374 l 1,25,26
 442 393 442 393 455 407.5 c 128,-1,27
 468 422 468 422 478 434 c 2,28,-1
 608 574 l 1,29,-1
 688 574 l 1,30,-1
 513 389 l 1,31,-1
 693 146 l 1,32,-1
 615 146 l 1,33,-1
 465 345 l 1,34,-1
 428 311 l 1,35,-1
 428 146 l 1,36,-1
 359 146 l 1,22,-1
EndSplineSet
EndChar

StartChar: u1F17A
Encoding: 946 127354 142
Width: 1000
GlyphClass: 1
Flags: W
LayerCount: 2
Fore
SplineSet
208 -31 m 2,0,1
 112 -31 112 -31 112 65 c 2,2,-1
 112 649 l 2,3,4
 112 745 112 745 208 745 c 2,5,-1
 792 745 l 2,6,7
 888 745 888 745 888 649 c 2,8,-1
 888 65 l 2,9,10
 888 -31 888 -31 792 -31 c 2,11,-1
 208 -31 l 2,0,1
359 146 m 1,12,-1
 428 146 l 1,13,-1
 428 311 l 1,14,-1
 465 345 l 1,15,-1
 615 146 l 1,16,-1
 693 146 l 1,17,-1
 513 389 l 1,18,-1
 688 574 l 1,19,-1
 608 574 l 1,20,-1
 478 434 l 2,21,22
 468 422 468 422 455 407.5 c 128,-1,23
 442 393 442 393 428 374 c 1,24,-1
 428 574 l 1,25,-1
 359 574 l 1,26,-1
 359 146 l 1,12,-1
EndSplineSet
EndChar

StartChar: L
Encoding: 46 76 143
Width: 524
GlyphClass: 2
Flags: W
LayerCount: 2
Fore
SplineSet
97 0 m 1,0,-1
 97 714 l 1,1,-1
 187 714 l 1,2,-1
 187 80 l 1,3,-1
 499 80 l 1,4,-1
 499 0 l 1,5,-1
 97 0 l 1,0,-1
EndSplineSet
EndChar

StartChar: L.001
Encoding: 1176 -1 144
Width: 504
GlyphClass: 1
Flags: W
LayerCount: 2
Fore
SplineSet
51 0 m 1,0,-1
 51 714 l 1,1,-1
 141 714 l 1,2,-1
 141 80 l 1,3,-1
 453 80 l 1,4,-1
 453 0 l 1,5,-1
 51 0 l 1,0,-1
EndSplineSet
EndChar

StartChar: u1F15B
Encoding: 918 127323 150
Width: 1000
GlyphClass: 1
Flags: W
LayerCount: 2
Fore
SplineSet
500 -55 m 0,0,1
 415 -55 415 -55 340 -23 c 128,-1,2
 265 9 265 9 208.5 65.5 c 128,-1,3
 152 122 152 122 120 197 c 128,-1,4
 88 272 88 272 88 357 c 256,5,6
 88 442 88 442 120 516.5 c 128,-1,7
 152 591 152 591 208.5 648 c 128,-1,8
 265 705 265 705 340 737 c 128,-1,9
 415 769 415 769 500 769 c 0,10,11
 586 769 586 769 660.5 737 c 128,-1,12
 735 705 735 705 791.5 648 c 128,-1,13
 848 591 848 591 880 516.5 c 128,-1,14
 912 442 912 442 912 357 c 256,15,16
 912 272 912 272 880 197 c 128,-1,17
 848 122 848 122 791.5 65.5 c 128,-1,18
 735 9 735 9 660.5 -23 c 128,-1,19
 586 -55 586 -55 500 -55 c 0,0,1
402 146 m 1,20,-1
 657 146 l 1,21,-1
 657 203 l 1,22,-1
 471 203 l 1,23,-1
 471 574 l 1,24,-1
 402 574 l 1,25,-1
 402 146 l 1,20,-1
EndSplineSet
EndChar

StartChar: u1F13B
Encoding: 886 127291 151
Width: 1000
GlyphClass: 1
Flags: W
LayerCount: 2
Fore
SplineSet
112 -31 m 1,0,-1
 112 745 l 1,1,-1
 888 745 l 1,2,-1
 888 -31 l 1,3,-1
 112 -31 l 1,0,-1
167 24 m 1,4,-1
 833 24 l 1,5,-1
 833 690 l 1,6,-1
 167 690 l 1,7,-1
 167 24 l 1,4,-1
402 146 m 1,8,-1
 402 574 l 1,9,-1
 471 574 l 1,10,-1
 471 203 l 1,11,-1
 657 203 l 1,12,-1
 657 146 l 1,13,-1
 402 146 l 1,8,-1
EndSplineSet
EndChar

StartChar: uni24C1
Encoding: 594 9409 152
Width: 1000
GlyphClass: 1
Flags: W
LayerCount: 2
Fore
SplineSet
500 -55 m 0,0,1
 415 -55 415 -55 340 -23 c 128,-1,2
 265 9 265 9 208.5 65.5 c 128,-1,3
 152 122 152 122 120 197 c 128,-1,4
 88 272 88 272 88 357 c 0,5,6
 88 443 88 443 120 517.5 c 128,-1,7
 152 592 152 592 208.5 648.5 c 128,-1,8
 265 705 265 705 340 737 c 128,-1,9
 415 769 415 769 500 769 c 0,10,11
 586 769 586 769 660.5 737 c 128,-1,12
 735 705 735 705 791.5 648.5 c 128,-1,13
 848 592 848 592 880 517.5 c 128,-1,14
 912 443 912 443 912 357 c 0,15,16
 912 272 912 272 880 197 c 128,-1,17
 848 122 848 122 791.5 65.5 c 128,-1,18
 735 9 735 9 660.5 -23 c 128,-1,19
 586 -55 586 -55 500 -55 c 0,0,1
500 1 m 256,20,21
 574 1 574 1 638.5 28.5 c 128,-1,22
 703 56 703 56 752 105 c 128,-1,23
 801 154 801 154 828.5 218.5 c 128,-1,24
 856 283 856 283 856 357 c 256,25,26
 856 431 856 431 828.5 495.5 c 128,-1,27
 801 560 801 560 752 609 c 128,-1,28
 703 658 703 658 638.5 685.5 c 128,-1,29
 574 713 574 713 500 713 c 256,30,31
 426 713 426 713 361.5 685.5 c 128,-1,32
 297 658 297 658 248 609 c 128,-1,33
 199 560 199 560 171.5 495.5 c 128,-1,34
 144 431 144 431 144 357 c 256,35,36
 144 283 144 283 171.5 218.5 c 128,-1,37
 199 154 199 154 248 105 c 128,-1,38
 297 56 297 56 361.5 28.5 c 128,-1,39
 426 1 426 1 500 1 c 256,20,21
402 146 m 1,40,-1
 402 574 l 1,41,-1
 471 574 l 1,42,-1
 471 203 l 1,43,-1
 657 203 l 1,44,-1
 657 146 l 1,45,-1
 402 146 l 1,40,-1
EndSplineSet
EndChar

StartChar: u1F11B
Encoding: 854 127259 153
Width: 1000
GlyphClass: 1
Flags: W
LayerCount: 2
Fore
SplineSet
731 -57 m 1,0,1
 859 124 859 124 859 352 c 0,2,3
 859 464 859 464 826.5 571 c 128,-1,4
 794 678 794 678 731 767 c 1,5,-1
 789 767 l 1,6,7
 922 598 922 598 922 351 c 0,8,9
 922 106 922 106 789 -57 c 1,10,-1
 731 -57 l 1,0,1
211 -57 m 1,11,12
 78 106 78 106 78 351 c 0,13,14
 78 598 78 598 211 767 c 1,15,-1
 269 767 l 1,16,17
 206 678 206 678 173.5 571 c 128,-1,18
 141 464 141 464 141 352 c 0,19,20
 141 124 141 124 269 -57 c 1,21,-1
 211 -57 l 1,11,12
402 146 m 1,22,-1
 402 574 l 1,23,-1
 471 574 l 1,24,-1
 471 203 l 1,25,-1
 657 203 l 1,26,-1
 657 146 l 1,27,-1
 402 146 l 1,22,-1
EndSplineSet
EndChar

StartChar: u1F17B
Encoding: 947 127355 154
Width: 1000
GlyphClass: 1
Flags: W
LayerCount: 2
Fore
SplineSet
208 -31 m 2,0,1
 112 -31 112 -31 112 65 c 2,2,-1
 112 649 l 2,3,4
 112 745 112 745 208 745 c 2,5,-1
 792 745 l 2,6,7
 888 745 888 745 888 649 c 2,8,-1
 888 65 l 2,9,10
 888 -31 888 -31 792 -31 c 2,11,-1
 208 -31 l 2,0,1
402 146 m 1,12,-1
 657 146 l 1,13,-1
 657 203 l 1,14,-1
 471 203 l 1,15,-1
 471 574 l 1,16,-1
 402 574 l 1,17,-1
 402 146 l 1,12,-1
EndSplineSet
EndChar

StartChar: M
Encoding: 47 77 155
Width: 907
GlyphClass: 2
Flags: W
LayerCount: 2
Fore
SplineSet
97 0 m 1,0,-1
 97 714 l 1,1,-1
 230 714 l 1,2,-1
 450 129 l 1,3,-1
 454 129 l 1,4,-1
 678 714 l 1,5,-1
 810 714 l 1,6,-1
 810 0 l 1,7,-1
 721 0 l 1,8,-1
 721 439 l 2,9,10
 721 491 721 491 723.5 542 c 128,-1,11
 726 593 726 593 728 625 c 1,12,-1
 724 625 l 1,13,-1
 486 0 l 1,14,-1
 412 0 l 1,15,-1
 177 626 l 1,16,-1
 173 626 l 1,17,18
 176 595 176 595 178 542.5 c 128,-1,19
 180 490 180 490 180 433 c 2,20,-1
 180 0 l 1,21,-1
 97 0 l 1,0,-1
EndSplineSet
EndChar

StartChar: M.001
Encoding: 1182 -1 156
Width: 815
GlyphClass: 1
Flags: W
LayerCount: 2
Fore
SplineSet
51 0 m 1,0,-1
 51 714 l 1,1,-1
 184 714 l 1,2,-1
 404 129 l 1,3,-1
 408 129 l 1,4,-1
 632 714 l 1,5,-1
 764 714 l 1,6,-1
 764 0 l 1,7,-1
 675 0 l 1,8,-1
 675 439 l 2,9,10
 675 491 675 491 677.5 542 c 128,-1,11
 680 593 680 593 682 625 c 1,12,-1
 678 625 l 1,13,-1
 440 0 l 1,14,-1
 366 0 l 1,15,-1
 131 626 l 1,16,-1
 127 626 l 1,17,18
 130 595 130 595 132 542.5 c 128,-1,19
 134 490 134 490 134 433 c 2,20,-1
 134 0 l 1,21,-1
 51 0 l 1,0,-1
EndSplineSet
EndChar

StartChar: u1F15C
Encoding: 919 127324 162
Width: 1000
GlyphClass: 1
Flags: W
LayerCount: 2
Fore
SplineSet
500 -55 m 0,0,1
 415 -55 415 -55 340 -23 c 128,-1,2
 265 9 265 9 208.5 65.5 c 128,-1,3
 152 122 152 122 120 197 c 128,-1,4
 88 272 88 272 88 357 c 256,5,6
 88 442 88 442 120 516.5 c 128,-1,7
 152 591 152 591 208.5 648 c 128,-1,8
 265 705 265 705 340 737 c 128,-1,9
 415 769 415 769 500 769 c 0,10,11
 586 769 586 769 660.5 737 c 128,-1,12
 735 705 735 705 791.5 648 c 128,-1,13
 848 591 848 591 880 516.5 c 128,-1,14
 912 442 912 442 912 357 c 256,15,16
 912 272 912 272 880 197 c 128,-1,17
 848 122 848 122 791.5 65.5 c 128,-1,18
 735 9 735 9 660.5 -23 c 128,-1,19
 586 -55 586 -55 500 -55 c 0,0,1
280 146 m 1,20,-1
 345 146 l 1,21,-1
 345 402 l 2,22,23
 345 454 345 454 339 498 c 1,24,-1
 326 532 l 1,25,-1
 331 538 l 1,26,27
 336 519 336 519 339 498 c 1,28,-1
 470 146 l 1,29,-1
 525 146 l 1,30,-1
 654 506 l 1,31,32
 655 523 655 523 657 534 c 1,33,-1
 663 532 l 1,34,-1
 654 506 l 1,35,36
 651 469 651 469 651 401 c 2,37,-1
 651 146 l 1,38,-1
 720 146 l 1,39,-1
 720 574 l 1,40,-1
 628 574 l 1,41,-1
 508 270 l 2,42,43
 504 261 504 261 502.5 252 c 128,-1,44
 501 243 501 243 499 234 c 0,45,46
 500 230 500 230 500.5 226 c 128,-1,47
 501 222 501 222 501 218 c 1,48,-1
 496 218 l 1,49,50
 497 222 497 222 497.5 226 c 128,-1,51
 498 230 498 230 499 234 c 0,52,53
 498 243 498 243 496.5 252 c 128,-1,54
 495 261 495 261 491 270 c 2,55,-1
 373 574 l 1,56,-1
 280 574 l 1,57,-1
 280 146 l 1,20,-1
EndSplineSet
EndChar

StartChar: u1F13C
Encoding: 887 127292 163
Width: 1000
GlyphClass: 1
Flags: W
LayerCount: 2
Fore
SplineSet
112 -31 m 1,0,-1
 112 745 l 1,1,-1
 888 745 l 1,2,-1
 888 -31 l 1,3,-1
 112 -31 l 1,0,-1
167 24 m 1,4,-1
 833 24 l 1,5,-1
 833 690 l 1,6,-1
 167 690 l 1,7,-1
 167 24 l 1,4,-1
280 146 m 1,8,-1
 280 574 l 1,9,-1
 373 574 l 1,10,-1
 491 270 l 2,11,12
 495 261 495 261 496.5 252 c 128,-1,13
 498 243 498 243 499 234 c 1,14,15
 501 243 501 243 502.5 252 c 128,-1,16
 504 261 504 261 508 270 c 2,17,-1
 628 574 l 1,18,-1
 720 574 l 1,19,-1
 720 146 l 1,20,-1
 651 146 l 1,21,-1
 651 401 l 2,22,23
 651 433 651 433 651 458 c 128,-1,24
 651 483 651 483 651 500 c 1,25,-1
 525 146 l 1,26,-1
 470 146 l 1,27,-1
 340 494 l 1,28,29
 345 453 345 453 345 402 c 2,30,-1
 345 146 l 1,31,-1
 280 146 l 1,8,-1
EndSplineSet
EndChar

StartChar: uni24C2
Encoding: 595 9410 164
Width: 1000
GlyphClass: 1
Flags: W
LayerCount: 2
Fore
SplineSet
500 -55 m 0,0,1
 415 -55 415 -55 340 -23 c 128,-1,2
 265 9 265 9 208.5 65.5 c 128,-1,3
 152 122 152 122 120 197 c 128,-1,4
 88 272 88 272 88 357 c 0,5,6
 88 443 88 443 120 517.5 c 128,-1,7
 152 592 152 592 208.5 648.5 c 128,-1,8
 265 705 265 705 340 737 c 128,-1,9
 415 769 415 769 500 769 c 0,10,11
 586 769 586 769 660.5 737 c 128,-1,12
 735 705 735 705 791.5 648.5 c 128,-1,13
 848 592 848 592 880 517.5 c 128,-1,14
 912 443 912 443 912 357 c 0,15,16
 912 272 912 272 880 197 c 128,-1,17
 848 122 848 122 791.5 65.5 c 128,-1,18
 735 9 735 9 660.5 -23 c 128,-1,19
 586 -55 586 -55 500 -55 c 0,0,1
500 1 m 256,20,21
 574 1 574 1 638.5 28.5 c 128,-1,22
 703 56 703 56 752 105 c 128,-1,23
 801 154 801 154 828.5 218.5 c 128,-1,24
 856 283 856 283 856 357 c 256,25,26
 856 431 856 431 828.5 495.5 c 128,-1,27
 801 560 801 560 752 609 c 128,-1,28
 703 658 703 658 638.5 685.5 c 128,-1,29
 574 713 574 713 500 713 c 256,30,31
 426 713 426 713 361.5 685.5 c 128,-1,32
 297 658 297 658 248 609 c 128,-1,33
 199 560 199 560 171.5 495.5 c 128,-1,34
 144 431 144 431 144 357 c 256,35,36
 144 283 144 283 171.5 218.5 c 128,-1,37
 199 154 199 154 248 105 c 128,-1,38
 297 56 297 56 361.5 28.5 c 128,-1,39
 426 1 426 1 500 1 c 256,20,21
280 146 m 1,40,-1
 280 574 l 1,41,-1
 373 574 l 1,42,-1
 488 275 l 2,43,44
 491 266 491 266 494 255.5 c 128,-1,45
 497 245 497 245 499 232 c 1,46,47
 500 244 500 244 502 252.5 c 128,-1,48
 504 261 504 261 508 270 c 2,49,-1
 628 574 l 1,50,-1
 720 574 l 1,51,-1
 720 146 l 1,52,-1
 651 146 l 1,53,-1
 651 401 l 2,54,55
 651 436 651 436 652 463.5 c 128,-1,56
 653 491 653 491 656 512 c 1,57,-1
 525 146 l 1,58,-1
 470 146 l 1,59,-1
 334 510 l 1,60,61
 345 459 345 459 345 402 c 2,62,-1
 345 146 l 1,63,-1
 280 146 l 1,40,-1
EndSplineSet
EndChar

StartChar: u1F11C
Encoding: 855 127260 165
Width: 1000
GlyphClass: 1
Flags: W
LayerCount: 2
Fore
SplineSet
731 -57 m 1,0,1
 859 124 859 124 859 352 c 0,2,3
 859 464 859 464 826.5 571 c 128,-1,4
 794 678 794 678 731 767 c 1,5,-1
 789 767 l 1,6,7
 922 598 922 598 922 351 c 0,8,9
 922 106 922 106 789 -57 c 1,10,-1
 731 -57 l 1,0,1
211 -57 m 1,11,12
 78 106 78 106 78 351 c 0,13,14
 78 598 78 598 211 767 c 1,15,-1
 269 767 l 1,16,17
 206 678 206 678 173.5 571 c 128,-1,18
 141 464 141 464 141 352 c 0,19,20
 141 124 141 124 269 -57 c 1,21,-1
 211 -57 l 1,11,12
280 146 m 1,22,-1
 280 574 l 1,23,-1
 373 574 l 1,24,-1
 491 270 l 2,25,26
 495 261 495 261 496.5 252 c 128,-1,27
 498 243 498 243 499 234 c 1,28,29
 501 243 501 243 502.5 252 c 128,-1,30
 504 261 504 261 508 270 c 2,31,-1
 628 574 l 1,32,-1
 720 574 l 1,33,-1
 720 146 l 1,34,-1
 651 146 l 1,35,-1
 651 401 l 2,36,37
 651 479 651 479 656 512 c 1,38,-1
 525 146 l 1,39,-1
 470 146 l 1,40,-1
 334 510 l 1,41,42
 345 463 345 463 345 402 c 2,43,-1
 345 146 l 1,44,-1
 280 146 l 1,22,-1
EndSplineSet
EndChar

StartChar: u1F17C
Encoding: 948 127356 166
Width: 1000
GlyphClass: 1
Flags: W
LayerCount: 2
Fore
SplineSet
208 -31 m 2,0,1
 112 -31 112 -31 112 65 c 2,2,-1
 112 649 l 2,3,4
 112 745 112 745 208 745 c 2,5,-1
 792 745 l 2,6,7
 888 745 888 745 888 649 c 2,8,-1
 888 65 l 2,9,10
 888 -31 888 -31 792 -31 c 2,11,-1
 208 -31 l 2,0,1
280 146 m 1,12,-1
 345 146 l 1,13,-1
 345 402 l 2,14,15
 345 456 345 456 338 501 c 1,16,-1
 326 532 l 1,17,-1
 331 533 l 1,18,19
 335 518 335 518 338 501 c 2,20,-1
 470 146 l 1,21,-1
 525 146 l 1,22,-1
 654 508 l 2,23,24
 655 520 655 520 657 529 c 1,25,-1
 663 532 l 1,26,-1
 654 508 l 1,27,28
 651 471 651 471 651 401 c 2,29,-1
 651 146 l 1,30,-1
 720 146 l 1,31,-1
 720 574 l 1,32,-1
 628 574 l 1,33,-1
 508 270 l 2,34,35
 504 261 504 261 502.5 252 c 128,-1,36
 501 243 501 243 499 234 c 0,37,38
 500 230 500 230 500.5 226 c 128,-1,39
 501 222 501 222 501 218 c 1,40,-1
 496 218 l 1,41,42
 497 222 497 222 497.5 226 c 128,-1,43
 498 230 498 230 499 234 c 0,44,45
 498 243 498 243 496.5 252 c 128,-1,46
 495 261 495 261 491 270 c 2,47,-1
 373 574 l 1,48,-1
 280 574 l 1,49,-1
 280 146 l 1,12,-1
EndSplineSet
EndChar

StartChar: u1F14B
Encoding: 902 127307 167
Width: 1000
GlyphClass: 1
Flags: W
LayerCount: 2
Fore
SplineSet
112 -31 m 1,0,-1
 112 745 l 1,1,-1
 888 745 l 1,2,-1
 888 -31 l 1,3,-1
 112 -31 l 1,0,-1
167 24 m 1,4,-1
 833 24 l 1,5,-1
 833 690 l 1,6,-1
 167 690 l 1,7,-1
 167 24 l 1,4,-1
218 146 m 1,8,-1
 218 574 l 1,9,-1
 299 574 l 1,10,-1
 370 290 l 2,11,12
 372 278 372 278 373 266.5 c 128,-1,13
 374 255 374 255 376 243 c 1,14,15
 378 255 378 255 379 266.5 c 128,-1,16
 380 278 380 278 382 290 c 2,17,-1
 455 574 l 1,18,-1
 535 574 l 1,19,-1
 535 146 l 1,20,-1
 475 146 l 1,21,-1
 475 401 l 2,22,23
 475 431 475 431 476 456 c 128,-1,24
 477 481 477 481 479 501 c 1,25,-1
 395 156 l 1,26,-1
 355 156 l 1,27,-1
 267 502 l 1,28,29
 271 480 271 480 273 455 c 128,-1,30
 275 430 275 430 275 402 c 2,31,-1
 275 146 l 1,32,-1
 218 146 l 1,8,-1
662 146 m 1,33,-1
 567 574 l 1,34,-1
 628 574 l 1,35,-1
 685 269 l 2,36,37
 687 256 687 256 688 244 c 128,-1,38
 689 232 689 232 690 220 c 1,39,40
 692 248 692 248 695.5 272 c 128,-1,41
 699 296 699 296 704 317 c 2,42,-1
 750 574 l 1,43,-1
 811 574 l 1,44,-1
 717 146 l 1,45,-1
 662 146 l 1,33,-1
EndSplineSet
EndChar

StartChar: N
Encoding: 48 78 168
Width: 760
GlyphClass: 2
Flags: W
LayerCount: 2
Fore
SplineSet
97 0 m 1,0,-1
 97 714 l 1,1,-1
 201 714 l 1,2,-1
 582 123 l 1,3,-1
 586 123 l 1,4,5
 585 139 585 139 583.5 171 c 128,-1,6
 582 203 582 203 580.5 241 c 128,-1,7
 579 279 579 279 579 311 c 2,8,-1
 579 714 l 1,9,-1
 663 714 l 1,10,-1
 663 0 l 1,11,-1
 558 0 l 1,12,-1
 176 593 l 1,13,-1
 172 593 l 1,14,15
 174 558 174 558 177 506 c 128,-1,16
 180 454 180 454 180 399 c 2,17,-1
 180 0 l 1,18,-1
 97 0 l 1,0,-1
EndSplineSet
EndChar

StartChar: N.001
Encoding: 1188 -1 169
Width: 668
GlyphClass: 1
Flags: W
LayerCount: 2
Fore
SplineSet
51 0 m 1,0,-1
 51 714 l 1,1,-1
 155 714 l 1,2,-1
 536 123 l 1,3,-1
 540 123 l 1,4,5
 539 139 539 139 537.5 171 c 128,-1,6
 536 203 536 203 534.5 241 c 128,-1,7
 533 279 533 279 533 311 c 2,8,-1
 533 714 l 1,9,-1
 617 714 l 1,10,-1
 617 0 l 1,11,-1
 512 0 l 1,12,-1
 130 593 l 1,13,-1
 126 593 l 1,14,15
 128 558 128 558 131 506 c 128,-1,16
 134 454 134 454 134 399 c 2,17,-1
 134 0 l 1,18,-1
 51 0 l 1,0,-1
EndSplineSet
EndChar

StartChar: u1F15D
Encoding: 920 127325 175
Width: 1000
GlyphClass: 1
Flags: W
LayerCount: 2
Fore
SplineSet
500 -55 m 0,0,1
 415 -55 415 -55 340 -23 c 128,-1,2
 265 9 265 9 208.5 65.5 c 128,-1,3
 152 122 152 122 120 197 c 128,-1,4
 88 272 88 272 88 357 c 256,5,6
 88 442 88 442 120 516.5 c 128,-1,7
 152 591 152 591 208.5 648 c 128,-1,8
 265 705 265 705 340 737 c 128,-1,9
 415 769 415 769 500 769 c 0,10,11
 586 769 586 769 660.5 737 c 128,-1,12
 735 705 735 705 791.5 648 c 128,-1,13
 848 591 848 591 880 516.5 c 128,-1,14
 912 442 912 442 912 357 c 256,15,16
 912 272 912 272 880 197 c 128,-1,17
 848 122 848 122 791.5 65.5 c 128,-1,18
 735 9 735 9 660.5 -23 c 128,-1,19
 586 -55 586 -55 500 -55 c 0,0,1
327 146 m 1,20,-1
 393 146 l 1,21,-1
 393 396 l 2,22,23
 393 416 393 416 392 436.5 c 128,-1,24
 391 457 391 457 391 477 c 1,25,-1
 378 497 l 1,26,-1
 390 493 l 1,27,28
 390 486 390 486 391 477 c 2,29,-1
 600 146 l 1,30,-1
 673 146 l 1,31,-1
 673 574 l 1,32,-1
 607 574 l 1,33,-1
 607 322 l 2,34,35
 607 303 607 303 608 283.5 c 128,-1,36
 609 264 609 264 609 244 c 1,37,-1
 621 225 l 1,38,-1
 609 229 l 1,39,40
 609 236 609 236 609 244 c 1,41,-1
 400 574 l 1,42,-1
 327 574 l 1,43,-1
 327 146 l 1,20,-1
EndSplineSet
EndChar

StartChar: u1F13D
Encoding: 888 127293 176
Width: 1000
GlyphClass: 1
Flags: W
LayerCount: 2
Fore
SplineSet
112 -31 m 1,0,-1
 112 745 l 1,1,-1
 888 745 l 1,2,-1
 888 -31 l 1,3,-1
 112 -31 l 1,0,-1
167 24 m 1,4,-1
 833 24 l 1,5,-1
 833 690 l 1,6,-1
 167 690 l 1,7,-1
 167 24 l 1,4,-1
327 146 m 1,8,-1
 327 574 l 1,9,-1
 400 574 l 1,10,-1
 609 244 l 1,11,12
 609 264 609 264 608 283.5 c 128,-1,13
 607 303 607 303 607 322 c 2,14,-1
 607 574 l 1,15,-1
 673 574 l 1,16,-1
 673 146 l 1,17,-1
 600 146 l 1,18,-1
 391 477 l 1,19,20
 391 457 391 457 392 436.5 c 128,-1,21
 393 416 393 416 393 396 c 2,22,-1
 393 146 l 1,23,-1
 327 146 l 1,8,-1
EndSplineSet
EndChar

StartChar: uni24C3
Encoding: 596 9411 177
Width: 1000
GlyphClass: 1
Flags: W
LayerCount: 2
Fore
SplineSet
500 -55 m 0,0,1
 415 -55 415 -55 340 -23 c 128,-1,2
 265 9 265 9 208.5 65.5 c 128,-1,3
 152 122 152 122 120 197 c 128,-1,4
 88 272 88 272 88 357 c 0,5,6
 88 443 88 443 120 517.5 c 128,-1,7
 152 592 152 592 208.5 648.5 c 128,-1,8
 265 705 265 705 340 737 c 128,-1,9
 415 769 415 769 500 769 c 0,10,11
 586 769 586 769 660.5 737 c 128,-1,12
 735 705 735 705 791.5 648.5 c 128,-1,13
 848 592 848 592 880 517.5 c 128,-1,14
 912 443 912 443 912 357 c 0,15,16
 912 272 912 272 880 197 c 128,-1,17
 848 122 848 122 791.5 65.5 c 128,-1,18
 735 9 735 9 660.5 -23 c 128,-1,19
 586 -55 586 -55 500 -55 c 0,0,1
500 1 m 256,20,21
 574 1 574 1 638.5 28.5 c 128,-1,22
 703 56 703 56 752 105 c 128,-1,23
 801 154 801 154 828.5 218.5 c 128,-1,24
 856 283 856 283 856 357 c 256,25,26
 856 431 856 431 828.5 495.5 c 128,-1,27
 801 560 801 560 752 609 c 128,-1,28
 703 658 703 658 638.5 685.5 c 128,-1,29
 574 713 574 713 500 713 c 256,30,31
 426 713 426 713 361.5 685.5 c 128,-1,32
 297 658 297 658 248 609 c 128,-1,33
 199 560 199 560 171.5 495.5 c 128,-1,34
 144 431 144 431 144 357 c 256,35,36
 144 283 144 283 171.5 218.5 c 128,-1,37
 199 154 199 154 248 105 c 128,-1,38
 297 56 297 56 361.5 28.5 c 128,-1,39
 426 1 426 1 500 1 c 256,20,21
327 146 m 1,40,-1
 327 574 l 1,41,-1
 400 574 l 1,42,-1
 609 244 l 1,43,44
 609 264 609 264 608 283.5 c 128,-1,45
 607 303 607 303 607 322 c 2,46,-1
 607 574 l 1,47,-1
 673 574 l 1,48,-1
 673 146 l 1,49,-1
 600 146 l 1,50,-1
 391 477 l 1,51,52
 391 457 391 457 392 436.5 c 128,-1,53
 393 416 393 416 393 396 c 2,54,-1
 393 146 l 1,55,-1
 327 146 l 1,40,-1
EndSplineSet
EndChar

StartChar: u1F11D
Encoding: 856 127261 178
Width: 1000
GlyphClass: 1
Flags: W
LayerCount: 2
Fore
SplineSet
731 -57 m 1,0,1
 859 124 859 124 859 352 c 0,2,3
 859 464 859 464 826.5 571 c 128,-1,4
 794 678 794 678 731 767 c 1,5,-1
 789 767 l 1,6,7
 922 598 922 598 922 351 c 0,8,9
 922 106 922 106 789 -57 c 1,10,-1
 731 -57 l 1,0,1
211 -57 m 1,11,12
 78 106 78 106 78 351 c 0,13,14
 78 598 78 598 211 767 c 1,15,-1
 269 767 l 1,16,17
 206 678 206 678 173.5 571 c 128,-1,18
 141 464 141 464 141 352 c 0,19,20
 141 124 141 124 269 -57 c 1,21,-1
 211 -57 l 1,11,12
327 146 m 1,22,-1
 327 574 l 1,23,-1
 400 574 l 1,24,-1
 609 244 l 1,25,26
 609 264 609 264 608 283.5 c 128,-1,27
 607 303 607 303 607 322 c 2,28,-1
 607 574 l 1,29,-1
 673 574 l 1,30,-1
 673 146 l 1,31,-1
 600 146 l 1,32,-1
 391 477 l 1,33,34
 391 457 391 457 392 436.5 c 128,-1,35
 393 416 393 416 393 396 c 2,36,-1
 393 146 l 1,37,-1
 327 146 l 1,22,-1
EndSplineSet
EndChar

StartChar: u1F17D
Encoding: 949 127357 179
Width: 1000
GlyphClass: 1
Flags: W
LayerCount: 2
Fore
SplineSet
208 -31 m 2,0,1
 112 -31 112 -31 112 65 c 2,2,-1
 112 649 l 2,3,4
 112 745 112 745 208 745 c 2,5,-1
 792 745 l 2,6,7
 888 745 888 745 888 649 c 2,8,-1
 888 65 l 2,9,10
 888 -31 888 -31 792 -31 c 2,11,-1
 208 -31 l 2,0,1
327 146 m 1,12,-1
 393 146 l 1,13,-1
 393 396 l 2,14,15
 393 416 393 416 392 436.5 c 128,-1,16
 391 457 391 457 391 477 c 1,17,-1
 378 497 l 1,18,-1
 390 493 l 1,19,20
 390 486 390 486 391 477 c 2,21,-1
 600 146 l 1,22,-1
 673 146 l 1,23,-1
 673 574 l 1,24,-1
 607 574 l 1,25,-1
 607 322 l 2,26,27
 607 303 607 303 608 283.5 c 128,-1,28
 609 264 609 264 609 244 c 1,29,-1
 621 225 l 1,30,-1
 609 229 l 1,31,32
 609 236 609 236 609 244 c 1,33,-1
 400 574 l 1,34,-1
 327 574 l 1,35,-1
 327 146 l 1,12,-1
EndSplineSet
EndChar

StartChar: uni2168
Encoding: 349 8552 181
Width: 925
GlyphClass: 1
Flags: W
LayerCount: 2
Fore
SplineSet
343 0 m 1,0,-1
 580 372 l 1,1,-1
 358 714 l 1,2,-1
 458 714 l 1,3,-1
 633 434 l 1,4,-1
 809 714 l 1,5,-1
 904 714 l 1,6,-1
 683 374 l 1,7,-1
 921 0 l 1,8,-1
 819 0 l 1,9,-1
 630 310 l 1,10,-1
 438 0 l 1,11,-1
 343 0 l 1,0,-1
40 0 m 1,12,-1
 40 52 l 1,13,-1
 124 71 l 1,14,-1
 124 642 l 1,15,-1
 40 662 l 1,16,-1
 40 714 l 1,17,-1
 298 714 l 1,18,-1
 298 662 l 1,19,-1
 214 642 l 1,20,-1
 214 71 l 1,21,-1
 298 52 l 1,22,-1
 298 0 l 1,23,-1
 40 0 l 1,12,-1
EndSplineSet
EndChar

StartChar: O
Encoding: 49 79 182
Width: 781
GlyphClass: 2
Flags: W
LayerCount: 2
Fore
SplineSet
391 -10 m 0,0,1
 280 -10 280 -10 206.5 36 c 128,-1,2
 133 82 133 82 97 165 c 128,-1,3
 61 248 61 248 61 359 c 0,4,5
 61 469 61 469 97 551 c 128,-1,6
 133 633 133 633 206.5 679 c 128,-1,7
 280 725 280 725 392 725 c 0,8,9
 499 725 499 725 572 679.5 c 128,-1,10
 645 634 645 634 682.5 551.5 c 128,-1,11
 720 469 720 469 720 358 c 256,12,13
 720 247 720 247 682.5 164.5 c 128,-1,14
 645 82 645 82 572 36 c 128,-1,15
 499 -10 499 -10 391 -10 c 0,0,1
391 68 m 0,16,17
 513 68 513 68 569 145.5 c 128,-1,18
 625 223 625 223 625 358 c 256,19,20
 625 493 625 493 569 569.5 c 128,-1,21
 513 646 513 646 392 646 c 256,22,23
 271 646 271 646 213.5 569.5 c 128,-1,24
 156 493 156 493 156 358 c 256,25,26
 156 223 156 223 213 145.5 c 128,-1,27
 270 68 270 68 391 68 c 0,16,17
EndSplineSet
Substitution2: "Podtablica Podstawienie pojedyncze w tablicy 12" ordmasculine
EndChar

StartChar: O.001
Encoding: 1194 -1 183
Width: 761
GlyphClass: 1
Flags: W
LayerCount: 2
Fore
SplineSet
381 -10 m 0,0,1
 270 -10 270 -10 196.5 36 c 128,-1,2
 123 82 123 82 87 165 c 128,-1,3
 51 248 51 248 51 359 c 0,4,5
 51 469 51 469 87 551 c 128,-1,6
 123 633 123 633 196.5 679 c 128,-1,7
 270 725 270 725 382 725 c 0,8,9
 489 725 489 725 562 679.5 c 128,-1,10
 635 634 635 634 672.5 551.5 c 128,-1,11
 710 469 710 469 710 358 c 256,12,13
 710 247 710 247 672.5 164.5 c 128,-1,14
 635 82 635 82 562 36 c 128,-1,15
 489 -10 489 -10 381 -10 c 0,0,1
381 68 m 0,16,17
 503 68 503 68 559 145.5 c 128,-1,18
 615 223 615 223 615 358 c 256,19,20
 615 493 615 493 559 569.5 c 128,-1,21
 503 646 503 646 382 646 c 256,22,23
 261 646 261 646 203.5 569.5 c 128,-1,24
 146 493 146 493 146 358 c 256,25,26
 146 223 146 223 203 145.5 c 128,-1,27
 260 68 260 68 381 68 c 0,16,17
EndSplineSet
EndChar

StartChar: u1F15E
Encoding: 921 127326 189
Width: 1000
GlyphClass: 1
Flags: W
LayerCount: 2
Fore
SplineSet
500 -55 m 0,0,1
 415 -55 415 -55 340 -23 c 128,-1,2
 265 9 265 9 208.5 65.5 c 128,-1,3
 152 122 152 122 120 197 c 128,-1,4
 88 272 88 272 88 357 c 256,5,6
 88 442 88 442 120 516.5 c 128,-1,7
 152 591 152 591 208.5 648 c 128,-1,8
 265 705 265 705 340 737 c 128,-1,9
 415 769 415 769 500 769 c 0,10,11
 586 769 586 769 660.5 737 c 128,-1,12
 735 705 735 705 791.5 648 c 128,-1,13
 848 591 848 591 880 516.5 c 128,-1,14
 912 442 912 442 912 357 c 256,15,16
 912 272 912 272 880 197 c 128,-1,17
 848 122 848 122 791.5 65.5 c 128,-1,18
 735 9 735 9 660.5 -23 c 128,-1,19
 586 -55 586 -55 500 -55 c 0,0,1
499 135 m 0,20,21
 597 135 597 135 651 195 c 128,-1,22
 705 255 705 255 705 361 c 256,23,24
 705 467 705 467 650 526.5 c 128,-1,25
 595 586 595 586 500 586 c 0,26,27
 401 586 401 586 347 527.5 c 128,-1,28
 293 469 293 469 293 361 c 0,29,30
 293 254 293 254 346.5 194.5 c 128,-1,31
 400 135 400 135 499 135 c 0,20,21
499 189 m 0,32,33
 432 189 432 189 399 237 c 128,-1,34
 366 285 366 285 366 361 c 0,35,36
 366 436 366 436 398.5 484 c 128,-1,37
 431 532 431 532 500 532 c 256,38,39
 569 532 569 532 601 484 c 128,-1,40
 633 436 633 436 633 361 c 0,41,42
 633 278 633 278 597 233.5 c 128,-1,43
 561 189 561 189 499 189 c 0,32,33
EndSplineSet
EndChar

StartChar: u1F13E
Encoding: 889 127294 190
Width: 1000
GlyphClass: 1
Flags: W
LayerCount: 2
Fore
SplineSet
112 -31 m 1,0,-1
 112 745 l 1,1,-1
 888 745 l 1,2,-1
 888 -31 l 1,3,-1
 112 -31 l 1,0,-1
167 24 m 1,4,-1
 833 24 l 1,5,-1
 833 690 l 1,6,-1
 167 690 l 1,7,-1
 167 24 l 1,4,-1
499 135 m 0,8,9
 400 135 400 135 346.5 194.5 c 128,-1,10
 293 254 293 254 293 361 c 0,11,12
 293 469 293 469 347 527.5 c 128,-1,13
 401 586 401 586 500 586 c 0,14,15
 595 586 595 586 650 526.5 c 128,-1,16
 705 467 705 467 705 361 c 256,17,18
 705 255 705 255 651 195 c 128,-1,19
 597 135 597 135 499 135 c 0,8,9
499 189 m 0,20,21
 561 189 561 189 597 233.5 c 128,-1,22
 633 278 633 278 633 361 c 0,23,24
 633 436 633 436 601 484 c 128,-1,25
 569 532 569 532 500 532 c 256,26,27
 431 532 431 532 398.5 484 c 128,-1,28
 366 436 366 436 366 361 c 0,29,30
 366 285 366 285 399 237 c 128,-1,31
 432 189 432 189 499 189 c 0,20,21
EndSplineSet
EndChar

StartChar: uni24C4
Encoding: 597 9412 191
Width: 1000
GlyphClass: 1
Flags: W
LayerCount: 2
Fore
SplineSet
500 -55 m 0,0,1
 415 -55 415 -55 340 -23 c 128,-1,2
 265 9 265 9 208.5 65.5 c 128,-1,3
 152 122 152 122 120 197 c 128,-1,4
 88 272 88 272 88 357 c 0,5,6
 88 443 88 443 120 517.5 c 128,-1,7
 152 592 152 592 208.5 648.5 c 128,-1,8
 265 705 265 705 340 737 c 128,-1,9
 415 769 415 769 500 769 c 0,10,11
 586 769 586 769 660.5 737 c 128,-1,12
 735 705 735 705 791.5 648.5 c 128,-1,13
 848 592 848 592 880 517.5 c 128,-1,14
 912 443 912 443 912 357 c 0,15,16
 912 272 912 272 880 197 c 128,-1,17
 848 122 848 122 791.5 65.5 c 128,-1,18
 735 9 735 9 660.5 -23 c 128,-1,19
 586 -55 586 -55 500 -55 c 0,0,1
500 1 m 256,20,21
 574 1 574 1 638.5 28.5 c 128,-1,22
 703 56 703 56 752 105 c 128,-1,23
 801 154 801 154 828.5 218.5 c 128,-1,24
 856 283 856 283 856 357 c 256,25,26
 856 431 856 431 828.5 495.5 c 128,-1,27
 801 560 801 560 752 609 c 128,-1,28
 703 658 703 658 638.5 685.5 c 128,-1,29
 574 713 574 713 500 713 c 256,30,31
 426 713 426 713 361.5 685.5 c 128,-1,32
 297 658 297 658 248 609 c 128,-1,33
 199 560 199 560 171.5 495.5 c 128,-1,34
 144 431 144 431 144 357 c 256,35,36
 144 283 144 283 171.5 218.5 c 128,-1,37
 199 154 199 154 248 105 c 128,-1,38
 297 56 297 56 361.5 28.5 c 128,-1,39
 426 1 426 1 500 1 c 256,20,21
499 135 m 0,40,41
 400 135 400 135 346.5 194.5 c 128,-1,42
 293 254 293 254 293 361 c 0,43,44
 293 469 293 469 347 527.5 c 128,-1,45
 401 586 401 586 500 586 c 0,46,47
 595 586 595 586 650 526.5 c 128,-1,48
 705 467 705 467 705 361 c 0,49,50
 705 256 705 256 650.5 195.5 c 128,-1,51
 596 135 596 135 499 135 c 0,40,41
499 189 m 0,52,53
 562 189 562 189 597.5 233.5 c 128,-1,54
 633 278 633 278 633 361 c 0,55,56
 633 436 633 436 601 484 c 128,-1,57
 569 532 569 532 500 532 c 256,58,59
 431 532 431 532 398.5 484 c 128,-1,60
 366 436 366 436 366 361 c 0,61,62
 366 285 366 285 399 237 c 128,-1,63
 432 189 432 189 499 189 c 0,52,53
EndSplineSet
EndChar

StartChar: u1F11E
Encoding: 857 127262 192
Width: 1000
GlyphClass: 1
Flags: W
LayerCount: 2
Fore
SplineSet
731 -57 m 1,0,1
 859 124 859 124 859 352 c 0,2,3
 859 464 859 464 826.5 571 c 128,-1,4
 794 678 794 678 731 767 c 1,5,-1
 789 767 l 1,6,7
 922 598 922 598 922 351 c 0,8,9
 922 106 922 106 789 -57 c 1,10,-1
 731 -57 l 1,0,1
211 -57 m 1,11,12
 78 106 78 106 78 351 c 0,13,14
 78 598 78 598 211 767 c 1,15,-1
 269 767 l 1,16,17
 206 678 206 678 173.5 571 c 128,-1,18
 141 464 141 464 141 352 c 0,19,20
 141 124 141 124 269 -57 c 1,21,-1
 211 -57 l 1,11,12
500 135 m 0,22,23
 401 135 401 135 347.5 194.5 c 128,-1,24
 294 254 294 254 294 361 c 0,25,26
 294 469 294 469 348 527.5 c 128,-1,27
 402 586 402 586 501 586 c 0,28,29
 596 586 596 586 651 526.5 c 128,-1,30
 706 467 706 467 706 361 c 0,31,32
 706 256 706 256 651.5 195.5 c 128,-1,33
 597 135 597 135 500 135 c 0,22,23
500 189 m 0,34,35
 563 189 563 189 598.5 233.5 c 128,-1,36
 634 278 634 278 634 361 c 0,37,38
 634 436 634 436 602 484 c 128,-1,39
 570 532 570 532 501 532 c 256,40,41
 432 532 432 532 399.5 484 c 128,-1,42
 367 436 367 436 367 361 c 0,43,44
 367 285 367 285 400 237 c 128,-1,45
 433 189 433 189 500 189 c 0,34,35
EndSplineSet
EndChar

StartChar: u1F17E
Encoding: 950 127358 193
Width: 1000
GlyphClass: 1
Flags: W
LayerCount: 2
Fore
SplineSet
208 -31 m 2,0,1
 112 -31 112 -31 112 65 c 2,2,-1
 112 649 l 2,3,4
 112 745 112 745 208 745 c 2,5,-1
 792 745 l 2,6,7
 888 745 888 745 888 649 c 2,8,-1
 888 65 l 2,9,10
 888 -31 888 -31 792 -31 c 2,11,-1
 208 -31 l 2,0,1
499 135 m 0,12,13
 597 135 597 135 651 195 c 128,-1,14
 705 255 705 255 705 361 c 256,15,16
 705 467 705 467 650 526.5 c 128,-1,17
 595 586 595 586 500 586 c 0,18,19
 401 586 401 586 347 527.5 c 128,-1,20
 293 469 293 469 293 361 c 0,21,22
 293 254 293 254 346.5 194.5 c 128,-1,23
 400 135 400 135 499 135 c 0,12,13
499 189 m 0,24,25
 432 189 432 189 399 237 c 128,-1,26
 366 285 366 285 366 361 c 0,27,28
 366 436 366 436 398.5 484 c 128,-1,29
 431 532 431 532 500 532 c 256,30,31
 569 532 569 532 601 484 c 128,-1,32
 633 436 633 436 633 361 c 0,33,34
 633 278 633 278 597 233.5 c 128,-1,35
 561 189 561 189 499 189 c 0,24,25
EndSplineSet
EndChar

StartChar: uni2160
Encoding: 341 8544 194
Width: 339
GlyphClass: 1
Flags: W
LayerCount: 2
Fore
SplineSet
40 0 m 1,0,-1
 40 52 l 1,1,-1
 124 71 l 1,2,-1
 124 642 l 1,3,-1
 40 662 l 1,4,-1
 40 714 l 1,5,-1
 298 714 l 1,6,-1
 298 662 l 1,7,-1
 214 642 l 1,8,-1
 214 71 l 1,9,-1
 298 52 l 1,10,-1
 298 0 l 1,11,-1
 40 0 l 1,0,-1
EndSplineSet
EndChar

StartChar: uni2183
Encoding: 376 8579 195
Width: 642
GlyphClass: 1
Flags: W
LayerCount: 2
Fore
SplineSet
257 -20 m 0,0,1
 196 -20 196 -20 152 -13 c 128,-1,2
 108 -6 108 -6 67 10 c 1,3,-1
 67 94 l 1,4,5
 110 81 110 81 152.5 73 c 128,-1,6
 195 65 195 65 242 65 c 0,7,8
 320 65 320 65 377 100.5 c 128,-1,9
 434 136 434 136 464.5 202 c 128,-1,10
 495 268 495 268 495 359 c 0,11,12
 495 495 495 495 431.5 574 c 128,-1,13
 368 653 368 653 242 653 c 0,14,15
 193 653 193 653 152 641 c 128,-1,16
 111 629 111 629 76 613 c 1,17,-1
 38 694 l 1,18,19
 79 715 79 715 134.5 726.5 c 128,-1,20
 190 738 190 738 257 738 c 0,21,22
 370 738 370 738 445.5 691.5 c 128,-1,23
 521 645 521 645 558.5 559.5 c 128,-1,24
 596 474 596 474 596 358 c 0,25,26
 596 246 596 246 555.5 161 c 128,-1,27
 515 76 515 76 439.5 28 c 128,-1,28
 364 -20 364 -20 257 -20 c 0,0,1
EndSplineSet
EndChar

StartChar: uni2188
Encoding: 380 8584 196
Width: 1162
GlyphClass: 1
Flags: W
LayerCount: 2
Fore
SplineSet
423 0 m 2,0,1
 246 0 246 0 147 92.5 c 128,-1,2
 48 185 48 185 48 367 c 0,3,4
 48 482 48 482 91.5 560.5 c 128,-1,5
 135 639 135 639 214.5 679 c 128,-1,6
 294 719 294 719 402 719 c 2,7,-1
 760 719 l 2,8,9
 868 719 868 719 947.5 679 c 128,-1,10
 1027 639 1027 639 1070.5 560.5 c 128,-1,11
 1114 482 1114 482 1114 367 c 0,12,13
 1114 185 1114 185 1015 92.5 c 128,-1,14
 916 0 916 0 739 0 c 2,15,-1
 423 0 l 2,0,1
431 87 m 2,16,-1
 532 87 l 1,17,-1
 532 115 l 1,18,-1
 458 115 l 2,19,20
 337 115 337 115 270 178 c 128,-1,21
 203 241 203 241 203 365 c 0,22,23
 203 482 203 482 268 543 c 128,-1,24
 333 604 333 604 444 604 c 2,25,-1
 532 604 l 1,26,-1
 532 632 l 1,27,-1
 412 632 l 2,28,29
 287 632 287 632 218 567 c 128,-1,30
 149 502 149 502 149 364 c 0,31,32
 149 87 149 87 431 87 c 2,16,-1
630 87 m 1,33,-1
 731 87 l 2,34,35
 1013 87 1013 87 1013 364 c 0,36,37
 1013 502 1013 502 944 567 c 128,-1,38
 875 632 875 632 750 632 c 2,39,-1
 630 632 l 1,40,-1
 630 604 l 1,41,-1
 718 604 l 2,42,43
 829 604 829 604 894 543 c 128,-1,44
 959 482 959 482 959 365 c 0,45,46
 959 241 959 241 892 178 c 128,-1,47
 825 115 825 115 704 115 c 2,48,-1
 630 115 l 1,49,-1
 630 87 l 1,33,-1
468 174 m 2,50,-1
 532 174 l 1,51,-1
 532 205 l 1,52,-1
 485 205 l 2,53,54
 409 205 409 205 366.5 244.5 c 128,-1,55
 324 284 324 284 324 363 c 0,56,57
 324 437 324 437 365.5 475.5 c 128,-1,58
 407 514 407 514 477 514 c 2,59,-1
 532 514 l 1,60,-1
 532 545 l 1,61,-1
 455 545 l 2,62,63
 370 545 370 545 323 501 c 128,-1,64
 276 457 276 457 276 363 c 0,65,66
 276 174 276 174 468 174 c 2,50,-1
630 174 m 1,67,-1
 694 174 l 2,68,69
 886 174 886 174 886 363 c 0,70,71
 886 457 886 457 839.5 501 c 128,-1,72
 793 545 793 545 707 545 c 2,73,-1
 630 545 l 1,74,-1
 630 514 l 1,75,-1
 686 514 l 2,76,77
 756 514 756 514 797 475.5 c 128,-1,78
 838 437 838 437 838 363 c 0,79,80
 838 284 838 284 795.5 244.5 c 128,-1,81
 753 205 753 205 677 205 c 2,82,-1
 630 205 l 1,83,-1
 630 174 l 1,67,-1
508 243 m 2,84,-1
 532 243 l 1,85,-1
 532 477 l 1,86,-1
 500 477 l 2,87,88
 446 477 446 477 416.5 449 c 128,-1,89
 387 421 387 421 387 361 c 0,90,91
 387 243 387 243 508 243 c 2,84,-1
630 243 m 1,92,-1
 654 243 l 2,93,94
 775 243 775 243 775 361 c 0,95,96
 775 421 775 421 745.5 449 c 128,-1,97
 716 477 716 477 662 477 c 2,98,-1
 630 477 l 1,99,-1
 630 243 l 1,92,-1
EndSplineSet
EndChar

StartChar: uni2180
Encoding: 373 8576 197
Width: 1161
GlyphClass: 1
Flags: W
LayerCount: 2
Fore
SplineSet
423 0 m 2,0,1
 246 0 246 0 147 92.5 c 128,-1,2
 48 185 48 185 48 367 c 0,3,4
 48 482 48 482 91.5 560.5 c 128,-1,5
 135 639 135 639 214.5 679 c 128,-1,6
 294 719 294 719 402 719 c 2,7,-1
 759 719 l 2,8,9
 867 719 867 719 946.5 679 c 128,-1,10
 1026 639 1026 639 1069.5 560.5 c 128,-1,11
 1113 482 1113 482 1113 367 c 0,12,13
 1113 185 1113 185 1014 92.5 c 128,-1,14
 915 0 915 0 738 0 c 2,15,-1
 423 0 l 2,0,1
431 87 m 2,16,-1
 532 87 l 1,17,-1
 532 632 l 1,18,-1
 412 632 l 2,19,20
 287 632 287 632 218 567 c 128,-1,21
 149 502 149 502 149 364 c 0,22,23
 149 87 149 87 431 87 c 2,16,-1
629 87 m 1,24,-1
 730 87 l 2,25,26
 1012 87 1012 87 1012 364 c 0,27,28
 1012 502 1012 502 943.5 567 c 128,-1,29
 875 632 875 632 749 632 c 2,30,-1
 629 632 l 1,31,-1
 629 87 l 1,24,-1
EndSplineSet
EndChar

StartChar: P
Encoding: 50 80 198
Width: 605
GlyphClass: 2
Flags: W
LayerCount: 2
Fore
SplineSet
97 0 m 1,0,-1
 97 714 l 1,1,-1
 286 714 l 2,2,3
 426 714 426 714 490 659 c 128,-1,4
 554 604 554 604 554 504 c 0,5,6
 554 445 554 445 527.5 393.5 c 128,-1,7
 501 342 501 342 438.5 310 c 128,-1,8
 376 278 376 278 269 278 c 2,9,-1
 187 278 l 1,10,-1
 187 0 l 1,11,-1
 97 0 l 1,0,-1
187 355 m 1,12,-1
 259 355 l 2,13,14
 361 355 361 355 411 388 c 128,-1,15
 461 421 461 421 461 500 c 0,16,17
 461 569 461 569 417 603 c 128,-1,18
 373 637 373 637 278 637 c 2,19,-1
 187 637 l 1,20,-1
 187 355 l 1,12,-1
EndSplineSet
EndChar

StartChar: P.001
Encoding: 1200 -1 199
Width: 559
GlyphClass: 1
Flags: W
LayerCount: 2
Fore
SplineSet
51 0 m 1,0,-1
 51 714 l 1,1,-1
 240 714 l 2,2,3
 380 714 380 714 444 659 c 128,-1,4
 508 604 508 604 508 504 c 0,5,6
 508 445 508 445 481.5 393.5 c 128,-1,7
 455 342 455 342 392.5 310 c 128,-1,8
 330 278 330 278 223 278 c 2,9,-1
 141 278 l 1,10,-1
 141 0 l 1,11,-1
 51 0 l 1,0,-1
141 355 m 1,12,-1
 213 355 l 2,13,14
 315 355 315 355 365 388 c 128,-1,15
 415 421 415 421 415 500 c 0,16,17
 415 569 415 569 371 603 c 128,-1,18
 327 637 327 637 232 637 c 2,19,-1
 141 637 l 1,20,-1
 141 355 l 1,12,-1
EndSplineSet
EndChar

StartChar: u1F15F
Encoding: 922 127327 205
Width: 1000
GlyphClass: 1
Flags: W
LayerCount: 2
Fore
SplineSet
500 -55 m 0,0,1
 415 -55 415 -55 340 -23 c 128,-1,2
 265 9 265 9 208.5 65.5 c 128,-1,3
 152 122 152 122 120 197 c 128,-1,4
 88 272 88 272 88 357 c 256,5,6
 88 442 88 442 120 516.5 c 128,-1,7
 152 591 152 591 208.5 648 c 128,-1,8
 265 705 265 705 340 737 c 128,-1,9
 415 769 415 769 500 769 c 0,10,11
 586 769 586 769 660.5 737 c 128,-1,12
 735 705 735 705 791.5 648 c 128,-1,13
 848 591 848 591 880 516.5 c 128,-1,14
 912 442 912 442 912 357 c 256,15,16
 912 272 912 272 880 197 c 128,-1,17
 848 122 848 122 791.5 65.5 c 128,-1,18
 735 9 735 9 660.5 -23 c 128,-1,19
 586 -55 586 -55 500 -55 c 0,0,1
386 145 m 1,20,-1
 455 145 l 1,21,-1
 455 307 l 1,22,-1
 495 307 l 2,23,24
 674 307 674 307 674 444 c 0,25,26
 674 574 674 574 506 574 c 2,27,-1
 386 574 l 1,28,-1
 386 145 l 1,20,-1
455 361 m 1,29,-1
 455 519 l 1,30,-1
 501 519 l 2,31,32
 601 519 601 519 601 442 c 0,33,34
 601 400 601 400 577 380.5 c 128,-1,35
 553 361 553 361 489 361 c 2,36,-1
 455 361 l 1,29,-1
EndSplineSet
EndChar

StartChar: u1F13F
Encoding: 890 127295 206
Width: 1000
GlyphClass: 1
Flags: W
LayerCount: 2
Fore
SplineSet
112 -31 m 1,0,-1
 112 745 l 1,1,-1
 888 745 l 1,2,-1
 888 -31 l 1,3,-1
 112 -31 l 1,0,-1
167 24 m 1,4,-1
 833 24 l 1,5,-1
 833 690 l 1,6,-1
 167 690 l 1,7,-1
 167 24 l 1,4,-1
386 145 m 1,8,-1
 386 574 l 1,9,-1
 506 574 l 2,10,11
 674 574 674 574 674 444 c 0,12,13
 674 307 674 307 495 307 c 2,14,-1
 455 307 l 1,15,-1
 455 145 l 1,16,-1
 386 145 l 1,8,-1
455 361 m 1,17,-1
 489 361 l 2,18,19
 553 361 553 361 577 380.5 c 128,-1,20
 601 400 601 400 601 442 c 0,21,22
 601 519 601 519 501 519 c 2,23,-1
 455 519 l 1,24,-1
 455 361 l 1,17,-1
EndSplineSet
EndChar

StartChar: uni24C5
Encoding: 598 9413 207
Width: 1000
GlyphClass: 1
Flags: W
LayerCount: 2
Fore
SplineSet
500 -55 m 0,0,1
 415 -55 415 -55 340 -23 c 128,-1,2
 265 9 265 9 208.5 65.5 c 128,-1,3
 152 122 152 122 120 197 c 128,-1,4
 88 272 88 272 88 357 c 0,5,6
 88 443 88 443 120 517.5 c 128,-1,7
 152 592 152 592 208.5 648.5 c 128,-1,8
 265 705 265 705 340 737 c 128,-1,9
 415 769 415 769 500 769 c 0,10,11
 586 769 586 769 660.5 737 c 128,-1,12
 735 705 735 705 791.5 648.5 c 128,-1,13
 848 592 848 592 880 517.5 c 128,-1,14
 912 443 912 443 912 357 c 0,15,16
 912 272 912 272 880 197 c 128,-1,17
 848 122 848 122 791.5 65.5 c 128,-1,18
 735 9 735 9 660.5 -23 c 128,-1,19
 586 -55 586 -55 500 -55 c 0,0,1
500 1 m 256,20,21
 574 1 574 1 638.5 28.5 c 128,-1,22
 703 56 703 56 752 105 c 128,-1,23
 801 154 801 154 828.5 218.5 c 128,-1,24
 856 283 856 283 856 357 c 256,25,26
 856 431 856 431 828.5 495.5 c 128,-1,27
 801 560 801 560 752 609 c 128,-1,28
 703 658 703 658 638.5 685.5 c 128,-1,29
 574 713 574 713 500 713 c 256,30,31
 426 713 426 713 361.5 685.5 c 128,-1,32
 297 658 297 658 248 609 c 128,-1,33
 199 560 199 560 171.5 495.5 c 128,-1,34
 144 431 144 431 144 357 c 256,35,36
 144 283 144 283 171.5 218.5 c 128,-1,37
 199 154 199 154 248 105 c 128,-1,38
 297 56 297 56 361.5 28.5 c 128,-1,39
 426 1 426 1 500 1 c 256,20,21
386 145 m 1,40,-1
 386 574 l 1,41,-1
 506 574 l 2,42,43
 674 574 674 574 674 444 c 0,44,45
 674 307 674 307 495 307 c 2,46,-1
 455 307 l 1,47,-1
 455 145 l 1,48,-1
 386 145 l 1,40,-1
455 361 m 1,49,-1
 489 361 l 2,50,51
 552 361 552 361 576.5 380.5 c 128,-1,52
 601 400 601 400 601 442 c 0,53,54
 601 519 601 519 501 519 c 2,55,-1
 455 519 l 1,56,-1
 455 361 l 1,49,-1
EndSplineSet
EndChar

StartChar: u1F11F
Encoding: 858 127263 208
Width: 1000
GlyphClass: 1
Flags: W
LayerCount: 2
Fore
SplineSet
731 -57 m 1,0,1
 859 124 859 124 859 352 c 0,2,3
 859 464 859 464 826.5 571 c 128,-1,4
 794 678 794 678 731 767 c 1,5,-1
 789 767 l 1,6,7
 922 598 922 598 922 351 c 0,8,9
 922 106 922 106 789 -57 c 1,10,-1
 731 -57 l 1,0,1
211 -57 m 1,11,12
 78 106 78 106 78 351 c 0,13,14
 78 598 78 598 211 767 c 1,15,-1
 269 767 l 1,16,17
 206 678 206 678 173.5 571 c 128,-1,18
 141 464 141 464 141 352 c 0,19,20
 141 124 141 124 269 -57 c 1,21,-1
 211 -57 l 1,11,12
386 145 m 1,22,-1
 386 574 l 1,23,-1
 506 574 l 2,24,25
 674 574 674 574 674 444 c 0,26,27
 674 307 674 307 495 307 c 2,28,-1
 455 307 l 1,29,-1
 455 145 l 1,30,-1
 386 145 l 1,22,-1
455 361 m 1,31,-1
 489 361 l 2,32,33
 552 361 552 361 576.5 380.5 c 128,-1,34
 601 400 601 400 601 442 c 0,35,36
 601 519 601 519 501 519 c 2,37,-1
 455 519 l 1,38,-1
 455 361 l 1,31,-1
EndSplineSet
EndChar

StartChar: u1F17F
Encoding: 951 127359 209
Width: 1000
GlyphClass: 1
Flags: W
LayerCount: 2
Fore
SplineSet
208 -31 m 2,0,1
 112 -31 112 -31 112 65 c 2,2,-1
 112 649 l 2,3,4
 112 745 112 745 208 745 c 2,5,-1
 792 745 l 2,6,7
 888 745 888 745 888 649 c 2,8,-1
 888 65 l 2,9,10
 888 -31 888 -31 792 -31 c 2,11,-1
 208 -31 l 2,0,1
386 145 m 1,12,-1
 455 145 l 1,13,-1
 455 307 l 1,14,-1
 495 307 l 2,15,16
 674 307 674 307 674 444 c 0,17,18
 674 574 674 574 506 574 c 2,19,-1
 386 574 l 1,20,-1
 386 145 l 1,12,-1
455 361 m 1,21,-1
 455 519 l 1,22,-1
 501 519 l 2,23,24
 601 519 601 519 601 442 c 0,25,26
 601 400 601 400 577 380.5 c 128,-1,27
 553 361 553 361 489 361 c 2,28,-1
 455 361 l 1,21,-1
EndSplineSet
EndChar

StartChar: u1F14E
Encoding: 905 127310 210
Width: 1000
GlyphClass: 1
Flags: W
LayerCount: 2
Fore
SplineSet
112 -31 m 1,0,-1
 112 745 l 1,1,-1
 888 745 l 1,2,-1
 888 -31 l 1,3,-1
 112 -31 l 1,0,-1
167 24 m 1,4,-1
 833 24 l 1,5,-1
 833 690 l 1,6,-1
 167 690 l 1,7,-1
 167 24 l 1,4,-1
674 147 m 1,8,-1
 603 574 l 1,9,-1
 664 574 l 1,10,-1
 695 317 l 2,11,12
 700 281 700 281 701 256.5 c 128,-1,13
 702 232 702 232 703 220 c 1,14,15
 705 250 705 250 708 274 c 128,-1,16
 711 298 711 298 714 317 c 2,17,-1
 756 574 l 1,18,-1
 817 574 l 1,19,-1
 729 147 l 1,20,-1
 674 147 l 1,8,-1
202 146 m 1,21,-1
 202 574 l 1,22,-1
 288 574 l 2,23,24
 339 574 339 574 363.5 543.5 c 128,-1,25
 388 513 388 513 388 444 c 0,26,27
 388 308 388 308 281 308 c 2,28,-1
 256 308 l 1,29,-1
 256 146 l 1,30,-1
 202 146 l 1,21,-1
410 146 m 1,31,-1
 410 574 l 1,32,-1
 496 574 l 2,33,34
 547 574 547 574 571.5 543.5 c 128,-1,35
 596 513 596 513 596 444 c 0,36,37
 596 372 596 372 569 340 c 128,-1,38
 542 308 542 308 489 308 c 2,39,-1
 464 308 l 1,40,-1
 464 146 l 1,41,-1
 410 146 l 1,31,-1
256 361 m 1,42,-1
 277 361 l 2,43,44
 309 361 309 361 320 383 c 128,-1,45
 331 405 331 405 331 442 c 0,46,47
 331 521 331 521 285 521 c 2,48,-1
 256 521 l 1,49,-1
 256 361 l 1,42,-1
464 361 m 1,50,-1
 485 361 l 2,51,52
 540 361 540 361 540 442 c 0,53,54
 540 521 540 521 493 521 c 2,55,-1
 464 521 l 1,56,-1
 464 361 l 1,50,-1
EndSplineSet
EndChar

StartChar: Q
Encoding: 51 81 211
Width: 781
GlyphClass: 2
Flags: W
LayerCount: 2
Fore
SplineSet
554 -170 m 1,0,-1
 416 -9 l 1,1,2
 410 -9 410 -9 403.5 -9.5 c 128,-1,3
 397 -10 397 -10 391 -10 c 0,4,5
 280 -10 280 -10 206.5 36 c 128,-1,6
 133 82 133 82 97 165 c 128,-1,7
 61 248 61 248 61 359 c 0,8,9
 61 469 61 469 97 551 c 128,-1,10
 133 633 133 633 206.5 679 c 128,-1,11
 280 725 280 725 392 725 c 0,12,13
 499 725 499 725 572 679.5 c 128,-1,14
 645 634 645 634 682.5 551.5 c 128,-1,15
 720 469 720 469 720 358 c 0,16,17
 720 227 720 227 667.5 135 c 128,-1,18
 615 43 615 43 512 8 c 1,19,-1
 683 -170 l 1,20,-1
 554 -170 l 1,0,-1
391 68 m 0,21,22
 513 68 513 68 569 145.5 c 128,-1,23
 625 223 625 223 625 358 c 256,24,25
 625 493 625 493 569 569.5 c 128,-1,26
 513 646 513 646 392 646 c 256,27,28
 271 646 271 646 213.5 569.5 c 128,-1,29
 156 493 156 493 156 358 c 256,30,31
 156 223 156 223 213 145.5 c 128,-1,32
 270 68 270 68 391 68 c 0,21,22
EndSplineSet
EndChar

StartChar: Q.001
Encoding: 1206 -1 212
Width: 761
GlyphClass: 1
Flags: W
LayerCount: 2
Fore
SplineSet
544 -170 m 1,0,-1
 406 -9 l 1,1,2
 400 -9 400 -9 393.5 -9.5 c 128,-1,3
 387 -10 387 -10 381 -10 c 0,4,5
 270 -10 270 -10 196.5 36 c 128,-1,6
 123 82 123 82 87 165 c 128,-1,7
 51 248 51 248 51 359 c 0,8,9
 51 469 51 469 87 551 c 128,-1,10
 123 633 123 633 196.5 679 c 128,-1,11
 270 725 270 725 382 725 c 0,12,13
 489 725 489 725 562 679.5 c 128,-1,14
 635 634 635 634 672.5 551.5 c 128,-1,15
 710 469 710 469 710 358 c 0,16,17
 710 227 710 227 657.5 135 c 128,-1,18
 605 43 605 43 502 8 c 1,19,-1
 673 -170 l 1,20,-1
 544 -170 l 1,0,-1
381 68 m 0,21,22
 503 68 503 68 559 145.5 c 128,-1,23
 615 223 615 223 615 358 c 256,24,25
 615 493 615 493 559 569.5 c 128,-1,26
 503 646 503 646 382 646 c 256,27,28
 261 646 261 646 203.5 569.5 c 128,-1,29
 146 493 146 493 146 358 c 256,30,31
 146 223 146 223 203 145.5 c 128,-1,32
 260 68 260 68 381 68 c 0,21,22
EndSplineSet
EndChar

StartChar: u1F160
Encoding: 923 127328 218
Width: 1000
GlyphClass: 1
Flags: W
LayerCount: 2
Fore
SplineSet
500 -55 m 0,0,1
 415 -55 415 -55 340 -23 c 128,-1,2
 265 9 265 9 208.5 65.5 c 128,-1,3
 152 122 152 122 120 197 c 128,-1,4
 88 272 88 272 88 357 c 256,5,6
 88 442 88 442 120 516.5 c 128,-1,7
 152 591 152 591 208.5 648 c 128,-1,8
 265 705 265 705 340 737 c 128,-1,9
 415 769 415 769 500 769 c 0,10,11
 586 769 586 769 660.5 737 c 128,-1,12
 735 705 735 705 791.5 648 c 128,-1,13
 848 591 848 591 880 516.5 c 128,-1,14
 912 442 912 442 912 357 c 256,15,16
 912 272 912 272 880 197 c 128,-1,17
 848 122 848 122 791.5 65.5 c 128,-1,18
 735 9 735 9 660.5 -23 c 128,-1,19
 586 -55 586 -55 500 -55 c 0,0,1
589 65 m 1,20,-1
 671 65 l 1,21,-1
 585 150 l 1,22,23
 645 174 645 174 675 229.5 c 128,-1,24
 705 285 705 285 705 361 c 0,25,26
 705 467 705 467 650 526.5 c 128,-1,27
 595 586 595 586 500 586 c 0,28,29
 401 586 401 586 347 527.5 c 128,-1,30
 293 469 293 469 293 361 c 0,31,32
 293 254 293 254 346.5 194.5 c 128,-1,33
 400 135 400 135 499 135 c 0,34,35
 507 135 507 135 515 135.5 c 128,-1,36
 523 136 523 136 531 137 c 1,37,-1
 589 65 l 1,20,-1
499 189 m 0,38,39
 432 189 432 189 399 237.5 c 128,-1,40
 366 286 366 286 366 361 c 256,41,42
 366 436 366 436 398.5 484 c 128,-1,43
 431 532 431 532 500 532 c 256,44,45
 569 532 569 532 601 484 c 128,-1,46
 633 436 633 436 633 361 c 0,47,48
 633 278 633 278 597 233.5 c 128,-1,49
 561 189 561 189 499 189 c 0,38,39
EndSplineSet
EndChar

StartChar: u1F140
Encoding: 891 127296 219
Width: 1000
GlyphClass: 1
Flags: W
LayerCount: 2
Fore
SplineSet
112 -31 m 1,0,-1
 112 745 l 1,1,-1
 888 745 l 1,2,-1
 888 -31 l 1,3,-1
 112 -31 l 1,0,-1
167 24 m 1,4,-1
 833 24 l 1,5,-1
 833 690 l 1,6,-1
 167 690 l 1,7,-1
 167 24 l 1,4,-1
589 65 m 1,8,-1
 531 137 l 1,9,10
 523 136 523 136 515 135.5 c 128,-1,11
 507 135 507 135 499 135 c 0,12,13
 400 135 400 135 346.5 194.5 c 128,-1,14
 293 254 293 254 293 361 c 0,15,16
 293 469 293 469 347 527.5 c 128,-1,17
 401 586 401 586 500 586 c 0,18,19
 595 586 595 586 650 526.5 c 128,-1,20
 705 467 705 467 705 361 c 0,21,22
 705 285 705 285 675 229.5 c 128,-1,23
 645 174 645 174 585 150 c 1,24,-1
 671 65 l 1,25,-1
 589 65 l 1,8,-1
499 189 m 0,26,27
 561 189 561 189 597 233.5 c 128,-1,28
 633 278 633 278 633 361 c 0,29,30
 633 436 633 436 601 484 c 128,-1,31
 569 532 569 532 500 532 c 256,32,33
 431 532 431 532 398.5 484 c 128,-1,34
 366 436 366 436 366 361 c 256,35,36
 366 286 366 286 399 237.5 c 128,-1,37
 432 189 432 189 499 189 c 0,26,27
EndSplineSet
EndChar

StartChar: uni24C6
Encoding: 599 9414 220
Width: 1000
GlyphClass: 1
Flags: W
LayerCount: 2
Fore
SplineSet
500 -55 m 0,0,1
 415 -55 415 -55 340 -23 c 128,-1,2
 265 9 265 9 208.5 65.5 c 128,-1,3
 152 122 152 122 120 197 c 128,-1,4
 88 272 88 272 88 357 c 0,5,6
 88 443 88 443 120 517.5 c 128,-1,7
 152 592 152 592 208.5 648.5 c 128,-1,8
 265 705 265 705 340 737 c 128,-1,9
 415 769 415 769 500 769 c 0,10,11
 586 769 586 769 660.5 737 c 128,-1,12
 735 705 735 705 791.5 648.5 c 128,-1,13
 848 592 848 592 880 517.5 c 128,-1,14
 912 443 912 443 912 357 c 0,15,16
 912 272 912 272 880 197 c 128,-1,17
 848 122 848 122 791.5 65.5 c 128,-1,18
 735 9 735 9 660.5 -23 c 128,-1,19
 586 -55 586 -55 500 -55 c 0,0,1
500 1 m 256,20,21
 574 1 574 1 638.5 28.5 c 128,-1,22
 703 56 703 56 752 105 c 128,-1,23
 801 154 801 154 828.5 218.5 c 128,-1,24
 856 283 856 283 856 357 c 256,25,26
 856 431 856 431 828.5 495.5 c 128,-1,27
 801 560 801 560 752 609 c 128,-1,28
 703 658 703 658 638.5 685.5 c 128,-1,29
 574 713 574 713 500 713 c 256,30,31
 426 713 426 713 361.5 685.5 c 128,-1,32
 297 658 297 658 248 609 c 128,-1,33
 199 560 199 560 171.5 495.5 c 128,-1,34
 144 431 144 431 144 357 c 256,35,36
 144 283 144 283 171.5 218.5 c 128,-1,37
 199 154 199 154 248 105 c 128,-1,38
 297 56 297 56 361.5 28.5 c 128,-1,39
 426 1 426 1 500 1 c 256,20,21
589 65 m 1,40,-1
 531 137 l 1,41,42
 523 136 523 136 515.5 135.5 c 128,-1,43
 508 135 508 135 499 135 c 0,44,45
 400 135 400 135 346.5 194.5 c 128,-1,46
 293 254 293 254 293 361 c 0,47,48
 293 469 293 469 347 527.5 c 128,-1,49
 401 586 401 586 500 586 c 0,50,51
 595 586 595 586 650 526.5 c 128,-1,52
 705 467 705 467 705 361 c 0,53,54
 705 285 705 285 675 229.5 c 128,-1,55
 645 174 645 174 585 150 c 1,56,-1
 671 65 l 1,57,-1
 589 65 l 1,40,-1
499 189 m 0,58,59
 562 189 562 189 597.5 233.5 c 128,-1,60
 633 278 633 278 633 361 c 0,61,62
 633 436 633 436 601 484 c 128,-1,63
 569 532 569 532 500 532 c 256,64,65
 431 532 431 532 398.5 484 c 128,-1,66
 366 436 366 436 366 361 c 256,67,68
 366 286 366 286 399 237.5 c 128,-1,69
 432 189 432 189 499 189 c 0,58,59
EndSplineSet
EndChar

StartChar: u1F120
Encoding: 859 127264 221
Width: 1000
GlyphClass: 1
Flags: W
LayerCount: 2
Fore
SplineSet
731 -57 m 1,0,1
 859 124 859 124 859 352 c 0,2,3
 859 464 859 464 826.5 571 c 128,-1,4
 794 678 794 678 731 767 c 1,5,-1
 789 767 l 1,6,7
 922 598 922 598 922 351 c 0,8,9
 922 106 922 106 789 -57 c 1,10,-1
 731 -57 l 1,0,1
211 -57 m 1,11,12
 78 106 78 106 78 351 c 0,13,14
 78 598 78 598 211 767 c 1,15,-1
 269 767 l 1,16,17
 206 678 206 678 173.5 571 c 128,-1,18
 141 464 141 464 141 352 c 0,19,20
 141 124 141 124 269 -57 c 1,21,-1
 211 -57 l 1,11,12
590 65 m 1,22,-1
 532 137 l 1,23,24
 524 136 524 136 516 135.5 c 128,-1,25
 508 135 508 135 500 135 c 0,26,27
 401 135 401 135 347.5 194.5 c 128,-1,28
 294 254 294 254 294 361 c 0,29,30
 294 469 294 469 348 527.5 c 128,-1,31
 402 586 402 586 501 586 c 0,32,33
 596 586 596 586 651 526.5 c 128,-1,34
 706 467 706 467 706 361 c 0,35,36
 706 285 706 285 676 229.5 c 128,-1,37
 646 174 646 174 586 150 c 1,38,-1
 672 65 l 1,39,-1
 590 65 l 1,22,-1
500 189 m 0,40,41
 563 189 563 189 598.5 233.5 c 128,-1,42
 634 278 634 278 634 361 c 0,43,44
 634 436 634 436 602 484 c 128,-1,45
 570 532 570 532 501 532 c 256,46,47
 432 532 432 532 399.5 484 c 128,-1,48
 367 436 367 436 367 361 c 256,49,50
 367 286 367 286 400 237.5 c 128,-1,51
 433 189 433 189 500 189 c 0,40,41
EndSplineSet
EndChar

StartChar: u1F180
Encoding: 952 127360 222
Width: 1000
GlyphClass: 1
Flags: W
LayerCount: 2
Fore
SplineSet
208 -31 m 2,0,1
 112 -31 112 -31 112 65 c 2,2,-1
 112 649 l 2,3,4
 112 745 112 745 208 745 c 2,5,-1
 792 745 l 2,6,7
 888 745 888 745 888 649 c 2,8,-1
 888 65 l 2,9,10
 888 -31 888 -31 792 -31 c 2,11,-1
 208 -31 l 2,0,1
589 65 m 1,12,-1
 671 65 l 1,13,-1
 585 150 l 1,14,15
 645 174 645 174 675 229.5 c 128,-1,16
 705 285 705 285 705 361 c 0,17,18
 705 467 705 467 650 526.5 c 128,-1,19
 595 586 595 586 500 586 c 0,20,21
 401 586 401 586 347 527.5 c 128,-1,22
 293 469 293 469 293 361 c 0,23,24
 293 254 293 254 346.5 194.5 c 128,-1,25
 400 135 400 135 499 135 c 0,26,27
 507 135 507 135 515 135.5 c 128,-1,28
 523 136 523 136 531 137 c 1,29,-1
 589 65 l 1,12,-1
499 189 m 0,30,31
 432 189 432 189 399 237.5 c 128,-1,32
 366 286 366 286 366 361 c 256,33,34
 366 436 366 436 398.5 484 c 128,-1,35
 431 532 431 532 500 532 c 256,36,37
 569 532 569 532 601 484 c 128,-1,38
 633 436 633 436 633 361 c 0,39,40
 633 278 633 278 597 233.5 c 128,-1,41
 561 189 561 189 499 189 c 0,30,31
EndSplineSet
EndChar

StartChar: R
Encoding: 52 82 223
Width: 622
GlyphClass: 2
Flags: W
LayerCount: 2
Fore
SplineSet
97 0 m 1,0,-1
 97 714 l 1,1,-1
 294 714 l 2,2,3
 427 714 427 714 490.5 663.5 c 128,-1,4
 554 613 554 613 554 511 c 0,5,6
 554 454 554 454 533 416 c 128,-1,7
 512 378 512 378 479.5 355.5 c 128,-1,8
 447 333 447 333 411 320 c 1,9,-1
 607 0 l 1,10,-1
 502 0 l 1,11,-1
 329 295 l 1,12,-1
 187 295 l 1,13,-1
 187 0 l 1,14,-1
 97 0 l 1,0,-1
187 371 m 1,15,-1
 294 371 l 2,16,17
 381 371 381 371 421 405.5 c 128,-1,18
 461 440 461 440 461 507 c 0,19,20
 461 577 461 577 419 606.5 c 128,-1,21
 377 636 377 636 289 636 c 2,22,-1
 187 636 l 1,23,-1
 187 371 l 1,15,-1
EndSplineSet
EndChar

StartChar: R.001
Encoding: 1212 -1 224
Width: 612
GlyphClass: 1
Flags: W
LayerCount: 2
Fore
SplineSet
51 0 m 1,0,-1
 51 714 l 1,1,-1
 248 714 l 2,2,3
 381 714 381 714 444.5 663.5 c 128,-1,4
 508 613 508 613 508 511 c 0,5,6
 508 454 508 454 487.5 416 c 128,-1,7
 467 378 467 378 434 355.5 c 128,-1,8
 401 333 401 333 365 320 c 1,9,-1
 561 0 l 1,10,-1
 456 0 l 1,11,-1
 283 295 l 1,12,-1
 141 295 l 1,13,-1
 141 0 l 1,14,-1
 51 0 l 1,0,-1
141 371 m 1,15,-1
 248 371 l 2,16,17
 335 371 335 371 375 405.5 c 128,-1,18
 415 440 415 440 415 507 c 0,19,20
 415 577 415 577 373 606.5 c 128,-1,21
 331 636 331 636 243 636 c 2,22,-1
 141 636 l 1,23,-1
 141 371 l 1,15,-1
EndSplineSet
EndChar

StartChar: u1F161
Encoding: 924 127329 230
Width: 1000
GlyphClass: 1
Flags: W
LayerCount: 2
Fore
SplineSet
500 -55 m 0,0,1
 415 -55 415 -55 340 -23 c 128,-1,2
 265 9 265 9 208.5 65.5 c 128,-1,3
 152 122 152 122 120 197 c 128,-1,4
 88 272 88 272 88 357 c 256,5,6
 88 442 88 442 120 516.5 c 128,-1,7
 152 591 152 591 208.5 648 c 128,-1,8
 265 705 265 705 340 737 c 128,-1,9
 415 769 415 769 500 769 c 0,10,11
 586 769 586 769 660.5 737 c 128,-1,12
 735 705 735 705 791.5 648 c 128,-1,13
 848 591 848 591 880 516.5 c 128,-1,14
 912 442 912 442 912 357 c 256,15,16
 912 272 912 272 880 197 c 128,-1,17
 848 122 848 122 791.5 65.5 c 128,-1,18
 735 9 735 9 660.5 -23 c 128,-1,19
 586 -55 586 -55 500 -55 c 0,0,1
370 145 m 1,20,-1
 439 145 l 1,21,-1
 439 320 l 1,22,-1
 513 320 l 1,23,-1
 616 145 l 1,24,-1
 696 145 l 1,25,-1
 575 338 l 1,26,27
 664 371 664 371 664 450 c 0,28,29
 664 515 664 515 625 544.5 c 128,-1,30
 586 574 586 574 498 574 c 2,31,-1
 370 574 l 1,32,-1
 370 145 l 1,20,-1
439 373 m 1,33,-1
 439 519 l 1,34,-1
 494 519 l 2,35,36
 541 519 541 519 566.5 504.5 c 128,-1,37
 592 490 592 490 592 448 c 0,38,39
 592 373 592 373 498 373 c 2,40,-1
 439 373 l 1,33,-1
EndSplineSet
EndChar

StartChar: u1F141
Encoding: 892 127297 231
Width: 1000
GlyphClass: 1
Flags: W
LayerCount: 2
Fore
SplineSet
112 -31 m 1,0,-1
 112 745 l 1,1,-1
 888 745 l 1,2,-1
 888 -31 l 1,3,-1
 112 -31 l 1,0,-1
167 24 m 1,4,-1
 833 24 l 1,5,-1
 833 690 l 1,6,-1
 167 690 l 1,7,-1
 167 24 l 1,4,-1
350 145 m 1,8,-1
 350 574 l 1,9,-1
 478 574 l 2,10,11
 566 574 566 574 605 544.5 c 128,-1,12
 644 515 644 515 644 450 c 0,13,14
 644 371 644 371 555 338 c 1,15,-1
 676 145 l 1,16,-1
 596 145 l 1,17,-1
 493 320 l 1,18,-1
 419 320 l 1,19,-1
 419 145 l 1,20,-1
 350 145 l 1,8,-1
419 373 m 1,21,-1
 478 373 l 2,22,23
 572 373 572 373 572 448 c 0,24,25
 572 490 572 490 546.5 504.5 c 128,-1,26
 521 519 521 519 474 519 c 2,27,-1
 419 519 l 1,28,-1
 419 373 l 1,21,-1
EndSplineSet
EndChar

StartChar: uni24C7
Encoding: 600 9415 232
Width: 1000
GlyphClass: 1
Flags: W
LayerCount: 2
Fore
SplineSet
500 -55 m 0,0,1
 415 -55 415 -55 340 -23 c 128,-1,2
 265 9 265 9 208.5 65.5 c 128,-1,3
 152 122 152 122 120 197 c 128,-1,4
 88 272 88 272 88 357 c 0,5,6
 88 443 88 443 120 517.5 c 128,-1,7
 152 592 152 592 208.5 648.5 c 128,-1,8
 265 705 265 705 340 737 c 128,-1,9
 415 769 415 769 500 769 c 0,10,11
 586 769 586 769 660.5 737 c 128,-1,12
 735 705 735 705 791.5 648.5 c 128,-1,13
 848 592 848 592 880 517.5 c 128,-1,14
 912 443 912 443 912 357 c 0,15,16
 912 272 912 272 880 197 c 128,-1,17
 848 122 848 122 791.5 65.5 c 128,-1,18
 735 9 735 9 660.5 -23 c 128,-1,19
 586 -55 586 -55 500 -55 c 0,0,1
500 1 m 256,20,21
 574 1 574 1 638.5 28.5 c 128,-1,22
 703 56 703 56 752 105 c 128,-1,23
 801 154 801 154 828.5 218.5 c 128,-1,24
 856 283 856 283 856 357 c 256,25,26
 856 431 856 431 828.5 495.5 c 128,-1,27
 801 560 801 560 752 609 c 128,-1,28
 703 658 703 658 638.5 685.5 c 128,-1,29
 574 713 574 713 500 713 c 256,30,31
 426 713 426 713 361.5 685.5 c 128,-1,32
 297 658 297 658 248 609 c 128,-1,33
 199 560 199 560 171.5 495.5 c 128,-1,34
 144 431 144 431 144 357 c 256,35,36
 144 283 144 283 171.5 218.5 c 128,-1,37
 199 154 199 154 248 105 c 128,-1,38
 297 56 297 56 361.5 28.5 c 128,-1,39
 426 1 426 1 500 1 c 256,20,21
370 145 m 1,40,-1
 370 574 l 1,41,-1
 498 574 l 2,42,43
 587 574 587 574 625.5 544.5 c 128,-1,44
 664 515 664 515 664 450 c 0,45,46
 664 371 664 371 576 338 c 1,47,-1
 696 145 l 1,48,-1
 616 145 l 1,49,-1
 513 320 l 1,50,-1
 439 320 l 1,51,-1
 439 145 l 1,52,-1
 370 145 l 1,40,-1
439 373 m 1,53,-1
 498 373 l 2,54,55
 592 373 592 373 592 448 c 0,56,57
 592 490 592 490 566.5 504.5 c 128,-1,58
 541 519 541 519 494 519 c 2,59,-1
 439 519 l 1,60,-1
 439 373 l 1,53,-1
EndSplineSet
EndChar

StartChar: u1F121
Encoding: 860 127265 233
Width: 1000
GlyphClass: 1
Flags: W
LayerCount: 2
Fore
SplineSet
731 -57 m 1,0,1
 859 124 859 124 859 352 c 0,2,3
 859 464 859 464 826.5 571 c 128,-1,4
 794 678 794 678 731 767 c 1,5,-1
 789 767 l 1,6,7
 922 598 922 598 922 351 c 0,8,9
 922 106 922 106 789 -57 c 1,10,-1
 731 -57 l 1,0,1
211 -57 m 1,11,12
 78 106 78 106 78 351 c 0,13,14
 78 598 78 598 211 767 c 1,15,-1
 269 767 l 1,16,17
 206 678 206 678 173.5 571 c 128,-1,18
 141 464 141 464 141 352 c 0,19,20
 141 124 141 124 269 -57 c 1,21,-1
 211 -57 l 1,11,12
370 145 m 1,22,-1
 370 574 l 1,23,-1
 498 574 l 2,24,25
 587 574 587 574 625.5 544.5 c 128,-1,26
 664 515 664 515 664 450 c 0,27,28
 664 371 664 371 575 338 c 1,29,-1
 696 145 l 1,30,-1
 616 145 l 1,31,-1
 513 320 l 1,32,-1
 439 320 l 1,33,-1
 439 145 l 1,34,-1
 370 145 l 1,22,-1
439 373 m 1,35,-1
 498 373 l 2,36,37
 592 373 592 373 592 448 c 0,38,39
 592 490 592 490 566.5 504.5 c 128,-1,40
 541 519 541 519 494 519 c 2,41,-1
 439 519 l 1,42,-1
 439 373 l 1,35,-1
EndSplineSet
EndChar

StartChar: u1F181
Encoding: 953 127361 234
Width: 1000
GlyphClass: 1
Flags: W
LayerCount: 2
Fore
SplineSet
208 -31 m 2,0,1
 112 -31 112 -31 112 65 c 2,2,-1
 112 649 l 2,3,4
 112 745 112 745 208 745 c 2,5,-1
 792 745 l 2,6,7
 888 745 888 745 888 649 c 2,8,-1
 888 65 l 2,9,10
 888 -31 888 -31 792 -31 c 2,11,-1
 208 -31 l 2,0,1
370 145 m 1,12,-1
 439 145 l 1,13,-1
 439 320 l 1,14,-1
 513 320 l 1,15,-1
 616 145 l 1,16,-1
 696 145 l 1,17,-1
 575 338 l 1,18,19
 664 371 664 371 664 450 c 0,20,21
 664 515 664 515 625 544.5 c 128,-1,22
 586 574 586 574 498 574 c 2,23,-1
 370 574 l 1,24,-1
 370 145 l 1,12,-1
439 373 m 1,25,-1
 439 519 l 1,26,-1
 494 519 l 2,27,28
 541 519 541 519 566.5 504.5 c 128,-1,29
 592 490 592 490 592 448 c 0,30,31
 592 373 592 373 498 373 c 2,32,-1
 439 373 l 1,25,-1
EndSplineSet
EndChar

StartChar: S
Encoding: 53 83 235
Width: 549
GlyphClass: 2
Flags: W
LayerCount: 2
Fore
SplineSet
247 -10 m 0,0,1
 187 -10 187 -10 136 -1 c 128,-1,2
 85 8 85 8 51 24 c 1,3,-1
 51 110 l 1,4,5
 87 94 87 94 140.5 81 c 128,-1,6
 194 68 194 68 251 68 c 0,7,8
 331 68 331 68 371.5 99 c 128,-1,9
 412 130 412 130 412 183 c 0,10,11
 412 218 412 218 397 242 c 128,-1,12
 382 266 382 266 345.5 286.5 c 128,-1,13
 309 307 309 307 244 330 c 0,14,15
 153 363 153 363 106.5 411 c 128,-1,16
 60 459 60 459 60 542 c 0,17,18
 60 599 60 599 89 639.5 c 128,-1,19
 118 680 118 680 169.5 702 c 128,-1,20
 221 724 221 724 288 724 c 0,21,22
 347 724 347 724 396 713 c 128,-1,23
 445 702 445 702 485 684 c 1,24,-1
 457 607 l 1,25,26
 420 623 420 623 376.5 634 c 128,-1,27
 333 645 333 645 286 645 c 0,28,29
 219 645 219 645 185 616.5 c 128,-1,30
 151 588 151 588 151 541 c 0,31,32
 151 505 151 505 166 481 c 128,-1,33
 181 457 181 457 215 438 c 128,-1,34
 249 419 249 419 307 397 c 0,35,36
 370 374 370 374 413.5 347.5 c 128,-1,37
 457 321 457 321 479.5 284 c 128,-1,38
 502 247 502 247 502 191 c 0,39,40
 502 96 502 96 433 43 c 128,-1,41
 364 -10 364 -10 247 -10 c 0,0,1
EndSplineSet
EndChar

StartChar: S.001
Encoding: 1218 -1 236
Width: 553
GlyphClass: 1
Flags: W
LayerCount: 2
Fore
SplineSet
247 -10 m 0,0,1
 187 -10 187 -10 136 -1 c 128,-1,2
 85 8 85 8 51 24 c 1,3,-1
 51 110 l 1,4,5
 87 94 87 94 140.5 81 c 128,-1,6
 194 68 194 68 251 68 c 0,7,8
 331 68 331 68 371.5 99 c 128,-1,9
 412 130 412 130 412 183 c 0,10,11
 412 218 412 218 397 242 c 128,-1,12
 382 266 382 266 345.5 286.5 c 128,-1,13
 309 307 309 307 244 330 c 0,14,15
 153 363 153 363 106.5 411 c 128,-1,16
 60 459 60 459 60 542 c 0,17,18
 60 599 60 599 89 639.5 c 128,-1,19
 118 680 118 680 169.5 702 c 128,-1,20
 221 724 221 724 288 724 c 0,21,22
 347 724 347 724 396 713 c 128,-1,23
 445 702 445 702 485 684 c 1,24,-1
 457 607 l 1,25,26
 420 623 420 623 376.5 634 c 128,-1,27
 333 645 333 645 286 645 c 0,28,29
 219 645 219 645 185 616.5 c 128,-1,30
 151 588 151 588 151 541 c 0,31,32
 151 505 151 505 166 481 c 128,-1,33
 181 457 181 457 215 438 c 128,-1,34
 249 419 249 419 307 397 c 0,35,36
 370 374 370 374 413.5 347.5 c 128,-1,37
 457 321 457 321 479.5 284 c 128,-1,38
 502 247 502 247 502 191 c 0,39,40
 502 96 502 96 433 43 c 128,-1,41
 364 -10 364 -10 247 -10 c 0,0,1
EndSplineSet
EndChar

StartChar: u1F162
Encoding: 925 127330 242
Width: 1000
GlyphClass: 1
Flags: W
LayerCount: 2
Fore
SplineSet
500 -55 m 0,0,1
 415 -55 415 -55 340 -23 c 128,-1,2
 265 9 265 9 208.5 65.5 c 128,-1,3
 152 122 152 122 120 197 c 128,-1,4
 88 272 88 272 88 357 c 256,5,6
 88 442 88 442 120 516.5 c 128,-1,7
 152 591 152 591 208.5 648 c 128,-1,8
 265 705 265 705 340 737 c 128,-1,9
 415 769 415 769 500 769 c 0,10,11
 586 769 586 769 660.5 737 c 128,-1,12
 735 705 735 705 791.5 648 c 128,-1,13
 848 591 848 591 880 516.5 c 128,-1,14
 912 442 912 442 912 357 c 256,15,16
 912 272 912 272 880 197 c 128,-1,17
 848 122 848 122 791.5 65.5 c 128,-1,18
 735 9 735 9 660.5 -23 c 128,-1,19
 586 -55 586 -55 500 -55 c 0,0,1
493 137 m 0,20,21
 568 137 568 137 612 170 c 128,-1,22
 656 203 656 203 656 262 c 0,23,24
 656 304 656 304 629.5 332 c 128,-1,25
 603 360 603 360 547 384 c 0,26,27
 510 400 510 400 487.5 411.5 c 128,-1,28
 465 423 465 423 455 437 c 128,-1,29
 445 451 445 451 445 473 c 0,30,31
 445 530 445 530 522 530 c 0,32,33
 575 530 575 530 626 507 c 1,34,-1
 646 560 l 1,35,36
 582 586 582 586 517 586 c 0,37,38
 450 586 450 586 411 554.5 c 128,-1,39
 372 523 372 523 372 473 c 0,40,41
 372 429 372 429 396 400 c 128,-1,42
 420 371 420 371 463 351 c 0,43,44
 492 338 492 338 519.5 325.5 c 128,-1,45
 547 313 547 313 565 297 c 128,-1,46
 583 281 583 281 583 257 c 0,47,48
 583 194 583 194 495 194 c 0,49,50
 430 194 430 194 364 224 c 1,51,-1
 364 161 l 1,52,53
 421 137 421 137 493 137 c 0,20,21
EndSplineSet
EndChar

StartChar: u1F142
Encoding: 893 127298 243
Width: 1000
GlyphClass: 1
Flags: W
LayerCount: 2
Fore
SplineSet
112 -31 m 1,0,-1
 112 745 l 1,1,-1
 888 745 l 1,2,-1
 888 -31 l 1,3,-1
 112 -31 l 1,0,-1
167 24 m 1,4,-1
 833 24 l 1,5,-1
 833 690 l 1,6,-1
 167 690 l 1,7,-1
 167 24 l 1,4,-1
493 137 m 0,8,9
 421 137 421 137 364 161 c 1,10,-1
 364 224 l 1,11,12
 430 194 430 194 495 194 c 0,13,14
 583 194 583 194 583 257 c 0,15,16
 583 281 583 281 565 297.5 c 128,-1,17
 547 314 547 314 519.5 326.5 c 128,-1,18
 492 339 492 339 463 351 c 0,19,20
 420 370 420 370 396 399.5 c 128,-1,21
 372 429 372 429 372 473 c 0,22,23
 372 523 372 523 411 554.5 c 128,-1,24
 450 586 450 586 517 586 c 0,25,26
 582 586 582 586 646 560 c 1,27,-1
 626 507 l 1,28,29
 575 530 575 530 522 530 c 0,30,31
 445 530 445 530 445 473 c 0,32,33
 445 451 445 451 455 437 c 128,-1,34
 465 423 465 423 487.5 411.5 c 128,-1,35
 510 400 510 400 547 384 c 0,36,37
 603 361 603 361 629.5 332.5 c 128,-1,38
 656 304 656 304 656 262 c 0,39,40
 656 203 656 203 612 170 c 128,-1,41
 568 137 568 137 493 137 c 0,8,9
EndSplineSet
EndChar

StartChar: uni24C8
Encoding: 601 9416 244
Width: 1000
GlyphClass: 1
Flags: W
LayerCount: 2
Fore
SplineSet
500 -55 m 0,0,1
 415 -55 415 -55 340 -23 c 128,-1,2
 265 9 265 9 208.5 65.5 c 128,-1,3
 152 122 152 122 120 197 c 128,-1,4
 88 272 88 272 88 357 c 0,5,6
 88 443 88 443 120 517.5 c 128,-1,7
 152 592 152 592 208.5 648.5 c 128,-1,8
 265 705 265 705 340 737 c 128,-1,9
 415 769 415 769 500 769 c 0,10,11
 586 769 586 769 660.5 737 c 128,-1,12
 735 705 735 705 791.5 648.5 c 128,-1,13
 848 592 848 592 880 517.5 c 128,-1,14
 912 443 912 443 912 357 c 0,15,16
 912 272 912 272 880 197 c 128,-1,17
 848 122 848 122 791.5 65.5 c 128,-1,18
 735 9 735 9 660.5 -23 c 128,-1,19
 586 -55 586 -55 500 -55 c 0,0,1
500 1 m 256,20,21
 574 1 574 1 638.5 28.5 c 128,-1,22
 703 56 703 56 752 105 c 128,-1,23
 801 154 801 154 828.5 218.5 c 128,-1,24
 856 283 856 283 856 357 c 256,25,26
 856 431 856 431 828.5 495.5 c 128,-1,27
 801 560 801 560 752 609 c 128,-1,28
 703 658 703 658 638.5 685.5 c 128,-1,29
 574 713 574 713 500 713 c 256,30,31
 426 713 426 713 361.5 685.5 c 128,-1,32
 297 658 297 658 248 609 c 128,-1,33
 199 560 199 560 171.5 495.5 c 128,-1,34
 144 431 144 431 144 357 c 256,35,36
 144 283 144 283 171.5 218.5 c 128,-1,37
 199 154 199 154 248 105 c 128,-1,38
 297 56 297 56 361.5 28.5 c 128,-1,39
 426 1 426 1 500 1 c 256,20,21
483 137 m 0,40,41
 411 137 411 137 354 161 c 1,42,-1
 354 224 l 1,43,44
 420 194 420 194 485 194 c 0,45,46
 573 194 573 194 573 257 c 0,47,48
 573 281 573 281 556 296.5 c 128,-1,49
 539 312 539 312 511.5 324.5 c 128,-1,50
 484 337 484 337 454 350 c 0,51,52
 410 370 410 370 386 400 c 128,-1,53
 362 430 362 430 362 473 c 0,54,55
 362 523 362 523 401 554.5 c 128,-1,56
 440 586 440 586 507 586 c 0,57,58
 572 586 572 586 636 560 c 1,59,-1
 616 507 l 1,60,61
 565 530 565 530 512 530 c 0,62,63
 435 530 435 530 435 473 c 0,64,65
 435 451 435 451 445 437 c 128,-1,66
 455 423 455 423 477 412 c 128,-1,67
 499 401 499 401 536 385 c 0,68,69
 592 362 592 362 619 333.5 c 128,-1,70
 646 305 646 305 646 262 c 0,71,72
 646 203 646 203 602.5 170 c 128,-1,73
 559 137 559 137 483 137 c 0,40,41
EndSplineSet
EndChar

StartChar: u1F122
Encoding: 861 127266 245
Width: 1000
GlyphClass: 1
Flags: W
LayerCount: 2
Fore
SplineSet
731 -57 m 1,0,1
 859 124 859 124 859 352 c 0,2,3
 859 464 859 464 826.5 571 c 128,-1,4
 794 678 794 678 731 767 c 1,5,-1
 789 767 l 1,6,7
 922 598 922 598 922 351 c 0,8,9
 922 106 922 106 789 -57 c 1,10,-1
 731 -57 l 1,0,1
211 -57 m 1,11,12
 78 106 78 106 78 351 c 0,13,14
 78 598 78 598 211 767 c 1,15,-1
 269 767 l 1,16,17
 206 678 206 678 173.5 571 c 128,-1,18
 141 464 141 464 141 352 c 0,19,20
 141 124 141 124 269 -57 c 1,21,-1
 211 -57 l 1,11,12
483 137 m 0,22,23
 411 137 411 137 354 161 c 1,24,-1
 354 224 l 1,25,26
 420 194 420 194 485 194 c 0,27,28
 573 194 573 194 573 257 c 0,29,30
 573 281 573 281 556 296.5 c 128,-1,31
 539 312 539 312 511.5 324.5 c 128,-1,32
 484 337 484 337 454 350 c 0,33,34
 410 370 410 370 386 400 c 128,-1,35
 362 430 362 430 362 473 c 0,36,37
 362 523 362 523 401 554.5 c 128,-1,38
 440 586 440 586 507 586 c 0,39,40
 572 586 572 586 636 560 c 1,41,-1
 616 507 l 1,42,43
 565 530 565 530 512 530 c 0,44,45
 435 530 435 530 435 473 c 0,46,47
 435 451 435 451 445 437 c 128,-1,48
 455 423 455 423 477 412 c 128,-1,49
 499 401 499 401 536 385 c 0,50,51
 592 362 592 362 619 333.5 c 128,-1,52
 646 305 646 305 646 262 c 0,53,54
 646 203 646 203 602.5 170 c 128,-1,55
 559 137 559 137 483 137 c 0,22,23
EndSplineSet
EndChar

StartChar: u1F182
Encoding: 954 127362 246
Width: 1000
GlyphClass: 1
Flags: W
LayerCount: 2
Fore
SplineSet
208 -31 m 2,0,1
 112 -31 112 -31 112 65 c 2,2,-1
 112 649 l 2,3,4
 112 745 112 745 208 745 c 2,5,-1
 792 745 l 2,6,7
 888 745 888 745 888 649 c 2,8,-1
 888 65 l 2,9,10
 888 -31 888 -31 792 -31 c 2,11,-1
 208 -31 l 2,0,1
493 137 m 0,12,13
 568 137 568 137 612 170 c 128,-1,14
 656 203 656 203 656 262 c 0,15,16
 656 304 656 304 629.5 332 c 128,-1,17
 603 360 603 360 547 384 c 0,18,19
 510 400 510 400 487.5 411.5 c 128,-1,20
 465 423 465 423 455 437 c 128,-1,21
 445 451 445 451 445 473 c 0,22,23
 445 530 445 530 522 530 c 0,24,25
 575 530 575 530 626 507 c 1,26,-1
 646 560 l 1,27,28
 582 586 582 586 517 586 c 0,29,30
 450 586 450 586 411 554.5 c 128,-1,31
 372 523 372 523 372 473 c 0,32,33
 372 429 372 429 396 400 c 128,-1,34
 420 371 420 371 463 351 c 0,35,36
 492 338 492 338 519.5 325.5 c 128,-1,37
 547 313 547 313 565 297 c 128,-1,38
 583 281 583 281 583 257 c 0,39,40
 583 194 583 194 495 194 c 0,41,42
 430 194 430 194 364 224 c 1,43,-1
 364 161 l 1,44,45
 421 137 421 137 493 137 c 0,12,13
EndSplineSet
EndChar

StartChar: u1F14C
Encoding: 903 127308 247
Width: 1000
GlyphClass: 1
Flags: W
LayerCount: 2
Fore
SplineSet
112 -31 m 1,0,-1
 112 745 l 1,1,-1
 888 745 l 1,2,-1
 888 -31 l 1,3,-1
 112 -31 l 1,0,-1
167 24 m 1,4,-1
 833 24 l 1,5,-1
 833 690 l 1,6,-1
 167 690 l 1,7,-1
 167 24 l 1,4,-1
332 136 m 0,8,9
 279 136 279 136 237 160 c 1,10,-1
 237 220 l 1,11,12
 289 189 289 189 332 189 c 0,13,14
 399 189 399 189 399 256 c 0,15,16
 399 285 399 285 383.5 301 c 128,-1,17
 368 317 368 317 325 342 c 256,18,19
 282 367 282 367 262.5 395 c 128,-1,20
 243 423 243 423 243 471 c 0,21,22
 243 521 243 521 272 552.5 c 128,-1,23
 301 584 301 584 354 584 c 0,24,25
 399 584 399 584 446 558 c 1,26,-1
 431 507 l 1,27,28
 397 531 397 531 354 531 c 0,29,30
 325 531 325 531 311 514 c 128,-1,31
 297 497 297 497 297 471 c 0,32,33
 297 451 297 451 302.5 437.5 c 128,-1,34
 308 424 308 424 324 411.5 c 128,-1,35
 340 399 340 399 370 382 c 0,36,37
 415 357 415 357 434 330.5 c 128,-1,38
 453 304 453 304 453 261 c 0,39,40
 453 203 453 203 421.5 169.5 c 128,-1,41
 390 136 390 136 332 136 c 0,8,9
493 146 m 1,42,-1
 493 574 l 1,43,-1
 604 574 l 2,44,45
 679 574 679 574 722.5 521.5 c 128,-1,46
 766 469 766 469 766 365 c 0,47,48
 766 256 766 256 721.5 201 c 128,-1,49
 677 146 677 146 595 146 c 2,50,-1
 493 146 l 1,42,-1
551 199 m 1,51,-1
 590 199 l 2,52,53
 652 199 652 199 677 241.5 c 128,-1,54
 702 284 702 284 702 363 c 0,55,56
 702 445 702 445 678 483 c 128,-1,57
 654 521 654 521 599 521 c 2,58,-1
 551 521 l 1,59,-1
 551 199 l 1,51,-1
EndSplineSet
EndChar

StartChar: uni2166
Encoding: 347 8550 248
Width: 1278
GlyphClass: 1
Flags: W
LayerCount: 2
Fore
SplineSet
255 0 m 1,0,-1
 0 714 l 1,1,-1
 94 714 l 1,2,-1
 255 256 l 2,3,4
 271 212 271 212 282 173.5 c 128,-1,5
 293 135 293 135 300 100 c 1,6,7
 307 135 307 135 318 174 c 128,-1,8
 329 213 329 213 345 258 c 2,9,-1
 505 714 l 1,10,-1
 600 714 l 1,11,-1
 345 0 l 1,12,-1
 255 0 l 1,0,-1
640 0 m 1,13,-1
 640 52 l 1,14,-1
 724 71 l 1,15,-1
 724 642 l 1,16,-1
 640 662 l 1,17,-1
 640 714 l 1,18,-1
 898 714 l 1,19,-1
 898 662 l 1,20,-1
 814 642 l 1,21,-1
 814 71 l 1,22,-1
 898 52 l 1,23,-1
 898 0 l 1,24,-1
 640 0 l 1,13,-1
979 0 m 1,25,-1
 979 52 l 1,26,-1
 1063 71 l 1,27,-1
 1063 642 l 1,28,-1
 979 662 l 1,29,-1
 979 714 l 1,30,-1
 1237 714 l 1,31,-1
 1237 662 l 1,32,-1
 1153 642 l 1,33,-1
 1153 71 l 1,34,-1
 1237 52 l 1,35,-1
 1237 0 l 1,36,-1
 979 0 l 1,25,-1
EndSplineSet
EndChar

StartChar: uni2165
Encoding: 346 8549 249
Width: 939
GlyphClass: 1
Flags: W
LayerCount: 2
Fore
SplineSet
255 0 m 1,0,-1
 0 714 l 1,1,-1
 94 714 l 1,2,-1
 255 256 l 2,3,4
 271 212 271 212 282 173.5 c 128,-1,5
 293 135 293 135 300 100 c 1,6,7
 307 135 307 135 318 174 c 128,-1,8
 329 213 329 213 345 258 c 2,9,-1
 505 714 l 1,10,-1
 600 714 l 1,11,-1
 345 0 l 1,12,-1
 255 0 l 1,0,-1
640 0 m 1,13,-1
 640 52 l 1,14,-1
 724 71 l 1,15,-1
 724 642 l 1,16,-1
 640 662 l 1,17,-1
 640 714 l 1,18,-1
 898 714 l 1,19,-1
 898 662 l 1,20,-1
 814 642 l 1,21,-1
 814 71 l 1,22,-1
 898 52 l 1,23,-1
 898 0 l 1,24,-1
 640 0 l 1,13,-1
EndSplineSet
EndChar

StartChar: u1F14D
Encoding: 904 127309 250
Width: 1000
GlyphClass: 1
Flags: W
LayerCount: 2
Fore
SplineSet
112 -31 m 1,0,-1
 112 745 l 1,1,-1
 888 745 l 1,2,-1
 888 -31 l 1,3,-1
 112 -31 l 1,0,-1
167 24 m 1,4,-1
 833 24 l 1,5,-1
 833 690 l 1,6,-1
 167 690 l 1,7,-1
 167 24 l 1,4,-1
634 137 m 0,8,9
 572 137 572 137 519 161 c 1,10,-1
 519 222 l 1,11,12
 581 191 581 191 636 191 c 0,13,14
 674 191 674 191 694.5 208.5 c 128,-1,15
 715 226 715 226 715 257 c 0,16,17
 715 283 715 283 699 300 c 128,-1,18
 683 317 683 317 645 334 c 0,19,20
 587 360 587 360 556.5 389 c 128,-1,21
 526 418 526 418 526 473 c 0,22,23
 526 529 526 529 563.5 557.5 c 128,-1,24
 601 586 601 586 656 586 c 0,25,26
 713 586 713 586 771 560 c 1,27,-1
 753 508 l 1,28,29
 706 533 706 533 660 533 c 0,30,31
 625 533 625 533 608 516 c 128,-1,32
 591 499 591 499 591 473 c 0,33,34
 591 452 591 452 598 438.5 c 128,-1,35
 605 425 605 425 623.5 413 c 128,-1,36
 642 401 642 401 678 385 c 0,37,38
 732 361 732 361 756 333.5 c 128,-1,39
 780 306 780 306 780 262 c 0,40,41
 780 203 780 203 741 170 c 128,-1,42
 702 137 702 137 634 137 c 0,8,9
341 137 m 0,43,44
 279 137 279 137 226 161 c 1,45,-1
 226 222 l 1,46,47
 288 191 288 191 343 191 c 0,48,49
 381 191 381 191 401.5 208.5 c 128,-1,50
 422 226 422 226 422 257 c 0,51,52
 422 283 422 283 406 300 c 128,-1,53
 390 317 390 317 352 334 c 0,54,55
 294 360 294 360 263.5 389 c 128,-1,56
 233 418 233 418 233 473 c 0,57,58
 233 529 233 529 270.5 557.5 c 128,-1,59
 308 586 308 586 363 586 c 0,60,61
 420 586 420 586 478 560 c 1,62,-1
 460 508 l 1,63,64
 413 533 413 533 367 533 c 0,65,66
 332 533 332 533 315 516 c 128,-1,67
 298 499 298 499 298 473 c 0,68,69
 298 452 298 452 305 438.5 c 128,-1,70
 312 425 312 425 330.5 413 c 128,-1,71
 349 401 349 401 385 385 c 0,72,73
 439 361 439 361 463 333.5 c 128,-1,74
 487 306 487 306 487 262 c 0,75,76
 487 203 487 203 448 170 c 128,-1,77
 409 137 409 137 341 137 c 0,43,44
EndSplineSet
EndChar

StartChar: T
Encoding: 54 84 251
Width: 556
GlyphClass: 2
Flags: W
LayerCount: 2
Fore
SplineSet
233 0 m 1,0,-1
 233 635 l 1,1,-1
 10 635 l 1,2,-1
 10 714 l 1,3,-1
 545 714 l 1,4,-1
 545 635 l 1,5,-1
 323 635 l 1,6,-1
 323 0 l 1,7,-1
 233 0 l 1,0,-1
EndSplineSet
EndChar

StartChar: T.001
Encoding: 1224 -1 252
Width: 637
GlyphClass: 1
Flags: W
LayerCount: 2
Fore
SplineSet
274 0 m 1,0,-1
 274 635 l 1,1,-1
 51 635 l 1,2,-1
 51 714 l 1,3,-1
 586 714 l 1,4,-1
 586 635 l 1,5,-1
 364 635 l 1,6,-1
 364 0 l 1,7,-1
 274 0 l 1,0,-1
EndSplineSet
EndChar

StartChar: u1F163
Encoding: 926 127331 258
Width: 1000
GlyphClass: 1
Flags: W
LayerCount: 2
Fore
SplineSet
500 -55 m 0,0,1
 415 -55 415 -55 340 -23 c 128,-1,2
 265 9 265 9 208.5 65.5 c 128,-1,3
 152 122 152 122 120 197 c 128,-1,4
 88 272 88 272 88 357 c 256,5,6
 88 442 88 442 120 516.5 c 128,-1,7
 152 591 152 591 208.5 648 c 128,-1,8
 265 705 265 705 340 737 c 128,-1,9
 415 769 415 769 500 769 c 0,10,11
 586 769 586 769 660.5 737 c 128,-1,12
 735 705 735 705 791.5 648 c 128,-1,13
 848 591 848 591 880 516.5 c 128,-1,14
 912 442 912 442 912 357 c 256,15,16
 912 272 912 272 880 197 c 128,-1,17
 848 122 848 122 791.5 65.5 c 128,-1,18
 735 9 735 9 660.5 -23 c 128,-1,19
 586 -55 586 -55 500 -55 c 0,0,1
465 146 m 1,20,-1
 535 146 l 1,21,-1
 535 516 l 1,22,-1
 669 516 l 1,23,-1
 669 574 l 1,24,-1
 331 574 l 1,25,-1
 331 516 l 1,26,-1
 465 516 l 1,27,-1
 465 146 l 1,20,-1
EndSplineSet
EndChar

StartChar: u1F143
Encoding: 894 127299 259
Width: 1000
GlyphClass: 1
Flags: W
LayerCount: 2
Fore
SplineSet
112 -31 m 1,0,-1
 112 745 l 1,1,-1
 888 745 l 1,2,-1
 888 -31 l 1,3,-1
 112 -31 l 1,0,-1
167 24 m 1,4,-1
 833 24 l 1,5,-1
 833 690 l 1,6,-1
 167 690 l 1,7,-1
 167 24 l 1,4,-1
465 146 m 1,8,-1
 465 516 l 1,9,-1
 331 516 l 1,10,-1
 331 574 l 1,11,-1
 669 574 l 1,12,-1
 669 516 l 1,13,-1
 535 516 l 1,14,-1
 535 146 l 1,15,-1
 465 146 l 1,8,-1
EndSplineSet
EndChar

StartChar: uni24C9
Encoding: 602 9417 260
Width: 1000
GlyphClass: 1
Flags: W
LayerCount: 2
Fore
SplineSet
500 -55 m 0,0,1
 415 -55 415 -55 340 -23 c 128,-1,2
 265 9 265 9 208.5 65.5 c 128,-1,3
 152 122 152 122 120 197 c 128,-1,4
 88 272 88 272 88 357 c 0,5,6
 88 443 88 443 120 517.5 c 128,-1,7
 152 592 152 592 208.5 648.5 c 128,-1,8
 265 705 265 705 340 737 c 128,-1,9
 415 769 415 769 500 769 c 0,10,11
 586 769 586 769 660.5 737 c 128,-1,12
 735 705 735 705 791.5 648.5 c 128,-1,13
 848 592 848 592 880 517.5 c 128,-1,14
 912 443 912 443 912 357 c 0,15,16
 912 272 912 272 880 197 c 128,-1,17
 848 122 848 122 791.5 65.5 c 128,-1,18
 735 9 735 9 660.5 -23 c 128,-1,19
 586 -55 586 -55 500 -55 c 0,0,1
500 1 m 256,20,21
 574 1 574 1 638.5 28.5 c 128,-1,22
 703 56 703 56 752 105 c 128,-1,23
 801 154 801 154 828.5 218.5 c 128,-1,24
 856 283 856 283 856 357 c 256,25,26
 856 431 856 431 828.5 495.5 c 128,-1,27
 801 560 801 560 752 609 c 128,-1,28
 703 658 703 658 638.5 685.5 c 128,-1,29
 574 713 574 713 500 713 c 256,30,31
 426 713 426 713 361.5 685.5 c 128,-1,32
 297 658 297 658 248 609 c 128,-1,33
 199 560 199 560 171.5 495.5 c 128,-1,34
 144 431 144 431 144 357 c 256,35,36
 144 283 144 283 171.5 218.5 c 128,-1,37
 199 154 199 154 248 105 c 128,-1,38
 297 56 297 56 361.5 28.5 c 128,-1,39
 426 1 426 1 500 1 c 256,20,21
465 146 m 1,40,-1
 465 516 l 1,41,-1
 331 516 l 1,42,-1
 331 574 l 1,43,-1
 669 574 l 1,44,-1
 669 516 l 1,45,-1
 535 516 l 1,46,-1
 535 146 l 1,47,-1
 465 146 l 1,40,-1
EndSplineSet
EndChar

StartChar: u1F123
Encoding: 862 127267 261
Width: 1000
GlyphClass: 1
Flags: W
LayerCount: 2
Fore
SplineSet
731 -57 m 1,0,1
 859 124 859 124 859 352 c 0,2,3
 859 464 859 464 826.5 571 c 128,-1,4
 794 678 794 678 731 767 c 1,5,-1
 789 767 l 1,6,7
 922 598 922 598 922 351 c 0,8,9
 922 106 922 106 789 -57 c 1,10,-1
 731 -57 l 1,0,1
211 -57 m 1,11,12
 78 106 78 106 78 351 c 0,13,14
 78 598 78 598 211 767 c 1,15,-1
 269 767 l 1,16,17
 206 678 206 678 173.5 571 c 128,-1,18
 141 464 141 464 141 352 c 0,19,20
 141 124 141 124 269 -57 c 1,21,-1
 211 -57 l 1,11,12
465 146 m 1,22,-1
 465 516 l 1,23,-1
 331 516 l 1,24,-1
 331 574 l 1,25,-1
 669 574 l 1,26,-1
 669 516 l 1,27,-1
 535 516 l 1,28,-1
 535 146 l 1,29,-1
 465 146 l 1,22,-1
EndSplineSet
EndChar

StartChar: u1F183
Encoding: 955 127363 262
Width: 1000
GlyphClass: 1
Flags: W
LayerCount: 2
Fore
SplineSet
208 -31 m 2,0,1
 112 -31 112 -31 112 65 c 2,2,-1
 112 649 l 2,3,4
 112 745 112 745 208 745 c 2,5,-1
 792 745 l 2,6,7
 888 745 888 745 888 649 c 2,8,-1
 888 65 l 2,9,10
 888 -31 888 -31 792 -31 c 2,11,-1
 208 -31 l 2,0,1
465 146 m 1,12,-1
 535 146 l 1,13,-1
 535 516 l 1,14,-1
 669 516 l 1,15,-1
 669 574 l 1,16,-1
 331 574 l 1,17,-1
 331 516 l 1,18,-1
 465 516 l 1,19,-1
 465 146 l 1,12,-1
EndSplineSet
EndChar

StartChar: uni2169
Encoding: 350 8553 263
Width: 586
GlyphClass: 1
Flags: W
LayerCount: 2
Fore
SplineSet
4 0 m 1,0,-1
 241 372 l 1,1,-1
 19 714 l 1,2,-1
 119 714 l 1,3,-1
 294 434 l 1,4,-1
 470 714 l 1,5,-1
 565 714 l 1,6,-1
 344 374 l 1,7,-1
 582 0 l 1,8,-1
 480 0 l 1,9,-1
 291 310 l 1,10,-1
 99 0 l 1,11,-1
 4 0 l 1,0,-1
EndSplineSet
EndChar

StartChar: uni2182
Encoding: 375 8578 264
Width: 1161
GlyphClass: 1
Flags: W
LayerCount: 2
Fore
SplineSet
423 0 m 2,0,1
 246 0 246 0 147 92.5 c 128,-1,2
 48 185 48 185 48 367 c 0,3,4
 48 482 48 482 91.5 560.5 c 128,-1,5
 135 639 135 639 214.5 679 c 128,-1,6
 294 719 294 719 402 719 c 2,7,-1
 759 719 l 2,8,9
 867 719 867 719 946.5 679 c 128,-1,10
 1026 639 1026 639 1069.5 560.5 c 128,-1,11
 1113 482 1113 482 1113 367 c 0,12,13
 1113 185 1113 185 1014 92.5 c 128,-1,14
 915 0 915 0 738 0 c 2,15,-1
 423 0 l 2,0,1
431 87 m 2,16,-1
 532 87 l 1,17,-1
 532 155 l 1,18,-1
 464 155 l 2,19,20
 361 155 361 155 304 208 c 128,-1,21
 247 261 247 261 247 364 c 0,22,23
 247 462 247 462 302.5 513.5 c 128,-1,24
 358 565 358 565 452 565 c 2,25,-1
 532 565 l 1,26,-1
 532 632 l 1,27,-1
 412 632 l 2,28,29
 287 632 287 632 218 567 c 128,-1,30
 149 502 149 502 149 364 c 0,31,32
 149 87 149 87 431 87 c 2,16,-1
629 87 m 1,33,-1
 730 87 l 2,34,35
 1012 87 1012 87 1012 364 c 0,36,37
 1012 502 1012 502 943.5 567 c 128,-1,38
 875 632 875 632 749 632 c 2,39,-1
 629 632 l 1,40,-1
 629 565 l 1,41,-1
 709 565 l 2,42,43
 803 565 803 565 859 513.5 c 128,-1,44
 915 462 915 462 915 364 c 0,45,46
 915 261 915 261 857.5 208 c 128,-1,47
 800 155 800 155 697 155 c 2,48,-1
 629 155 l 1,49,-1
 629 87 l 1,33,-1
483 204 m 2,50,-1
 532 204 l 1,51,-1
 532 515 l 1,52,-1
 473 515 l 2,53,54
 400 515 400 515 360 478 c 128,-1,55
 320 441 320 441 320 362 c 0,56,57
 320 204 320 204 483 204 c 2,50,-1
629 204 m 1,58,-1
 678 204 l 2,59,60
 841 204 841 204 841 362 c 0,61,62
 841 441 841 441 801.5 478 c 128,-1,63
 762 515 762 515 688 515 c 2,64,-1
 629 515 l 1,65,-1
 629 204 l 1,58,-1
EndSplineSet
EndChar

StartChar: uni216F
Encoding: 356 8559 265
Width: 907
GlyphClass: 1
Flags: W
LayerCount: 2
Fore
SplineSet
97 0 m 1,0,-1
 97 714 l 1,1,-1
 230 714 l 1,2,-1
 450 129 l 1,3,-1
 454 129 l 1,4,-1
 678 714 l 1,5,-1
 810 714 l 1,6,-1
 810 0 l 1,7,-1
 721 0 l 1,8,-1
 721 439 l 2,9,10
 721 491 721 491 723.5 542 c 128,-1,11
 726 593 726 593 728 625 c 1,12,-1
 724 625 l 1,13,-1
 486 0 l 1,14,-1
 412 0 l 1,15,-1
 177 626 l 1,16,-1
 173 626 l 1,17,18
 176 595 176 595 178 542.5 c 128,-1,19
 180 490 180 490 180 433 c 2,20,-1
 180 0 l 1,21,-1
 97 0 l 1,0,-1
EndSplineSet
EndChar

StartChar: uni2162
Encoding: 343 8546 266
Width: 1017
GlyphClass: 1
Flags: W
LayerCount: 2
Fore
SplineSet
718 0 m 1,0,-1
 718 52 l 1,1,-1
 802 71 l 1,2,-1
 802 642 l 1,3,-1
 718 662 l 1,4,-1
 718 714 l 1,5,-1
 976 714 l 1,6,-1
 976 662 l 1,7,-1
 892 642 l 1,8,-1
 892 71 l 1,9,-1
 976 52 l 1,10,-1
 976 0 l 1,11,-1
 718 0 l 1,0,-1
40 0 m 1,12,-1
 40 52 l 1,13,-1
 124 71 l 1,14,-1
 124 642 l 1,15,-1
 40 662 l 1,16,-1
 40 714 l 1,17,-1
 298 714 l 1,18,-1
 298 662 l 1,19,-1
 214 642 l 1,20,-1
 214 71 l 1,21,-1
 298 52 l 1,22,-1
 298 0 l 1,23,-1
 40 0 l 1,12,-1
379 0 m 1,24,-1
 379 52 l 1,25,-1
 463 71 l 1,26,-1
 463 642 l 1,27,-1
 379 662 l 1,28,-1
 379 714 l 1,29,-1
 637 714 l 1,30,-1
 637 662 l 1,31,-1
 553 642 l 1,32,-1
 553 71 l 1,33,-1
 637 52 l 1,34,-1
 637 0 l 1,35,-1
 379 0 l 1,24,-1
EndSplineSet
EndChar

StartChar: uni216B
Encoding: 352 8555 267
Width: 1264
GlyphClass: 1
Flags: W
LayerCount: 2
Fore
SplineSet
4 0 m 1,0,-1
 241 372 l 1,1,-1
 19 714 l 1,2,-1
 119 714 l 1,3,-1
 294 434 l 1,4,-1
 470 714 l 1,5,-1
 565 714 l 1,6,-1
 344 374 l 1,7,-1
 582 0 l 1,8,-1
 480 0 l 1,9,-1
 291 310 l 1,10,-1
 99 0 l 1,11,-1
 4 0 l 1,0,-1
626 0 m 1,12,-1
 626 52 l 1,13,-1
 710 71 l 1,14,-1
 710 642 l 1,15,-1
 626 662 l 1,16,-1
 626 714 l 1,17,-1
 884 714 l 1,18,-1
 884 662 l 1,19,-1
 800 642 l 1,20,-1
 800 71 l 1,21,-1
 884 52 l 1,22,-1
 884 0 l 1,23,-1
 626 0 l 1,12,-1
965 0 m 1,24,-1
 965 52 l 1,25,-1
 1049 71 l 1,26,-1
 1049 642 l 1,27,-1
 965 662 l 1,28,-1
 965 714 l 1,29,-1
 1223 714 l 1,30,-1
 1223 662 l 1,31,-1
 1139 642 l 1,32,-1
 1139 71 l 1,33,-1
 1223 52 l 1,34,-1
 1223 0 l 1,35,-1
 965 0 l 1,24,-1
EndSplineSet
EndChar

StartChar: uni2161
Encoding: 342 8545 268
Width: 678
GlyphClass: 1
Flags: W
LayerCount: 2
Fore
SplineSet
40 0 m 1,0,-1
 40 52 l 1,1,-1
 124 71 l 1,2,-1
 124 642 l 1,3,-1
 40 662 l 1,4,-1
 40 714 l 1,5,-1
 298 714 l 1,6,-1
 298 662 l 1,7,-1
 214 642 l 1,8,-1
 214 71 l 1,9,-1
 298 52 l 1,10,-1
 298 0 l 1,11,-1
 40 0 l 1,0,-1
379 0 m 1,12,-1
 379 52 l 1,13,-1
 463 71 l 1,14,-1
 463 642 l 1,15,-1
 379 662 l 1,16,-1
 379 714 l 1,17,-1
 637 714 l 1,18,-1
 637 662 l 1,19,-1
 553 642 l 1,20,-1
 553 71 l 1,21,-1
 637 52 l 1,22,-1
 637 0 l 1,23,-1
 379 0 l 1,12,-1
EndSplineSet
EndChar

StartChar: U
Encoding: 55 85 269
Width: 731
GlyphClass: 2
Flags: W
LayerCount: 2
Fore
SplineSet
362 -10 m 0,0,1
 229 -10 229 -10 159.5 62.5 c 128,-1,2
 90 135 90 135 90 254 c 2,3,-1
 90 714 l 1,4,-1
 180 714 l 1,5,-1
 180 251 l 2,6,7
 180 164 180 164 226.5 116 c 128,-1,8
 273 68 273 68 367 68 c 0,9,10
 464 68 464 68 507.5 119.5 c 128,-1,11
 551 171 551 171 551 252 c 2,12,-1
 551 714 l 1,13,-1
 640 714 l 1,14,-1
 640 252 l 2,15,16
 640 178 640 178 610 118.5 c 128,-1,17
 580 59 580 59 518.5 24.5 c 128,-1,18
 457 -10 457 -10 362 -10 c 0,0,1
EndSplineSet
EndChar

StartChar: U.001
Encoding: 1230 -1 270
Width: 652
GlyphClass: 1
Flags: W
LayerCount: 2
Fore
SplineSet
323 -10 m 0,0,1
 190 -10 190 -10 120.5 62.5 c 128,-1,2
 51 135 51 135 51 254 c 2,3,-1
 51 714 l 1,4,-1
 141 714 l 1,5,-1
 141 251 l 2,6,7
 141 164 141 164 187.5 116 c 128,-1,8
 234 68 234 68 328 68 c 0,9,10
 425 68 425 68 468.5 119.5 c 128,-1,11
 512 171 512 171 512 252 c 2,12,-1
 512 714 l 1,13,-1
 601 714 l 1,14,-1
 601 252 l 2,15,16
 601 178 601 178 571 118.5 c 128,-1,17
 541 59 541 59 479.5 24.5 c 128,-1,18
 418 -10 418 -10 323 -10 c 0,0,1
EndSplineSet
EndChar

StartChar: u1F164
Encoding: 927 127332 276
Width: 1000
GlyphClass: 1
Flags: W
LayerCount: 2
Fore
SplineSet
500 -55 m 0,0,1
 415 -55 415 -55 340 -23 c 128,-1,2
 265 9 265 9 208.5 65.5 c 128,-1,3
 152 122 152 122 120 197 c 128,-1,4
 88 272 88 272 88 357 c 256,5,6
 88 442 88 442 120 516.5 c 128,-1,7
 152 591 152 591 208.5 648 c 128,-1,8
 265 705 265 705 340 737 c 128,-1,9
 415 769 415 769 500 769 c 0,10,11
 586 769 586 769 660.5 737 c 128,-1,12
 735 705 735 705 791.5 648 c 128,-1,13
 848 591 848 591 880 516.5 c 128,-1,14
 912 442 912 442 912 357 c 256,15,16
 912 272 912 272 880 197 c 128,-1,17
 848 122 848 122 791.5 65.5 c 128,-1,18
 735 9 735 9 660.5 -23 c 128,-1,19
 586 -55 586 -55 500 -55 c 0,0,1
500 136 m 0,20,21
 672 136 672 136 672 295 c 2,22,-1
 672 574 l 1,23,-1
 603 574 l 1,24,-1
 603 295 l 2,25,26
 603 249 603 249 578.5 221 c 128,-1,27
 554 193 554 193 500 193 c 0,28,29
 396 193 396 193 396 295 c 2,30,-1
 396 574 l 1,31,-1
 327 574 l 1,32,-1
 327 297 l 2,33,34
 327 136 327 136 500 136 c 0,20,21
EndSplineSet
EndChar

StartChar: u1F144
Encoding: 895 127300 277
Width: 1000
GlyphClass: 1
Flags: W
LayerCount: 2
Fore
SplineSet
112 -31 m 1,0,-1
 112 745 l 1,1,-1
 888 745 l 1,2,-1
 888 -31 l 1,3,-1
 112 -31 l 1,0,-1
167 24 m 1,4,-1
 833 24 l 1,5,-1
 833 690 l 1,6,-1
 167 690 l 1,7,-1
 167 24 l 1,4,-1
500 136 m 0,8,9
 327 136 327 136 327 297 c 2,10,-1
 327 574 l 1,11,-1
 396 574 l 1,12,-1
 396 295 l 2,13,14
 396 193 396 193 500 193 c 0,15,16
 554 193 554 193 578.5 221 c 128,-1,17
 603 249 603 249 603 295 c 2,18,-1
 603 574 l 1,19,-1
 672 574 l 1,20,-1
 672 295 l 2,21,22
 672 136 672 136 500 136 c 0,8,9
EndSplineSet
EndChar

StartChar: uni24CA
Encoding: 603 9418 278
Width: 1000
GlyphClass: 1
Flags: W
LayerCount: 2
Fore
SplineSet
500 -55 m 0,0,1
 415 -55 415 -55 340 -23 c 128,-1,2
 265 9 265 9 208.5 65.5 c 128,-1,3
 152 122 152 122 120 197 c 128,-1,4
 88 272 88 272 88 357 c 0,5,6
 88 443 88 443 120 517.5 c 128,-1,7
 152 592 152 592 208.5 648.5 c 128,-1,8
 265 705 265 705 340 737 c 128,-1,9
 415 769 415 769 500 769 c 0,10,11
 586 769 586 769 660.5 737 c 128,-1,12
 735 705 735 705 791.5 648.5 c 128,-1,13
 848 592 848 592 880 517.5 c 128,-1,14
 912 443 912 443 912 357 c 0,15,16
 912 272 912 272 880 197 c 128,-1,17
 848 122 848 122 791.5 65.5 c 128,-1,18
 735 9 735 9 660.5 -23 c 128,-1,19
 586 -55 586 -55 500 -55 c 0,0,1
500 1 m 256,20,21
 574 1 574 1 638.5 28.5 c 128,-1,22
 703 56 703 56 752 105 c 128,-1,23
 801 154 801 154 828.5 218.5 c 128,-1,24
 856 283 856 283 856 357 c 256,25,26
 856 431 856 431 828.5 495.5 c 128,-1,27
 801 560 801 560 752 609 c 128,-1,28
 703 658 703 658 638.5 685.5 c 128,-1,29
 574 713 574 713 500 713 c 256,30,31
 426 713 426 713 361.5 685.5 c 128,-1,32
 297 658 297 658 248 609 c 128,-1,33
 199 560 199 560 171.5 495.5 c 128,-1,34
 144 431 144 431 144 357 c 256,35,36
 144 283 144 283 171.5 218.5 c 128,-1,37
 199 154 199 154 248 105 c 128,-1,38
 297 56 297 56 361.5 28.5 c 128,-1,39
 426 1 426 1 500 1 c 256,20,21
500 136 m 0,40,41
 327 136 327 136 327 297 c 2,42,-1
 327 574 l 1,43,-1
 396 574 l 1,44,-1
 396 295 l 2,45,46
 396 193 396 193 500 193 c 0,47,48
 554 193 554 193 578.5 221 c 128,-1,49
 603 249 603 249 603 295 c 2,50,-1
 603 574 l 1,51,-1
 672 574 l 1,52,-1
 672 295 l 2,53,54
 672 136 672 136 500 136 c 0,40,41
EndSplineSet
EndChar

StartChar: u1F124
Encoding: 863 127268 279
Width: 1000
GlyphClass: 1
Flags: W
LayerCount: 2
Fore
SplineSet
731 -57 m 1,0,1
 859 124 859 124 859 352 c 0,2,3
 859 464 859 464 826.5 571 c 128,-1,4
 794 678 794 678 731 767 c 1,5,-1
 789 767 l 1,6,7
 922 598 922 598 922 351 c 0,8,9
 922 106 922 106 789 -57 c 1,10,-1
 731 -57 l 1,0,1
211 -57 m 1,11,12
 78 106 78 106 78 351 c 0,13,14
 78 598 78 598 211 767 c 1,15,-1
 269 767 l 1,16,17
 206 678 206 678 173.5 571 c 128,-1,18
 141 464 141 464 141 352 c 0,19,20
 141 124 141 124 269 -57 c 1,21,-1
 211 -57 l 1,11,12
500 136 m 0,22,23
 327 136 327 136 327 297 c 2,24,-1
 327 574 l 1,25,-1
 396 574 l 1,26,-1
 396 295 l 2,27,28
 396 193 396 193 500 193 c 0,29,30
 554 193 554 193 578.5 221 c 128,-1,31
 603 249 603 249 603 295 c 2,32,-1
 603 574 l 1,33,-1
 672 574 l 1,34,-1
 672 295 l 2,35,36
 672 136 672 136 500 136 c 0,22,23
EndSplineSet
EndChar

StartChar: u1F184
Encoding: 956 127364 280
Width: 1000
GlyphClass: 1
Flags: W
LayerCount: 2
Fore
SplineSet
208 -31 m 2,0,1
 112 -31 112 -31 112 65 c 2,2,-1
 112 649 l 2,3,4
 112 745 112 745 208 745 c 2,5,-1
 792 745 l 2,6,7
 888 745 888 745 888 649 c 2,8,-1
 888 65 l 2,9,10
 888 -31 888 -31 792 -31 c 2,11,-1
 208 -31 l 2,0,1
500 136 m 0,12,13
 672 136 672 136 672 295 c 2,14,-1
 672 574 l 1,15,-1
 603 574 l 1,16,-1
 603 295 l 2,17,18
 603 249 603 249 578.5 221 c 128,-1,19
 554 193 554 193 500 193 c 0,20,21
 396 193 396 193 396 295 c 2,22,-1
 396 574 l 1,23,-1
 327 574 l 1,24,-1
 327 297 l 2,25,26
 327 136 327 136 500 136 c 0,12,13
EndSplineSet
EndChar

StartChar: V
Encoding: 56 86 281
Width: 600
GlyphClass: 2
Flags: W
LayerCount: 2
Fore
SplineSet
255 0 m 1,0,-1
 0 714 l 1,1,-1
 94 714 l 1,2,-1
 255 256 l 2,3,4
 271 212 271 212 282 173.5 c 128,-1,5
 293 135 293 135 300 100 c 1,6,7
 307 135 307 135 318 174 c 128,-1,8
 329 213 329 213 345 258 c 2,9,-1
 505 714 l 1,10,-1
 600 714 l 1,11,-1
 345 0 l 1,12,-1
 255 0 l 1,0,-1
EndSplineSet
EndChar

StartChar: V.001
Encoding: 1236 -1 282
Width: 702
GlyphClass: 1
Flags: W
LayerCount: 2
Fore
SplineSet
306 0 m 1,0,-1
 51 714 l 1,1,-1
 145 714 l 1,2,-1
 306 256 l 2,3,4
 322 212 322 212 333 173.5 c 128,-1,5
 344 135 344 135 351 100 c 1,6,7
 358 135 358 135 369 174 c 128,-1,8
 380 213 380 213 396 258 c 2,9,-1
 556 714 l 1,10,-1
 651 714 l 1,11,-1
 396 0 l 1,12,-1
 306 0 l 1,0,-1
EndSplineSet
EndChar

StartChar: u1F165
Encoding: 928 127333 288
Width: 1000
GlyphClass: 1
Flags: W
LayerCount: 2
Fore
SplineSet
500 -55 m 0,0,1
 415 -55 415 -55 340 -23 c 128,-1,2
 265 9 265 9 208.5 65.5 c 128,-1,3
 152 122 152 122 120 197 c 128,-1,4
 88 272 88 272 88 357 c 256,5,6
 88 442 88 442 120 516.5 c 128,-1,7
 152 591 152 591 208.5 648 c 128,-1,8
 265 705 265 705 340 737 c 128,-1,9
 415 769 415 769 500 769 c 0,10,11
 586 769 586 769 660.5 737 c 128,-1,12
 735 705 735 705 791.5 648 c 128,-1,13
 848 591 848 591 880 516.5 c 128,-1,14
 912 442 912 442 912 357 c 256,15,16
 912 272 912 272 880 197 c 128,-1,17
 848 122 848 122 791.5 65.5 c 128,-1,18
 735 9 735 9 660.5 -23 c 128,-1,19
 586 -55 586 -55 500 -55 c 0,0,1
467 146 m 1,20,-1
 534 146 l 1,21,-1
 690 574 l 1,22,-1
 614 574 l 1,23,-1
 531 316 l 2,24,25
 520 280 520 280 511.5 255.5 c 128,-1,26
 503 231 503 231 501 220 c 1,27,28
 500 225 500 225 499.5 229.5 c 128,-1,29
 499 234 499 234 497 241 c 2,30,-1
 386 574 l 1,31,-1
 310 574 l 1,32,-1
 467 146 l 1,20,-1
EndSplineSet
EndChar

StartChar: u1F145
Encoding: 896 127301 289
Width: 1000
GlyphClass: 1
Flags: W
LayerCount: 2
Fore
SplineSet
112 -31 m 1,0,-1
 112 745 l 1,1,-1
 888 745 l 1,2,-1
 888 -31 l 1,3,-1
 112 -31 l 1,0,-1
167 24 m 1,4,-1
 833 24 l 1,5,-1
 833 690 l 1,6,-1
 167 690 l 1,7,-1
 167 24 l 1,4,-1
467 146 m 1,8,-1
 310 574 l 1,9,-1
 386 574 l 1,10,-1
 478 298 l 2,11,12
 495 248 495 248 501 220 c 1,13,14
 503 231 503 231 511.5 255.5 c 128,-1,15
 520 280 520 280 531 316 c 2,16,-1
 614 574 l 1,17,-1
 690 574 l 1,18,-1
 534 146 l 1,19,-1
 467 146 l 1,8,-1
EndSplineSet
EndChar

StartChar: uni24CB
Encoding: 604 9419 290
Width: 1000
GlyphClass: 1
Flags: W
LayerCount: 2
Fore
SplineSet
500 -55 m 0,0,1
 415 -55 415 -55 340 -23 c 128,-1,2
 265 9 265 9 208.5 65.5 c 128,-1,3
 152 122 152 122 120 197 c 128,-1,4
 88 272 88 272 88 357 c 0,5,6
 88 443 88 443 120 517.5 c 128,-1,7
 152 592 152 592 208.5 648.5 c 128,-1,8
 265 705 265 705 340 737 c 128,-1,9
 415 769 415 769 500 769 c 0,10,11
 586 769 586 769 660.5 737 c 128,-1,12
 735 705 735 705 791.5 648.5 c 128,-1,13
 848 592 848 592 880 517.5 c 128,-1,14
 912 443 912 443 912 357 c 0,15,16
 912 272 912 272 880 197 c 128,-1,17
 848 122 848 122 791.5 65.5 c 128,-1,18
 735 9 735 9 660.5 -23 c 128,-1,19
 586 -55 586 -55 500 -55 c 0,0,1
500 1 m 256,20,21
 574 1 574 1 638.5 28.5 c 128,-1,22
 703 56 703 56 752 105 c 128,-1,23
 801 154 801 154 828.5 218.5 c 128,-1,24
 856 283 856 283 856 357 c 256,25,26
 856 431 856 431 828.5 495.5 c 128,-1,27
 801 560 801 560 752 609 c 128,-1,28
 703 658 703 658 638.5 685.5 c 128,-1,29
 574 713 574 713 500 713 c 256,30,31
 426 713 426 713 361.5 685.5 c 128,-1,32
 297 658 297 658 248 609 c 128,-1,33
 199 560 199 560 171.5 495.5 c 128,-1,34
 144 431 144 431 144 357 c 256,35,36
 144 283 144 283 171.5 218.5 c 128,-1,37
 199 154 199 154 248 105 c 128,-1,38
 297 56 297 56 361.5 28.5 c 128,-1,39
 426 1 426 1 500 1 c 256,20,21
467 146 m 1,40,-1
 310 574 l 1,41,-1
 386 574 l 1,42,-1
 473 316 l 2,43,44
 484 282 484 282 492 258 c 128,-1,45
 500 234 500 234 501 220 c 1,46,47
 503 231 503 231 511.5 255.5 c 128,-1,48
 520 280 520 280 531 316 c 2,49,-1
 614 574 l 1,50,-1
 690 574 l 1,51,-1
 534 146 l 1,52,-1
 467 146 l 1,40,-1
EndSplineSet
EndChar

StartChar: u1F125
Encoding: 864 127269 291
Width: 1000
GlyphClass: 1
Flags: W
LayerCount: 2
Fore
SplineSet
731 -57 m 1,0,1
 859 124 859 124 859 352 c 0,2,3
 859 464 859 464 826.5 571 c 128,-1,4
 794 678 794 678 731 767 c 1,5,-1
 789 767 l 1,6,7
 922 598 922 598 922 351 c 0,8,9
 922 106 922 106 789 -57 c 1,10,-1
 731 -57 l 1,0,1
211 -57 m 1,11,12
 78 106 78 106 78 351 c 0,13,14
 78 598 78 598 211 767 c 1,15,-1
 269 767 l 1,16,17
 206 678 206 678 173.5 571 c 128,-1,18
 141 464 141 464 141 352 c 0,19,20
 141 124 141 124 269 -57 c 1,21,-1
 211 -57 l 1,11,12
467 146 m 1,22,-1
 310 574 l 1,23,-1
 386 574 l 1,24,-1
 473 316 l 2,25,26
 484 282 484 282 492 258 c 128,-1,27
 500 234 500 234 501 220 c 1,28,29
 503 231 503 231 511.5 255.5 c 128,-1,30
 520 280 520 280 531 316 c 2,31,-1
 614 574 l 1,32,-1
 690 574 l 1,33,-1
 534 146 l 1,34,-1
 467 146 l 1,22,-1
EndSplineSet
EndChar

StartChar: u1F185
Encoding: 957 127365 292
Width: 1000
GlyphClass: 1
Flags: W
LayerCount: 2
Fore
SplineSet
208 -31 m 2,0,1
 112 -31 112 -31 112 65 c 2,2,-1
 112 649 l 2,3,4
 112 745 112 745 208 745 c 2,5,-1
 792 745 l 2,6,7
 888 745 888 745 888 649 c 2,8,-1
 888 65 l 2,9,10
 888 -31 888 -31 792 -31 c 2,11,-1
 208 -31 l 2,0,1
467 146 m 1,12,-1
 534 146 l 1,13,-1
 690 574 l 1,14,-1
 614 574 l 1,15,-1
 531 316 l 2,16,17
 520 280 520 280 511.5 255.5 c 128,-1,18
 503 231 503 231 501 220 c 1,19,20
 500 225 500 225 496.5 241 c 128,-1,21
 493 257 493 257 485 280 c 2,22,-1
 386 574 l 1,23,-1
 310 574 l 1,24,-1
 467 146 l 1,12,-1
EndSplineSet
EndChar

StartChar: W
Encoding: 57 87 293
Width: 930
GlyphClass: 2
Flags: W
LayerCount: 2
Fore
SplineSet
201 0 m 1,0,-1
 12 714 l 1,1,-1
 106 714 l 1,2,-1
 217 278 l 2,3,4
 229 232 229 232 237.5 189 c 128,-1,5
 246 146 246 146 251 108 c 1,6,7
 256 147 256 147 266 193 c 128,-1,8
 276 239 276 239 289 283 c 2,9,-1
 415 714 l 1,10,-1
 508 714 l 1,11,-1
 639 280 l 2,12,13
 653 234 653 234 663 188.5 c 128,-1,14
 673 143 673 143 678 108 c 1,15,16
 683 145 683 145 692 188.5 c 128,-1,17
 701 232 701 232 713 279 c 2,18,-1
 823 714 l 1,19,-1
 917 714 l 1,20,-1
 727 0 l 1,21,-1
 636 0 l 1,22,-1
 497 468 l 2,23,24
 489 497 489 497 481 526 c 128,-1,25
 473 555 473 555 468 577.5 c 128,-1,26
 463 600 463 600 461 609 c 1,27,28
 460 596 460 596 450.5 553.5 c 128,-1,29
 441 511 441 511 427 465 c 2,30,-1
 292 0 l 1,31,-1
 201 0 l 1,0,-1
EndSplineSet
EndChar

StartChar: W.001
Encoding: 1242 -1 294
Width: 1007
GlyphClass: 1
Flags: W
LayerCount: 2
Fore
SplineSet
240 0 m 1,0,-1
 51 714 l 1,1,-1
 145 714 l 1,2,-1
 256 278 l 2,3,4
 268 232 268 232 276.5 189 c 128,-1,5
 285 146 285 146 290 108 c 1,6,7
 295 147 295 147 305 193 c 128,-1,8
 315 239 315 239 328 283 c 2,9,-1
 454 714 l 1,10,-1
 547 714 l 1,11,-1
 678 280 l 2,12,13
 692 234 692 234 702 188.5 c 128,-1,14
 712 143 712 143 717 108 c 1,15,16
 722 145 722 145 731 188.5 c 128,-1,17
 740 232 740 232 752 279 c 2,18,-1
 862 714 l 1,19,-1
 956 714 l 1,20,-1
 766 0 l 1,21,-1
 675 0 l 1,22,-1
 536 468 l 2,23,24
 528 497 528 497 520 526 c 128,-1,25
 512 555 512 555 507 577.5 c 128,-1,26
 502 600 502 600 500 609 c 1,27,28
 499 596 499 596 489.5 553.5 c 128,-1,29
 480 511 480 511 466 465 c 2,30,-1
 331 0 l 1,31,-1
 240 0 l 1,0,-1
EndSplineSet
EndChar

StartChar: W.001_encupwardpointingtricomb
Encoding: 1247 -1 299
Width: 2028
GlyphClass: 1
Flags: W
LayerCount: 2
Fore
SplineSet
51 -193 m 1,0,-1
 1014 1471 l 1,1,-1
 1977 -193 l 1,2,-1
 51 -193 l 1,0,-1
1189 260 m 2,3,4
 1203 214 1203 214 1213 168.5 c 128,-1,5
 1223 123 1223 123 1228 88 c 1,6,7
 1233 125 1233 125 1242 168.5 c 128,-1,8
 1251 212 1251 212 1263 259 c 2,9,-1
 1373 694 l 1,10,-1
 1392 694 l 1,11,-1
 1014 1349 l 1,12,-1
 636 694 l 1,13,-1
 656 694 l 1,14,-1
 767 258 l 2,15,16
 779 212 779 212 787.5 169 c 128,-1,17
 796 126 796 126 801 88 c 1,18,19
 806 127 806 127 816 173 c 128,-1,20
 826 219 826 219 839 263 c 2,21,-1
 965 694 l 1,22,-1
 1058 694 l 1,23,-1
 1189 260 l 2,3,4
159 -131 m 1,24,-1
 1869 -131 l 1,25,-1
 1444 605 l 1,26,-1
 1277 -20 l 1,27,-1
 1186 -20 l 1,28,-1
 1047 448 l 2,29,30
 1039 477 1039 477 1031 506 c 128,-1,31
 1023 535 1023 535 1018 557.5 c 128,-1,32
 1013 580 1013 580 1011 589 c 1,33,34
 1010 576 1010 576 1000.5 533.5 c 128,-1,35
 991 491 991 491 977 445 c 2,36,-1
 842 -20 l 1,37,-1
 751 -20 l 1,38,-1
 585 606 l 1,39,-1
 159 -131 l 1,24,-1
EndSplineSet
Ligature2: "Podtablica 'ccmp' Sk+AUIA-adanie/dekompozycja glif+APMA-w w +AUIA-aci+AUQA-skie w tablicy 4" W uni20E4
EndChar

StartChar: u1F166
Encoding: 929 127334 300
Width: 1000
GlyphClass: 1
Flags: W
LayerCount: 2
Fore
SplineSet
500 -55 m 0,0,1
 415 -55 415 -55 340 -23 c 128,-1,2
 265 9 265 9 208.5 65.5 c 128,-1,3
 152 122 152 122 120 197 c 128,-1,4
 88 272 88 272 88 357 c 256,5,6
 88 442 88 442 120 516.5 c 128,-1,7
 152 591 152 591 208.5 648 c 128,-1,8
 265 705 265 705 340 737 c 128,-1,9
 415 769 415 769 500 769 c 0,10,11
 586 769 586 769 660.5 737 c 128,-1,12
 735 705 735 705 791.5 648 c 128,-1,13
 848 591 848 591 880 516.5 c 128,-1,14
 912 442 912 442 912 357 c 256,15,16
 912 272 912 272 880 197 c 128,-1,17
 848 122 848 122 791.5 65.5 c 128,-1,18
 735 9 735 9 660.5 -23 c 128,-1,19
 586 -55 586 -55 500 -55 c 0,0,1
352 146 m 1,20,-1
 409 146 l 1,21,-1
 486 423 l 2,22,23
 497 459 497 459 501 499 c 1,24,25
 505 480 505 480 507.5 461 c 128,-1,26
 510 442 510 442 515 424 c 2,27,-1
 595 146 l 1,28,-1
 652 146 l 1,29,-1
 762 574 l 1,30,-1
 698 574 l 1,31,-1
 636 314 l 2,32,33
 632 294 632 294 628 273 c 128,-1,34
 624 252 624 252 622 231 c 1,35,36
 622 247 622 247 618 262 c 2,37,-1
 528 574 l 1,38,-1
 471 574 l 1,39,-1
 398 313 l 2,40,41
 391 286 391 286 386.5 266.5 c 128,-1,42
 382 247 382 247 382 234 c 1,43,44
 380 251 380 251 378.5 263 c 128,-1,45
 377 275 377 275 375 283 c 2,46,-1
 307 574 l 1,47,-1
 242 574 l 1,48,-1
 352 146 l 1,20,-1
EndSplineSet
EndChar

StartChar: u1F146
Encoding: 897 127302 301
Width: 1000
GlyphClass: 1
Flags: W
LayerCount: 2
Fore
SplineSet
112 -31 m 1,0,-1
 112 745 l 1,1,-1
 888 745 l 1,2,-1
 888 -31 l 1,3,-1
 112 -31 l 1,0,-1
167 24 m 1,4,-1
 833 24 l 1,5,-1
 833 690 l 1,6,-1
 167 690 l 1,7,-1
 167 24 l 1,4,-1
352 146 m 1,8,-1
 242 574 l 1,9,-1
 307 574 l 1,10,-1
 375 283 l 2,11,12
 377 275 377 275 378.5 263 c 128,-1,13
 380 251 380 251 382 234 c 1,14,15
 382 247 382 247 386.5 266.5 c 128,-1,16
 391 286 391 286 398 313 c 2,17,-1
 471 574 l 1,18,-1
 528 574 l 1,19,-1
 618 262 l 2,20,21
 622 247 622 247 622 231 c 1,22,23
 624 252 624 252 628 273 c 128,-1,24
 632 294 632 294 636 314 c 2,25,-1
 698 574 l 1,26,-1
 762 574 l 1,27,-1
 652 146 l 1,28,-1
 595 146 l 1,29,-1
 515 424 l 2,30,31
 510 442 510 442 507 461 c 128,-1,32
 504 480 504 480 501 499 c 1,33,34
 497 459 497 459 486 423 c 2,35,-1
 409 146 l 1,36,-1
 352 146 l 1,8,-1
EndSplineSet
EndChar

StartChar: uni24CC
Encoding: 605 9420 302
Width: 1000
GlyphClass: 1
Flags: W
LayerCount: 2
Fore
SplineSet
500 -55 m 0,0,1
 415 -55 415 -55 340 -23 c 128,-1,2
 265 9 265 9 208.5 65.5 c 128,-1,3
 152 122 152 122 120 197 c 128,-1,4
 88 272 88 272 88 357 c 0,5,6
 88 443 88 443 120 517.5 c 128,-1,7
 152 592 152 592 208.5 648.5 c 128,-1,8
 265 705 265 705 340 737 c 128,-1,9
 415 769 415 769 500 769 c 0,10,11
 586 769 586 769 660.5 737 c 128,-1,12
 735 705 735 705 791.5 648.5 c 128,-1,13
 848 592 848 592 880 517.5 c 128,-1,14
 912 443 912 443 912 357 c 0,15,16
 912 272 912 272 880 197 c 128,-1,17
 848 122 848 122 791.5 65.5 c 128,-1,18
 735 9 735 9 660.5 -23 c 128,-1,19
 586 -55 586 -55 500 -55 c 0,0,1
500 1 m 256,20,21
 574 1 574 1 638.5 28.5 c 128,-1,22
 703 56 703 56 752 105 c 128,-1,23
 801 154 801 154 828.5 218.5 c 128,-1,24
 856 283 856 283 856 357 c 256,25,26
 856 431 856 431 828.5 495.5 c 128,-1,27
 801 560 801 560 752 609 c 128,-1,28
 703 658 703 658 638.5 685.5 c 128,-1,29
 574 713 574 713 500 713 c 256,30,31
 426 713 426 713 361.5 685.5 c 128,-1,32
 297 658 297 658 248 609 c 128,-1,33
 199 560 199 560 171.5 495.5 c 128,-1,34
 144 431 144 431 144 357 c 256,35,36
 144 283 144 283 171.5 218.5 c 128,-1,37
 199 154 199 154 248 105 c 128,-1,38
 297 56 297 56 361.5 28.5 c 128,-1,39
 426 1 426 1 500 1 c 256,20,21
352 146 m 1,40,-1
 242 574 l 1,41,-1
 307 574 l 1,42,-1
 370 314 l 2,43,44
 374 295 374 295 382 234 c 1,45,46
 382 240 382 240 385.5 256.5 c 128,-1,47
 389 273 389 273 394 292 c 2,48,-1
 471 574 l 1,49,-1
 528 574 l 1,50,-1
 603 316 l 2,51,52
 611 288 611 288 616 267 c 128,-1,53
 621 246 621 246 622 231 c 1,54,55
 624 241 624 241 625 251.5 c 128,-1,56
 626 262 626 262 628 273 c 2,57,-1
 698 574 l 1,58,-1
 762 574 l 1,59,-1
 652 146 l 1,60,-1
 595 146 l 1,61,-1
 515 424 l 2,62,63
 511 437 511 437 507.5 455 c 128,-1,64
 504 473 504 473 501 495 c 1,65,66
 500 488 500 488 498 472.5 c 128,-1,67
 496 457 496 457 491 440 c 2,68,-1
 409 146 l 1,69,-1
 352 146 l 1,40,-1
EndSplineSet
EndChar

StartChar: u1F126
Encoding: 865 127270 303
Width: 1000
GlyphClass: 1
Flags: W
LayerCount: 2
Fore
SplineSet
731 -57 m 1,0,1
 859 124 859 124 859 352 c 0,2,3
 859 464 859 464 826.5 571 c 128,-1,4
 794 678 794 678 731 767 c 1,5,-1
 789 767 l 1,6,7
 922 598 922 598 922 351 c 0,8,9
 922 106 922 106 789 -57 c 1,10,-1
 731 -57 l 1,0,1
211 -57 m 1,11,12
 78 106 78 106 78 351 c 0,13,14
 78 598 78 598 211 767 c 1,15,-1
 269 767 l 1,16,17
 206 678 206 678 173.5 571 c 128,-1,18
 141 464 141 464 141 352 c 0,19,20
 141 124 141 124 269 -57 c 1,21,-1
 211 -57 l 1,11,12
352 146 m 1,22,-1
 240 574 l 1,23,-1
 305 574 l 1,24,-1
 370 314 l 2,25,26
 374 295 374 295 382 234 c 1,27,28
 382 246 382 246 385 259 c 2,29,-1
 469 574 l 1,30,-1
 526 574 l 1,31,-1
 603 316 l 2,32,33
 611 288 611 288 616 267 c 128,-1,34
 621 246 621 246 622 231 c 1,35,36
 624 239 624 239 624.5 249 c 128,-1,37
 625 259 625 259 627 270 c 2,38,-1
 696 574 l 1,39,-1
 760 574 l 1,40,-1
 652 146 l 1,41,-1
 595 146 l 1,42,-1
 513 424 l 2,43,44
 509 438 509 438 505.5 456.5 c 128,-1,45
 502 475 502 475 499 499 c 1,46,47
 498 490 498 490 494 467.5 c 128,-1,48
 490 445 490 445 485 425 c 2,49,-1
 409 146 l 1,50,-1
 352 146 l 1,22,-1
EndSplineSet
EndChar

StartChar: u1F186
Encoding: 958 127366 304
Width: 1000
GlyphClass: 1
Flags: W
LayerCount: 2
Fore
SplineSet
208 -31 m 2,0,1
 112 -31 112 -31 112 65 c 2,2,-1
 112 649 l 2,3,4
 112 745 112 745 208 745 c 2,5,-1
 792 745 l 2,6,7
 888 745 888 745 888 649 c 2,8,-1
 888 65 l 2,9,10
 888 -31 888 -31 792 -31 c 2,11,-1
 208 -31 l 2,0,1
352 146 m 1,12,-1
 409 146 l 1,13,-1
 486 423 l 2,14,15
 497 459 497 459 501 499 c 1,16,17
 505 480 505 480 507.5 461 c 128,-1,18
 510 442 510 442 515 424 c 2,19,-1
 595 146 l 1,20,-1
 652 146 l 1,21,-1
 762 574 l 1,22,-1
 698 574 l 1,23,-1
 636 314 l 2,24,25
 632 294 632 294 628 273 c 128,-1,26
 624 252 624 252 622 231 c 1,27,28
 622 247 622 247 618 262 c 2,29,-1
 528 574 l 1,30,-1
 471 574 l 1,31,-1
 398 313 l 2,32,33
 391 286 391 286 386.5 266.5 c 128,-1,34
 382 247 382 247 382 234 c 1,35,36
 380 251 380 251 378.5 263 c 128,-1,37
 377 275 377 275 375 283 c 2,38,-1
 307 574 l 1,39,-1
 242 574 l 1,40,-1
 352 146 l 1,12,-1
EndSplineSet
EndChar

StartChar: u1F14F
Encoding: 906 127311 305
Width: 1000
GlyphClass: 1
Flags: W
LayerCount: 2
Fore
SplineSet
112 -31 m 1,0,-1
 112 745 l 1,1,-1
 888 745 l 1,2,-1
 888 -31 l 1,3,-1
 112 -31 l 1,0,-1
167 24 m 1,4,-1
 833 24 l 1,5,-1
 833 690 l 1,6,-1
 167 690 l 1,7,-1
 167 24 l 1,4,-1
733 136 m 0,8,9
 648 136 648 136 605.5 196 c 128,-1,10
 563 256 563 256 563 360 c 0,11,12
 563 467 563 467 605.5 525.5 c 128,-1,13
 648 584 648 584 722 584 c 0,14,15
 779 584 779 584 816 557 c 1,16,-1
 799 508 l 1,17,18
 764 531 764 531 725 531 c 0,19,20
 677 531 677 531 651.5 485.5 c 128,-1,21
 626 440 626 440 626 359 c 0,22,23
 626 189 626 189 734 189 c 0,24,25
 777 189 777 189 814 206 c 1,26,-1
 814 152 l 1,27,28
 798 145 798 145 778 140.5 c 128,-1,29
 758 136 758 136 733 136 c 0,8,9
259 146 m 1,30,-1
 182 574 l 1,31,-1
 242 574 l 1,32,-1
 282 284 l 2,33,34
 284 274 284 274 284.5 264 c 128,-1,35
 285 254 285 254 286 244 c 1,36,37
 288 260 288 260 291 280 c 128,-1,38
 294 300 294 300 298 323 c 2,39,-1
 342 574 l 1,40,-1
 397 574 l 1,41,-1
 442 326 l 2,42,43
 446 305 446 305 451 284 c 128,-1,44
 456 263 456 263 457 241 c 1,45,46
 458 253 458 253 459.5 264.5 c 128,-1,47
 461 276 461 276 462 288 c 2,48,-1
 501 574 l 1,49,-1
 561 574 l 1,50,-1
 484 146 l 1,51,-1
 429 146 l 1,52,-1
 375 459 l 2,53,54
 374 468 374 468 373 475.5 c 128,-1,55
 372 483 372 483 371 489 c 1,56,57
 370 485 370 485 369.5 478 c 128,-1,58
 369 471 369 471 367 460 c 2,59,-1
 314 146 l 1,60,-1
 259 146 l 1,30,-1
EndSplineSet
EndChar

StartChar: X
Encoding: 58 88 306
Width: 586
GlyphClass: 2
Flags: W
LayerCount: 2
Fore
SplineSet
4 0 m 1,0,-1
 241 372 l 1,1,-1
 19 714 l 1,2,-1
 119 714 l 1,3,-1
 294 434 l 1,4,-1
 470 714 l 1,5,-1
 565 714 l 1,6,-1
 344 374 l 1,7,-1
 582 0 l 1,8,-1
 480 0 l 1,9,-1
 291 310 l 1,10,-1
 99 0 l 1,11,-1
 4 0 l 1,0,-1
EndSplineSet
EndChar

StartChar: X.001
Encoding: 1248 -1 307
Width: 680
GlyphClass: 1
Flags: W
LayerCount: 2
Fore
SplineSet
51 0 m 1,0,-1
 288 372 l 1,1,-1
 66 714 l 1,2,-1
 166 714 l 1,3,-1
 341 434 l 1,4,-1
 517 714 l 1,5,-1
 612 714 l 1,6,-1
 391 374 l 1,7,-1
 629 0 l 1,8,-1
 527 0 l 1,9,-1
 338 310 l 1,10,-1
 146 0 l 1,11,-1
 51 0 l 1,0,-1
EndSplineSet
EndChar

StartChar: u1F167
Encoding: 930 127335 313
Width: 1000
GlyphClass: 1
Flags: W
LayerCount: 2
Fore
SplineSet
500 -55 m 0,0,1
 415 -55 415 -55 340 -23 c 128,-1,2
 265 9 265 9 208.5 65.5 c 128,-1,3
 152 122 152 122 120 197 c 128,-1,4
 88 272 88 272 88 357 c 256,5,6
 88 442 88 442 120 516.5 c 128,-1,7
 152 591 152 591 208.5 648 c 128,-1,8
 265 705 265 705 340 737 c 128,-1,9
 415 769 415 769 500 769 c 0,10,11
 586 769 586 769 660.5 737 c 128,-1,12
 735 705 735 705 791.5 648 c 128,-1,13
 848 591 848 591 880 516.5 c 128,-1,14
 912 442 912 442 912 357 c 256,15,16
 912 272 912 272 880 197 c 128,-1,17
 848 122 848 122 791.5 65.5 c 128,-1,18
 735 9 735 9 660.5 -23 c 128,-1,19
 586 -55 586 -55 500 -55 c 0,0,1
320 146 m 1,20,-1
 392 146 l 1,21,-1
 500 318 l 1,22,-1
 607 146 l 1,23,-1
 683 146 l 1,24,-1
 539 368 l 1,25,-1
 673 574 l 1,26,-1
 601 574 l 1,27,-1
 502 418 l 1,28,-1
 404 574 l 1,29,-1
 329 574 l 1,30,-1
 464 367 l 1,31,-1
 320 146 l 1,20,-1
EndSplineSet
EndChar

StartChar: u1F147
Encoding: 898 127303 314
Width: 1000
GlyphClass: 1
Flags: W
LayerCount: 2
Fore
SplineSet
112 -31 m 1,0,-1
 112 745 l 1,1,-1
 888 745 l 1,2,-1
 888 -31 l 1,3,-1
 112 -31 l 1,0,-1
167 24 m 1,4,-1
 833 24 l 1,5,-1
 833 690 l 1,6,-1
 167 690 l 1,7,-1
 167 24 l 1,4,-1
320 146 m 1,8,-1
 464 367 l 1,9,-1
 329 574 l 1,10,-1
 404 574 l 1,11,-1
 502 418 l 1,12,-1
 601 574 l 1,13,-1
 673 574 l 1,14,-1
 539 368 l 1,15,-1
 683 146 l 1,16,-1
 607 146 l 1,17,-1
 500 318 l 1,18,-1
 392 146 l 1,19,-1
 320 146 l 1,8,-1
EndSplineSet
EndChar

StartChar: uni24CD
Encoding: 606 9421 315
Width: 1000
GlyphClass: 1
Flags: W
LayerCount: 2
Fore
SplineSet
500 -55 m 0,0,1
 415 -55 415 -55 340 -23 c 128,-1,2
 265 9 265 9 208.5 65.5 c 128,-1,3
 152 122 152 122 120 197 c 128,-1,4
 88 272 88 272 88 357 c 0,5,6
 88 443 88 443 120 517.5 c 128,-1,7
 152 592 152 592 208.5 648.5 c 128,-1,8
 265 705 265 705 340 737 c 128,-1,9
 415 769 415 769 500 769 c 0,10,11
 586 769 586 769 660.5 737 c 128,-1,12
 735 705 735 705 791.5 648.5 c 128,-1,13
 848 592 848 592 880 517.5 c 128,-1,14
 912 443 912 443 912 357 c 0,15,16
 912 272 912 272 880 197 c 128,-1,17
 848 122 848 122 791.5 65.5 c 128,-1,18
 735 9 735 9 660.5 -23 c 128,-1,19
 586 -55 586 -55 500 -55 c 0,0,1
500 1 m 256,20,21
 574 1 574 1 638.5 28.5 c 128,-1,22
 703 56 703 56 752 105 c 128,-1,23
 801 154 801 154 828.5 218.5 c 128,-1,24
 856 283 856 283 856 357 c 256,25,26
 856 431 856 431 828.5 495.5 c 128,-1,27
 801 560 801 560 752 609 c 128,-1,28
 703 658 703 658 638.5 685.5 c 128,-1,29
 574 713 574 713 500 713 c 256,30,31
 426 713 426 713 361.5 685.5 c 128,-1,32
 297 658 297 658 248 609 c 128,-1,33
 199 560 199 560 171.5 495.5 c 128,-1,34
 144 431 144 431 144 357 c 256,35,36
 144 283 144 283 171.5 218.5 c 128,-1,37
 199 154 199 154 248 105 c 128,-1,38
 297 56 297 56 361.5 28.5 c 128,-1,39
 426 1 426 1 500 1 c 256,20,21
320 146 m 1,40,-1
 464 367 l 1,41,-1
 329 574 l 1,42,-1
 404 574 l 1,43,-1
 502 418 l 1,44,-1
 601 574 l 1,45,-1
 673 574 l 1,46,-1
 539 368 l 1,47,-1
 683 146 l 1,48,-1
 607 146 l 1,49,-1
 500 318 l 1,50,-1
 392 146 l 1,51,-1
 320 146 l 1,40,-1
EndSplineSet
EndChar

StartChar: u1F127
Encoding: 866 127271 316
Width: 1000
GlyphClass: 1
Flags: W
LayerCount: 2
Fore
SplineSet
731 -57 m 1,0,1
 859 124 859 124 859 352 c 0,2,3
 859 464 859 464 826.5 571 c 128,-1,4
 794 678 794 678 731 767 c 1,5,-1
 789 767 l 1,6,7
 922 598 922 598 922 351 c 0,8,9
 922 106 922 106 789 -57 c 1,10,-1
 731 -57 l 1,0,1
211 -57 m 1,11,12
 78 106 78 106 78 351 c 0,13,14
 78 598 78 598 211 767 c 1,15,-1
 269 767 l 1,16,17
 206 678 206 678 173.5 571 c 128,-1,18
 141 464 141 464 141 352 c 0,19,20
 141 124 141 124 269 -57 c 1,21,-1
 211 -57 l 1,11,12
321 146 m 1,22,-1
 465 367 l 1,23,-1
 330 574 l 1,24,-1
 405 574 l 1,25,-1
 503 418 l 1,26,-1
 602 574 l 1,27,-1
 674 574 l 1,28,-1
 540 368 l 1,29,-1
 684 146 l 1,30,-1
 608 146 l 1,31,-1
 501 318 l 1,32,-1
 393 146 l 1,33,-1
 321 146 l 1,22,-1
EndSplineSet
EndChar

StartChar: u1F187
Encoding: 959 127367 317
Width: 1000
GlyphClass: 1
Flags: W
LayerCount: 2
Fore
SplineSet
208 -31 m 2,0,1
 112 -31 112 -31 112 65 c 2,2,-1
 112 649 l 2,3,4
 112 745 112 745 208 745 c 2,5,-1
 792 745 l 2,6,7
 888 745 888 745 888 649 c 2,8,-1
 888 65 l 2,9,10
 888 -31 888 -31 792 -31 c 2,11,-1
 208 -31 l 2,0,1
320 146 m 1,12,-1
 392 146 l 1,13,-1
 500 318 l 1,14,-1
 607 146 l 1,15,-1
 683 146 l 1,16,-1
 539 368 l 1,17,-1
 673 574 l 1,18,-1
 601 574 l 1,19,-1
 502 418 l 1,20,-1
 404 574 l 1,21,-1
 329 574 l 1,22,-1
 464 367 l 1,23,-1
 320 146 l 1,12,-1
EndSplineSet
EndChar

StartChar: Y
Encoding: 59 89 318
Width: 566
GlyphClass: 2
Flags: W
LayerCount: 2
Fore
SplineSet
238 0 m 1,0,-1
 238 273 l 1,1,-1
 0 714 l 1,2,-1
 98 714 l 1,3,-1
 283 363 l 1,4,-1
 469 714 l 1,5,-1
 566 714 l 1,6,-1
 328 277 l 1,7,-1
 328 0 l 1,8,-1
 238 0 l 1,0,-1
EndSplineSet
EndChar

StartChar: Y.001
Encoding: 1254 -1 319
Width: 668
GlyphClass: 1
Flags: W
LayerCount: 2
Fore
SplineSet
289 0 m 1,0,-1
 289 273 l 1,1,-1
 51 714 l 1,2,-1
 149 714 l 1,3,-1
 334 363 l 1,4,-1
 520 714 l 1,5,-1
 617 714 l 1,6,-1
 379 277 l 1,7,-1
 379 0 l 1,8,-1
 289 0 l 1,0,-1
EndSplineSet
EndChar

StartChar: u1F168
Encoding: 931 127336 325
Width: 1000
GlyphClass: 1
Flags: W
LayerCount: 2
Fore
SplineSet
500 -55 m 0,0,1
 415 -55 415 -55 340 -23 c 128,-1,2
 265 9 265 9 208.5 65.5 c 128,-1,3
 152 122 152 122 120 197 c 128,-1,4
 88 272 88 272 88 357 c 256,5,6
 88 442 88 442 120 516.5 c 128,-1,7
 152 591 152 591 208.5 648 c 128,-1,8
 265 705 265 705 340 737 c 128,-1,9
 415 769 415 769 500 769 c 0,10,11
 586 769 586 769 660.5 737 c 128,-1,12
 735 705 735 705 791.5 648 c 128,-1,13
 848 591 848 591 880 516.5 c 128,-1,14
 912 442 912 442 912 357 c 256,15,16
 912 272 912 272 880 197 c 128,-1,17
 848 122 848 122 791.5 65.5 c 128,-1,18
 735 9 735 9 660.5 -23 c 128,-1,19
 586 -55 586 -55 500 -55 c 0,0,1
466 146 m 1,20,-1
 534 146 l 1,21,-1
 534 314 l 1,22,-1
 676 574 l 1,23,-1
 607 574 l 1,24,-1
 500 369 l 1,25,-1
 394 574 l 1,26,-1
 322 574 l 1,27,-1
 466 311 l 1,28,-1
 466 146 l 1,20,-1
EndSplineSet
EndChar

StartChar: u1F148
Encoding: 899 127304 326
Width: 1000
GlyphClass: 1
Flags: W
LayerCount: 2
Fore
SplineSet
112 -31 m 1,0,-1
 112 745 l 1,1,-1
 888 745 l 1,2,-1
 888 -31 l 1,3,-1
 112 -31 l 1,0,-1
167 24 m 1,4,-1
 833 24 l 1,5,-1
 833 690 l 1,6,-1
 167 690 l 1,7,-1
 167 24 l 1,4,-1
466 146 m 1,8,-1
 466 311 l 1,9,-1
 322 574 l 1,10,-1
 394 574 l 1,11,-1
 500 369 l 1,12,-1
 607 574 l 1,13,-1
 676 574 l 1,14,-1
 534 314 l 1,15,-1
 534 146 l 1,16,-1
 466 146 l 1,8,-1
EndSplineSet
EndChar

StartChar: uni24CE
Encoding: 607 9422 327
Width: 1000
GlyphClass: 1
Flags: W
LayerCount: 2
Fore
SplineSet
500 -55 m 0,0,1
 415 -55 415 -55 340 -23 c 128,-1,2
 265 9 265 9 208.5 65.5 c 128,-1,3
 152 122 152 122 120 197 c 128,-1,4
 88 272 88 272 88 357 c 0,5,6
 88 443 88 443 120 517.5 c 128,-1,7
 152 592 152 592 208.5 648.5 c 128,-1,8
 265 705 265 705 340 737 c 128,-1,9
 415 769 415 769 500 769 c 0,10,11
 586 769 586 769 660.5 737 c 128,-1,12
 735 705 735 705 791.5 648.5 c 128,-1,13
 848 592 848 592 880 517.5 c 128,-1,14
 912 443 912 443 912 357 c 0,15,16
 912 272 912 272 880 197 c 128,-1,17
 848 122 848 122 791.5 65.5 c 128,-1,18
 735 9 735 9 660.5 -23 c 128,-1,19
 586 -55 586 -55 500 -55 c 0,0,1
500 1 m 256,20,21
 574 1 574 1 638.5 28.5 c 128,-1,22
 703 56 703 56 752 105 c 128,-1,23
 801 154 801 154 828.5 218.5 c 128,-1,24
 856 283 856 283 856 357 c 256,25,26
 856 431 856 431 828.5 495.5 c 128,-1,27
 801 560 801 560 752 609 c 128,-1,28
 703 658 703 658 638.5 685.5 c 128,-1,29
 574 713 574 713 500 713 c 256,30,31
 426 713 426 713 361.5 685.5 c 128,-1,32
 297 658 297 658 248 609 c 128,-1,33
 199 560 199 560 171.5 495.5 c 128,-1,34
 144 431 144 431 144 357 c 256,35,36
 144 283 144 283 171.5 218.5 c 128,-1,37
 199 154 199 154 248 105 c 128,-1,38
 297 56 297 56 361.5 28.5 c 128,-1,39
 426 1 426 1 500 1 c 256,20,21
466 146 m 1,40,-1
 466 311 l 1,41,-1
 322 574 l 1,42,-1
 394 574 l 1,43,-1
 500 369 l 1,44,-1
 607 574 l 1,45,-1
 676 574 l 1,46,-1
 534 314 l 1,47,-1
 534 146 l 1,48,-1
 466 146 l 1,40,-1
EndSplineSet
EndChar

StartChar: u1F128
Encoding: 867 127272 328
Width: 1000
GlyphClass: 1
Flags: W
LayerCount: 2
Fore
SplineSet
731 -57 m 1,0,1
 859 124 859 124 859 352 c 0,2,3
 859 464 859 464 826.5 571 c 128,-1,4
 794 678 794 678 731 767 c 1,5,-1
 789 767 l 1,6,7
 922 598 922 598 922 351 c 0,8,9
 922 106 922 106 789 -57 c 1,10,-1
 731 -57 l 1,0,1
211 -57 m 1,11,12
 78 106 78 106 78 351 c 0,13,14
 78 598 78 598 211 767 c 1,15,-1
 269 767 l 1,16,17
 206 678 206 678 173.5 571 c 128,-1,18
 141 464 141 464 141 352 c 0,19,20
 141 124 141 124 269 -57 c 1,21,-1
 211 -57 l 1,11,12
467 146 m 1,22,-1
 467 311 l 1,23,-1
 323 574 l 1,24,-1
 395 574 l 1,25,-1
 501 369 l 1,26,-1
 608 574 l 1,27,-1
 677 574 l 1,28,-1
 535 314 l 1,29,-1
 535 146 l 1,30,-1
 467 146 l 1,22,-1
EndSplineSet
EndChar

StartChar: u1F188
Encoding: 960 127368 329
Width: 1000
GlyphClass: 1
Flags: W
LayerCount: 2
Fore
SplineSet
208 -31 m 2,0,1
 112 -31 112 -31 112 65 c 2,2,-1
 112 649 l 2,3,4
 112 745 112 745 208 745 c 2,5,-1
 792 745 l 2,6,7
 888 745 888 745 888 649 c 2,8,-1
 888 65 l 2,9,10
 888 -31 888 -31 792 -31 c 2,11,-1
 208 -31 l 2,0,1
466 146 m 1,12,-1
 534 146 l 1,13,-1
 534 314 l 1,14,-1
 676 574 l 1,15,-1
 607 574 l 1,16,-1
 500 369 l 1,17,-1
 394 574 l 1,18,-1
 322 574 l 1,19,-1
 466 311 l 1,20,-1
 466 146 l 1,12,-1
EndSplineSet
EndChar

StartChar: Z
Encoding: 60 90 330
Width: 572
GlyphClass: 2
Flags: W
LayerCount: 2
Fore
SplineSet
38 0 m 1,0,-1
 38 68 l 1,1,-1
 414 634 l 1,2,-1
 50 634 l 1,3,-1
 50 714 l 1,4,-1
 523 714 l 1,5,-1
 523 646 l 1,6,-1
 147 80 l 1,7,-1
 533 80 l 1,8,-1
 533 0 l 1,9,-1
 38 0 l 1,0,-1
EndSplineSet
EndChar

StartChar: Z.001
Encoding: 1260 -1 331
Width: 597
GlyphClass: 1
Flags: W
LayerCount: 2
Fore
SplineSet
51 0 m 1,0,-1
 51 68 l 1,1,-1
 427 634 l 1,2,-1
 63 634 l 1,3,-1
 63 714 l 1,4,-1
 536 714 l 1,5,-1
 536 646 l 1,6,-1
 160 80 l 1,7,-1
 546 80 l 1,8,-1
 546 0 l 1,9,-1
 51 0 l 1,0,-1
EndSplineSet
EndChar

StartChar: u1F169
Encoding: 932 127337 337
Width: 1000
GlyphClass: 1
Flags: W
LayerCount: 2
Fore
SplineSet
500 -55 m 0,0,1
 415 -55 415 -55 340 -23 c 128,-1,2
 265 9 265 9 208.5 65.5 c 128,-1,3
 152 122 152 122 120 197 c 128,-1,4
 88 272 88 272 88 357 c 256,5,6
 88 442 88 442 120 516.5 c 128,-1,7
 152 591 152 591 208.5 648 c 128,-1,8
 265 705 265 705 340 737 c 128,-1,9
 415 769 415 769 500 769 c 0,10,11
 586 769 586 769 660.5 737 c 128,-1,12
 735 705 735 705 791.5 648 c 128,-1,13
 848 591 848 591 880 516.5 c 128,-1,14
 912 442 912 442 912 357 c 256,15,16
 912 272 912 272 880 197 c 128,-1,17
 848 122 848 122 791.5 65.5 c 128,-1,18
 735 9 735 9 660.5 -23 c 128,-1,19
 586 -55 586 -55 500 -55 c 0,0,1
353 146 m 1,20,-1
 650 146 l 1,21,-1
 650 203 l 1,22,-1
 436 203 l 1,23,-1
 651 534 l 1,24,-1
 651 574 l 1,25,-1
 356 574 l 1,26,-1
 356 517 l 1,27,-1
 568 517 l 1,28,-1
 353 187 l 1,29,-1
 353 146 l 1,20,-1
EndSplineSet
EndChar

StartChar: u1F149
Encoding: 900 127305 338
Width: 1000
GlyphClass: 1
Flags: W
LayerCount: 2
Fore
SplineSet
112 -31 m 1,0,-1
 112 745 l 1,1,-1
 888 745 l 1,2,-1
 888 -31 l 1,3,-1
 112 -31 l 1,0,-1
167 24 m 1,4,-1
 833 24 l 1,5,-1
 833 690 l 1,6,-1
 167 690 l 1,7,-1
 167 24 l 1,4,-1
353 146 m 1,8,-1
 353 187 l 1,9,-1
 568 517 l 1,10,-1
 356 517 l 1,11,-1
 356 574 l 1,12,-1
 651 574 l 1,13,-1
 651 534 l 1,14,-1
 436 203 l 1,15,-1
 650 203 l 1,16,-1
 650 146 l 1,17,-1
 353 146 l 1,8,-1
EndSplineSet
EndChar

StartChar: uni24CF
Encoding: 608 9423 339
Width: 1000
GlyphClass: 1
Flags: W
LayerCount: 2
Fore
SplineSet
500 -55 m 0,0,1
 415 -55 415 -55 340 -23 c 128,-1,2
 265 9 265 9 208.5 65.5 c 128,-1,3
 152 122 152 122 120 197 c 128,-1,4
 88 272 88 272 88 357 c 0,5,6
 88 443 88 443 120 517.5 c 128,-1,7
 152 592 152 592 208.5 648.5 c 128,-1,8
 265 705 265 705 340 737 c 128,-1,9
 415 769 415 769 500 769 c 0,10,11
 586 769 586 769 660.5 737 c 128,-1,12
 735 705 735 705 791.5 648.5 c 128,-1,13
 848 592 848 592 880 517.5 c 128,-1,14
 912 443 912 443 912 357 c 0,15,16
 912 272 912 272 880 197 c 128,-1,17
 848 122 848 122 791.5 65.5 c 128,-1,18
 735 9 735 9 660.5 -23 c 128,-1,19
 586 -55 586 -55 500 -55 c 0,0,1
500 1 m 256,20,21
 574 1 574 1 638.5 28.5 c 128,-1,22
 703 56 703 56 752 105 c 128,-1,23
 801 154 801 154 828.5 218.5 c 128,-1,24
 856 283 856 283 856 357 c 256,25,26
 856 431 856 431 828.5 495.5 c 128,-1,27
 801 560 801 560 752 609 c 128,-1,28
 703 658 703 658 638.5 685.5 c 128,-1,29
 574 713 574 713 500 713 c 256,30,31
 426 713 426 713 361.5 685.5 c 128,-1,32
 297 658 297 658 248 609 c 128,-1,33
 199 560 199 560 171.5 495.5 c 128,-1,34
 144 431 144 431 144 357 c 256,35,36
 144 283 144 283 171.5 218.5 c 128,-1,37
 199 154 199 154 248 105 c 128,-1,38
 297 56 297 56 361.5 28.5 c 128,-1,39
 426 1 426 1 500 1 c 256,20,21
347 146 m 1,40,-1
 347 187 l 1,41,-1
 562 517 l 1,42,-1
 350 517 l 1,43,-1
 350 574 l 1,44,-1
 645 574 l 1,45,-1
 645 534 l 1,46,-1
 430 203 l 1,47,-1
 644 203 l 1,48,-1
 644 146 l 1,49,-1
 347 146 l 1,40,-1
EndSplineSet
EndChar

StartChar: u1F129
Encoding: 868 127273 340
Width: 1000
GlyphClass: 1
Flags: W
LayerCount: 2
Fore
SplineSet
731 -57 m 1,0,1
 859 124 859 124 859 352 c 0,2,3
 859 464 859 464 826.5 571 c 128,-1,4
 794 678 794 678 731 767 c 1,5,-1
 789 767 l 1,6,7
 922 598 922 598 922 351 c 0,8,9
 922 106 922 106 789 -57 c 1,10,-1
 731 -57 l 1,0,1
211 -57 m 1,11,12
 78 106 78 106 78 351 c 0,13,14
 78 598 78 598 211 767 c 1,15,-1
 269 767 l 1,16,17
 206 678 206 678 173.5 571 c 128,-1,18
 141 464 141 464 141 352 c 0,19,20
 141 124 141 124 269 -57 c 1,21,-1
 211 -57 l 1,11,12
348 146 m 1,22,-1
 348 187 l 1,23,-1
 563 517 l 1,24,-1
 351 517 l 1,25,-1
 351 574 l 1,26,-1
 646 574 l 1,27,-1
 646 534 l 1,28,-1
 431 203 l 1,29,-1
 645 203 l 1,30,-1
 645 146 l 1,31,-1
 348 146 l 1,22,-1
EndSplineSet
EndChar

StartChar: u1F189
Encoding: 961 127369 341
Width: 1000
GlyphClass: 1
Flags: W
LayerCount: 2
Fore
SplineSet
208 -31 m 2,0,1
 112 -31 112 -31 112 65 c 2,2,-1
 112 649 l 2,3,4
 112 745 112 745 208 745 c 2,5,-1
 792 745 l 2,6,7
 888 745 888 745 888 649 c 2,8,-1
 888 65 l 2,9,10
 888 -31 888 -31 792 -31 c 2,11,-1
 208 -31 l 2,0,1
353 146 m 1,12,-1
 650 146 l 1,13,-1
 650 203 l 1,14,-1
 436 203 l 1,15,-1
 651 534 l 1,16,-1
 651 574 l 1,17,-1
 356 574 l 1,18,-1
 356 517 l 1,19,-1
 568 517 l 1,20,-1
 353 187 l 1,21,-1
 353 146 l 1,12,-1
EndSplineSet
EndChar

StartChar: a
Encoding: 67 97 342
Width: 561
GlyphClass: 2
Flags: W
LayerCount: 2
Fore
SplineSet
215 -10 m 0,0,1
 142 -10 142 -10 94 28.5 c 128,-1,2
 46 67 46 67 46 149 c 0,3,4
 46 229 46 229 109 272.5 c 128,-1,5
 172 316 172 316 303 320 c 2,6,-1
 394 323 l 1,7,-1
 394 355 l 2,8,9
 394 422 394 422 365 448 c 128,-1,10
 336 474 336 474 283 474 c 0,11,12
 241 474 241 474 203 461.5 c 128,-1,13
 165 449 165 449 132 433 c 1,14,-1
 105 499 l 1,15,16
 140 518 140 518 188 531.5 c 128,-1,17
 236 545 236 545 288 545 c 0,18,19
 386 545 386 545 433 502 c 128,-1,20
 480 459 480 459 480 365 c 2,21,-1
 480 0 l 1,22,-1
 416 0 l 1,23,-1
 399 76 l 1,24,-1
 395 76 l 1,25,26
 360 32 360 32 321.5 11 c 128,-1,27
 283 -10 283 -10 215 -10 c 0,0,1
235 61 m 0,28,29
 303 61 303 61 348 98.5 c 128,-1,30
 393 136 393 136 393 214 c 2,31,-1
 393 262 l 1,32,-1
 314 259 l 2,33,34
 214 255 214 255 175.5 227 c 128,-1,35
 137 199 137 199 137 148 c 0,36,37
 137 103 137 103 164.5 82 c 128,-1,38
 192 61 192 61 235 61 c 0,28,29
EndSplineSet
Substitution2: "Podtablica Podstawienie pojedyncze w tablicy 12" ordfeminine
EndChar

StartChar: a.001
Encoding: 1266 -1 343
Width: 536
GlyphClass: 1
Flags: W
LayerCount: 2
Fore
SplineSet
220 -10 m 0,0,1
 147 -10 147 -10 99 28.5 c 128,-1,2
 51 67 51 67 51 149 c 0,3,4
 51 229 51 229 114 272.5 c 128,-1,5
 177 316 177 316 308 320 c 2,6,-1
 399 323 l 1,7,-1
 399 355 l 2,8,9
 399 422 399 422 370 448 c 128,-1,10
 341 474 341 474 288 474 c 0,11,12
 246 474 246 474 208 461.5 c 128,-1,13
 170 449 170 449 137 433 c 1,14,-1
 110 499 l 1,15,16
 145 518 145 518 193 531.5 c 128,-1,17
 241 545 241 545 293 545 c 0,18,19
 391 545 391 545 438 502 c 128,-1,20
 485 459 485 459 485 365 c 2,21,-1
 485 0 l 1,22,-1
 421 0 l 1,23,-1
 404 76 l 1,24,-1
 400 76 l 1,25,26
 365 32 365 32 326.5 11 c 128,-1,27
 288 -10 288 -10 220 -10 c 0,0,1
240 61 m 0,28,29
 308 61 308 61 353 98.5 c 128,-1,30
 398 136 398 136 398 214 c 2,31,-1
 398 262 l 1,32,-1
 319 259 l 2,33,34
 219 255 219 255 180.5 227 c 128,-1,35
 142 199 142 199 142 148 c 0,36,37
 142 103 142 103 169.5 82 c 128,-1,38
 197 61 197 61 240 61 c 0,28,29
EndSplineSet
EndChar

